<svg width="85" height="85" viewBox="0 0 85 85" fill="none" xmlns="http://www.w3.org/2000/svg">
<path d="M26.7117 0.113846C27.265 0.619634 27.8081 1.13584 28.3388 1.66314C29.1778 1.59923 29.1778 1.59923 30.0338 1.53404C33.0907 1.72182 34.8412 3.31324 37.0169 5.27817C37.2854 5.78944 37.2854 5.78944 37.5593 6.31103C38.0662 6.29306 38.5731 6.27509 39.0953 6.25657C52.9171 5.98535 66.5173 9.15841 76.8734 18.3524C83.2846 24.7334 85.139 31.7182 84.9498 40.2967C84.6602 45.7712 81.988 49.8164 78.2378 53.8228C77.9673 54.1284 77.6967 54.4339 77.4179 54.7488C70.5074 61.9917 59.0251 66.5161 48.9493 67.25C33.6201 67.943 21.112 65.4688 9.28771 55.7271C5.01848 51.9651 0.507488 47.1521 0.0476456 41.3606C-0.138008 31.7512 1.16695 25.5164 8.40634 18.3181C11.4552 15.5155 14.7851 13.2801 18.576 11.4754C19.4157 9.52082 19.791 7.90277 19.6607 5.7946C19.3028 5.62418 18.9448 5.45376 18.576 5.27817C18.4065 4.1162 18.4065 4.1162 18.576 2.69601C21.1289 0.393127 23.1992 -0.302477 26.7117 0.113846Z" fill="#FB9301"/>
<path d="M18.576 11.9917C18.4977 12.6201 18.4194 13.2486 18.3387 13.896C17.4056 21.9687 17.5157 29.729 18.0336 37.8133C16.7807 38.495 15.5278 39.1767 14.237 39.879C14.0736 41.371 14.0736 41.371 14.7793 42.9776C16.5077 43.9028 18.3126 44.488 20.2031 45.0434C20.0577 45.5866 19.9123 46.1298 19.7625 46.6895C19.4356 48.689 19.4356 48.689 20.7794 50.0463C22.3546 51.227 23.9342 52.2834 25.627 53.3063C26.8842 54.1194 28.1406 54.9337 29.3961 55.7492C32.5387 57.6016 36.7042 57.4425 40.2712 56.9213C44.7062 55.6939 48.2977 53.5657 50.5765 49.6913C52.5754 48.7396 55.1043 49.0042 57.3234 48.9529C61.6351 48.7802 64.7625 47.4294 67.9708 44.648C70.3441 42.0314 72.0745 38.6227 72.8141 35.2312C73.351 35.4016 73.888 35.572 74.4412 35.7476C74.8219 41.5177 73.9963 45.8878 70.0344 50.4014C67.2213 53.1013 64.7725 55.2518 60.6123 55.43C58.499 55.4335 56.3975 55.404 54.288 55.2775C50.936 55.1124 50.936 55.1124 48.0764 56.5985C46.7872 57.8231 46.7872 57.8231 46.2374 58.987C61.9464 59.66 61.9464 59.66 76.0683 53.8227C79.2475 50.8164 81.2866 47.3494 83.1193 43.4941C83.4779 42.8041 83.8385 42.115 84.204 41.4283C83.8129 48.1315 79.8011 52.52 74.8522 56.9859C63.3665 66.4124 48.8845 67.991 34.305 67.25C23.5312 66.1723 12.6283 59.7006 5.53345 52.1201C0.136135 45.7511 -0.323864 40.1003 0.135071 32.1326C1.09719 25.3501 6.27887 19.9217 11.5251 15.6067C16.7347 11.9917 16.7347 11.9917 18.576 11.9917Z" fill="#D6D0BA"/>
<path d="M41.8304 6.18185C54.6709 6.29391 67.3348 9.88418 76.8733 18.3523C82.4308 23.8836 84.9434 30.1042 84.9158 37.6842C84.9245 38.1722 84.9333 38.6602 84.9423 39.1629C84.9426 39.6309 84.943 40.0989 84.9433 40.5811C84.9449 41.0043 84.9466 41.4275 84.9482 41.8636C84.698 43.244 84.1907 43.6035 83.1191 44.527C82.8171 45.1341 82.5151 45.7412 82.2039 46.3667C79.9793 50.7319 76.8546 54.2408 72.2715 56.4049C71.701 56.6818 71.1305 56.9588 70.5427 57.2441C69.8594 57.496 69.1691 57.7309 68.4749 57.9542C68.0302 58.0986 67.5855 58.2431 67.1274 58.3919C60.9226 60.0721 52.4812 60.7156 46.2373 58.9871C47.0666 56.9771 48.0906 55.9682 50.0339 54.8556C51.9748 54.6629 53.8853 54.7881 55.8306 54.8879C61.1535 55.0127 64.5016 54.6896 68.5935 51.2668C72.4047 47.605 74.0089 43.6174 74.0343 38.4911C74.0001 37.5762 73.959 36.6613 73.8987 35.7476C73.5407 35.5772 73.1827 35.4068 72.8139 35.2312C72.6349 35.9129 72.4559 36.5946 72.2715 37.2969C72.2513 36.9214 72.231 36.546 72.2101 36.1591C71.9699 29.5309 71.9699 29.5309 69.0172 23.8697C68.8016 22.8429 68.6171 21.8094 68.4749 20.7711C67.8708 20.6539 67.2667 20.5367 66.6443 20.416C65.6711 20.0805 65.6711 20.0805 64.6782 19.7382C64.3166 18.8775 63.955 18.0168 63.5934 17.156C61.6945 16.4795 61.6945 16.4795 59.7968 16.1232C59.6178 15.9528 59.4388 15.7823 59.2544 15.6067C58.3545 15.4163 57.4495 15.2473 56.5425 15.0903C53.8909 14.6313 53.8909 14.6313 53.2882 14.0574C52.0603 13.9077 50.8273 13.7956 49.5932 13.7024C48.9186 13.6471 48.2439 13.5919 47.5487 13.535C45.7842 13.5407 44.9724 13.6681 43.5254 14.5739C43.3799 14.0839 43.2345 13.5939 43.0847 13.0891C42.5763 11.3448 42.5763 11.3448 40.8135 10.4424C40.7352 10.1122 40.6569 9.78203 40.5762 9.44183C40.1652 8.00686 39.3825 7.61429 38.1016 6.82739C39.0805 5.8953 40.5079 6.1993 41.8304 6.18185Z" fill="#D6D0BA"/>
<path d="M46.2382 14.574C46.9541 14.9148 47.67 15.2557 48.4077 15.6068C48.9446 15.266 49.4816 14.9251 50.0348 14.574C51.662 14.9936 51.662 14.9936 53.2891 15.6068C53.8261 15.7773 54.363 15.9477 54.9163 16.1233C55.4532 16.6345 55.4532 16.6345 56.001 17.1561C56.717 16.8153 57.4329 16.4744 58.1705 16.1233C58.1705 17.1458 58.1705 18.1683 58.1705 19.2219C59.0655 18.881 59.9604 18.5402 60.8824 18.189C61.1509 19.9784 61.1509 19.9784 61.4248 21.804C62.3197 21.4632 63.2147 21.1223 64.1367 20.7712C63.7787 21.9641 63.4208 23.1571 63.052 24.3862C63.3764 24.2051 63.7008 24.024 64.035 23.8375C65.2215 23.3533 65.2215 23.3533 66.8486 23.8698C66.4907 24.5514 66.1327 25.2331 65.7639 25.9355C66.4798 25.7651 67.1957 25.5946 67.9334 25.4191C67.3964 26.2712 66.8595 27.1233 66.3062 28.0012C67.2012 28.0012 68.0961 28.0012 69.0181 28.0012C68.3022 29.0238 67.5863 30.0463 66.8486 31.0998C67.9225 31.2702 68.9964 31.4407 70.1029 31.6162C69.208 32.4684 68.313 33.3205 67.391 34.1984C67.8385 34.4434 68.2859 34.6884 68.747 34.9408C69.1944 35.2071 69.6419 35.4733 70.1029 35.7477C70.1029 35.9181 70.1029 36.0885 70.1029 36.2641C69.029 36.605 67.9551 36.9458 66.8486 37.297C67.6541 37.8083 67.6541 37.8083 68.4758 38.3299C68.4758 38.6707 68.4758 39.0116 68.4758 39.3627C67.95 39.5118 67.4242 39.661 66.8825 39.8146C65.1636 40.2108 65.1636 40.2108 64.6791 41.4285C65.4845 41.6841 65.4845 41.6841 66.3062 41.9449C66.3062 42.1153 66.3062 42.2857 66.3062 42.4613C65.0533 42.8022 63.8004 43.143 62.5096 43.4942C62.5096 43.835 62.5096 44.1759 62.5096 44.5271C62.8675 44.6975 63.2255 44.8679 63.5943 45.0435C63.5943 45.3843 63.5943 45.7252 63.5943 46.0763C62.6994 46.0763 61.8045 46.0763 60.8824 46.0763C60.8824 47.0989 60.8824 48.1214 60.8824 49.1749C59.9218 49.1949 59.9218 49.1949 58.9417 49.2153C58.0971 49.2444 57.2524 49.274 56.4078 49.3041C55.9862 49.3114 55.5646 49.3187 55.1302 49.3262C52.5401 49.4254 52.5401 49.4254 50.3484 50.6718C50.0659 51.0299 49.7835 51.3881 49.4924 51.7571C46.5667 55.0652 42.689 57.1262 38.1914 57.7062C34.2342 57.8077 31.0449 57.6073 27.7972 55.3721C27.4316 55.1232 27.0659 54.8742 26.6892 54.6177C25.9467 54.0951 25.2111 53.5633 24.4836 53.022C23.5559 52.3448 22.6144 51.739 21.6277 51.1438C20.2039 50.2078 20.2039 50.2078 19.1191 48.6585C19.2949 46.9427 19.4488 46.2789 20.7463 45.0435C23.2521 46.2364 25.7579 47.4294 28.3396 48.6585C28.3396 48.9994 28.3396 49.3402 28.3396 49.6914C32.7282 50.8057 36.6839 50.6036 40.6724 48.4931C42.7806 47.0023 43.9712 45.1808 45.1534 42.9778C45.3373 42.6416 45.5212 42.3054 45.7106 41.959C47.0609 39.0735 46.9581 36.2716 46.7805 33.1655C46.7638 32.6709 46.747 32.1763 46.7297 31.6667C46.5962 29.3502 46.4368 27.5337 45.1195 25.5482C43.9092 23.6151 43.8791 22.4655 44.0686 20.2547C44.3371 20.766 44.3371 20.766 44.611 21.2876C44.969 21.2876 45.327 21.2876 45.6958 21.2876C45.6958 21.9693 45.6958 22.651 45.6958 23.3533C46.4117 23.1829 47.1277 23.0125 47.8653 22.8369C47.3283 22.6665 46.7914 22.496 46.2382 22.3205C46.5961 21.6388 46.9541 20.9571 47.3229 20.2547C47.539 20.5723 47.755 20.8898 47.9776 21.217C48.2649 21.6344 48.5523 22.0518 48.8484 22.4818C49.1315 22.8953 49.4147 23.3087 49.7064 23.7346C50.4729 24.7626 51.2722 25.5669 52.2043 26.4519C52.5739 27.3096 52.9352 28.1705 53.2891 29.0341C53.5911 29.3643 53.8932 29.6945 54.2044 30.0347C55.2078 31.536 54.6733 32.488 54.3739 34.1984C55.0653 35.2914 55.0653 35.2914 56.001 36.2641C56.2527 36.9032 56.2527 36.9032 56.5095 37.5552C57.177 39.0506 57.9575 39.8694 59.2553 40.912C59.6133 40.912 59.9712 40.912 60.3401 40.912C62.7055 37.3224 62.9676 34.2591 62.5096 30.0669C62.1163 28.4427 61.5679 26.9503 60.8824 25.4191C60.5636 24.6362 60.5636 24.6362 60.2384 23.8375C60.0929 23.5073 59.9475 23.1771 59.7977 22.8369C59.4397 22.8369 59.0817 22.8369 58.7129 22.8369C58.3997 22.3576 58.0865 21.8783 57.7637 21.3844C56.3625 19.4943 55.5247 19.0345 53.2891 18.189C51.159 17.9908 49.0639 17.9628 46.9246 17.9328C46.3401 17.8469 45.7556 17.761 45.1534 17.6726C44.3653 16.6215 44.3653 16.6215 44.0686 15.6068C44.6056 15.6068 45.1426 15.6068 45.6958 15.6068C45.8748 15.266 46.0538 14.9251 46.2382 14.574Z" fill="#FC9300"/>
<path d="M82.0344 48.1421C82.2134 48.1421 82.3924 48.1421 82.5768 48.1421C82.8286 52.5558 82.2536 55.5318 79.2208 59.0194C75.1713 63.1712 70.7421 65.1985 65.2206 67.2501C64.8144 67.4099 64.4082 67.5696 63.9897 67.7342C57.1269 70.2088 49.7567 70.4912 42.5084 70.5101C41.5229 70.5142 41.5229 70.5142 40.5174 70.5185C34.6978 70.4749 29.2463 69.763 23.7285 67.9925C22.3734 67.5702 21.0174 67.1512 19.6607 66.7337C19.2412 66.6012 18.8217 66.4687 18.3894 66.3322C18.093 66.2943 17.7966 66.2563 17.4911 66.2172C17.1332 66.5581 16.7752 66.8989 16.4064 67.2501C17.1223 67.2501 17.8383 67.2501 18.5759 67.2501C18.3969 67.7614 18.2179 68.2726 18.0335 68.7994C18.525 68.9558 19.0165 69.1123 19.5229 69.2735C25.5776 71.2561 25.5776 71.2561 28.3048 72.834C31.6462 74.7065 34.9684 73.9385 38.644 73.4473C37.8425 75.4591 36.8801 76.157 34.8473 77.0623C33.2604 77.285 31.703 77.2826 30.1015 77.256C29.6666 77.2526 29.2316 77.2492 28.7835 77.2457C25.6342 77.1778 23.1086 76.7264 20.203 75.513C19.6661 75.3426 19.1291 75.1722 18.5759 74.9966C18.5255 75.6836 18.5255 75.6836 18.4742 76.3845C17.922 78.528 17.1001 79.2918 15.3216 80.6773C13.1477 81.8212 11.2729 81.9156 8.81304 81.7102C6.18208 80.8084 4.19374 79.4228 2.84685 77.0623C2.13102 74.729 2.07798 72.9859 2.98245 70.7037C3.29567 70.2457 3.6089 69.7877 3.93161 69.3158C4.20009 68.9217 4.46857 68.5276 4.74519 68.1216C6.10671 66.6631 7.95759 66.5667 9.8978 66.2172C10.0768 65.5355 10.2558 64.8538 10.4402 64.1515C10.6192 64.6628 10.7982 65.174 10.9826 65.7008C12.5288 66.097 12.5288 66.097 14.2368 66.2172C15.2671 65.539 15.2671 65.539 15.864 64.6679C15.3844 64.5434 14.9047 64.4189 14.4106 64.2907C12.4518 63.5776 11.3561 62.7631 9.83 61.4079C9.38114 61.0158 8.93228 60.6237 8.46981 60.2197C5.7782 57.6358 3.99189 55.5734 3.86382 51.8539C3.88619 51.3107 3.90856 50.7675 3.93161 50.2078C4.30077 50.5593 4.66993 50.9108 5.05027 51.273C5.42573 51.6275 5.42573 51.6275 5.80876 51.9891C6.3738 52.5312 6.93017 53.0816 7.47827 53.6393C14.3844 60.5422 25.7202 66.3155 35.8452 66.8087C37.6821 66.8215 39.5189 66.8295 41.3559 66.8305C41.983 66.8368 42.6102 66.8431 43.2563 66.8496C49.1485 66.8591 54.9032 66.3931 60.407 64.2806C60.7713 64.1447 61.1357 64.0088 61.5111 63.8688C69.3392 60.877 76.8736 56.3373 81.3077 49.294C81.5475 48.9139 81.7873 48.5337 82.0344 48.1421Z" fill="#D0C7AD"/>
<path d="M16.4062 23.3533C16.5852 23.3533 16.7642 23.3533 16.9486 23.3533C17.1331 24.9883 17.3125 26.6238 17.491 28.2594C17.5427 28.7174 17.5945 29.1754 17.6478 29.6473C17.944 32.3869 18.0874 35.0594 18.0334 37.8134C16.7805 38.4951 15.5276 39.1768 14.2367 39.8791C14.0734 41.3711 14.0734 41.3711 14.7791 42.9777C16.5074 43.9028 18.3123 44.488 20.2029 45.0434C20.0575 45.5866 19.912 46.1299 19.7622 46.6896C19.4354 48.689 19.4354 48.689 20.7792 50.0464C22.3544 51.2271 23.9339 52.2835 25.6267 53.3063C26.8839 54.1195 28.1403 54.9338 29.3958 55.7493C32.5385 57.6017 36.7039 57.4426 40.271 56.9214C44.706 55.694 48.2975 53.5658 50.5762 49.6913C52.5751 48.7397 55.1041 49.0043 57.3231 48.953C61.6349 48.7803 64.7623 47.4294 67.9705 44.648C70.3438 42.0314 72.0742 38.6227 72.8138 35.2312C73.6192 35.4868 73.6192 35.4868 74.4409 35.7476C74.8217 41.5177 73.9961 45.8878 70.0341 50.4014C67.2211 53.1013 64.7722 55.2519 60.6121 55.4301C58.4987 55.4336 56.3973 55.404 54.2877 55.2775C50.9358 55.1125 50.9358 55.1125 48.0762 56.5986C46.787 57.8232 46.787 57.8232 46.2372 58.9871C44.8071 59.5556 43.3903 60.0754 41.932 60.5687C39.1592 61.4857 39.1592 61.4857 36.4743 62.6021C32.1486 62.9626 28.2223 62.9167 24.5419 60.5364C22.9961 59.1894 21.9457 57.6272 20.8936 55.9046C19.4616 54.0866 18.2386 53.4442 16.1011 52.4671C12.1289 50.6383 12.1289 50.6383 10.9824 48.6585C11.0598 46.8895 11.1645 45.9152 12.474 44.6238C13.2931 43.5655 13.2931 43.5655 12.8956 42.5702C12.7453 42.2041 12.5949 41.8379 12.4401 41.4607C10.7964 37.3483 10.9151 32.6628 12.5757 28.5579C13.5991 26.652 14.8936 24.9358 16.4062 23.3533Z" fill="#B09D6A"/>
<path d="M28.3382 6.31089C31.6703 7.41163 33.7839 9.56861 35.4125 12.4899C37.7906 18.1986 36.7527 24.5574 34.3044 30.0668C32.5326 33.346 30.0647 36.4042 26.7111 38.3297C25.0043 38.7611 24.1777 38.6449 22.372 38.3297C21.0491 37.4811 20.3173 36.8248 20.0053 35.3013C19.9233 34.0787 19.9162 32.8734 19.9334 31.6483C19.9326 31.196 19.9318 30.7436 19.931 30.2776C19.9319 29.3191 19.9382 28.3606 19.9494 27.4022C19.965 25.9547 19.9607 24.5082 19.9536 23.0606C19.9678 11.4537 19.9678 11.4537 23.05 7.21465C24.9967 6.0351 26.0646 6.00706 28.3382 6.31089Z" fill="#FFB520"/>
<path d="M26.7109 0.113846C27.2642 0.619634 27.8073 1.13584 28.338 1.66314C29.177 1.59923 29.177 1.59923 30.033 1.53404C33.0681 1.72048 34.9034 3.26221 37.0161 5.27817C37.2846 6.04507 37.2846 6.04507 37.5585 6.82747C37.2005 6.82747 36.8426 6.82747 36.4737 6.82747C36.2948 7.85 36.1158 8.87254 35.9314 9.92606C36.8263 9.75564 37.7212 9.58521 38.6433 9.40963C38.2853 10.6026 37.9273 11.7955 37.5585 13.0247C38.4534 12.6838 39.3484 12.343 40.2704 11.9918C39.7334 13.5256 39.1965 15.0594 38.6433 16.6397C39.5382 16.4693 40.4331 16.2988 41.3552 16.1232C40.7022 17.411 40.024 18.5409 39.1856 19.7383C40.0806 19.9087 40.9755 20.0791 41.8975 20.2547C41.1816 20.9364 40.4657 21.6181 39.728 22.3204C40.444 22.6613 41.1599 23.0021 41.8975 23.3533C41.0026 24.035 40.1077 24.7167 39.1856 25.419C39.9016 25.7599 40.6175 26.1007 41.3552 26.4519C38.7789 28.5176 38.7789 28.5176 37.5585 28.5176C37.5585 28.8585 37.5585 29.1993 37.5585 29.5505C38.4534 29.7209 39.3484 29.8913 40.2704 30.0669C40.2704 30.4078 40.2704 30.7486 40.2704 31.0998C39.0175 31.4406 37.7646 31.7815 36.4737 32.1326C36.7534 32.4415 37.0331 32.7504 37.3212 33.0687C37.5785 33.4415 37.8358 33.8143 38.1009 34.1984C37.8324 34.9653 37.8324 34.9653 37.5585 35.7477C36.6636 35.7477 35.7686 35.7477 34.8466 35.7477C35.0256 36.7702 35.2046 37.7927 35.389 38.8463C34.1361 38.8463 32.8832 38.8463 31.5923 38.8463C31.5923 39.6984 31.5923 40.5505 31.5923 41.4284C30.9882 41.3432 30.3842 41.258 29.7618 41.1702C27.9473 40.8885 27.9473 40.8885 26.7109 40.912C26.8899 41.9345 27.0689 42.9571 27.2533 44.0106C26.7499 43.8934 26.2465 43.7763 25.7278 43.6555C24.0162 43.3066 24.0162 43.3066 22.982 44.2365C22.7807 44.5028 22.5793 44.7691 22.3718 45.0435C22.1034 43.5097 22.1034 43.5097 21.8295 41.9449C20.2009 41.7733 20.2009 41.7733 19.2871 42.7195C19.0521 42.9751 18.8172 43.2308 18.5752 43.4942C18.2172 43.3237 17.8592 43.1533 17.4904 42.9777C17.5408 42.2588 17.5408 42.2588 17.5921 41.5253C17.658 39.8874 17.658 39.8874 16.6769 38.9108C16.2741 38.6232 16.2741 38.6232 15.8633 38.3298C16.9372 38.0742 16.9372 38.0742 18.0328 37.8134C17.9545 37.2023 17.8762 36.5912 17.7955 35.9615C16.7311 27.4377 16.7311 27.4377 16.948 23.3533C16.9641 22.8547 16.9802 22.3561 16.9968 21.8423C17.1909 18.1502 17.8789 14.7482 18.9158 11.2007C19.4501 9.3491 19.7803 7.71712 19.6599 5.7946C19.302 5.62418 18.944 5.45376 18.5752 5.27817C18.4057 4.1162 18.4057 4.1162 18.5752 2.69601C21.1281 0.393127 23.1984 -0.302477 26.7109 0.113846ZM22.0005 8.76458C19.9535 12.0972 20.0307 16.3898 20.0201 20.1538C20.0165 20.6116 20.0129 21.0694 20.0092 21.541C20.0037 22.4983 20.0011 23.4556 20.0013 24.4129C19.9989 25.8783 19.9791 27.3429 19.9587 28.8081C19.9555 29.7428 19.9533 30.6775 19.9523 31.6122C19.9445 32.0485 19.9367 32.4848 19.9287 32.9343C19.9448 34.8986 19.9549 35.9332 21.1756 37.5655C22.6175 38.4868 23.8114 38.7164 25.5456 38.6244C29.1268 37.7192 31.7212 34.2627 33.5881 31.3923C36.5538 25.9034 37.6361 19.6274 35.8975 13.6056C34.6824 10.6722 32.5326 8.19093 29.694 6.56925C26.1303 5.89061 24.2037 5.89655 22.0005 8.76458Z" fill="#FB9302"/>
<path d="M80.9506 25.4189C82.5778 25.9354 82.5778 25.9354 83.2113 26.9602C84.6322 30.6303 84.9612 33.9516 84.9846 37.8456C84.99 38.3251 84.9953 38.8046 85.0009 39.2986C84.9948 39.7518 84.9887 40.2049 84.9825 40.6719C84.9772 41.0786 84.9719 41.4854 84.9664 41.9046C84.6934 43.2417 84.1592 43.6221 83.1202 44.5269C82.8181 45.1341 82.5161 45.7412 82.2049 46.3667C79.9803 50.7319 76.8556 54.2408 72.2725 56.4049C71.702 56.6818 71.1315 56.9588 70.5437 57.2441C69.8604 57.496 69.1701 57.7309 68.4759 57.9542C68.0312 58.0986 67.5865 58.2431 67.1284 58.3919C60.9236 60.0721 52.4822 60.7156 46.2383 58.987C47.0676 56.9771 48.0916 55.9681 50.0349 54.8556C51.9758 54.6629 53.8864 54.7881 55.8316 54.8879C61.1545 55.0127 64.5026 54.6896 68.5945 51.2668C72.4057 47.605 74.0099 43.6174 74.0353 38.4911C74.0011 37.5762 73.96 36.6613 73.8997 35.7476C73.5417 35.5772 73.1837 35.4067 72.8149 35.2312C72.6359 35.9128 72.457 36.5945 72.2725 37.2969C72.2725 35.4222 72.2725 33.5476 72.2725 31.6161C72.9885 32.4682 73.7044 33.3204 74.4421 34.1983C77.987 31.7241 79.6661 29.4181 80.9506 25.4189Z" fill="#E5E0CF"/>
<path d="M16.4064 63.635C16.7643 63.8054 17.1223 63.9759 17.4911 64.1514C17.0165 66.669 17.0165 66.669 16.4064 67.25C17.1223 67.25 17.8382 67.25 18.5759 67.25C18.3969 67.7613 18.2179 68.2726 18.0335 68.7993C18.525 68.9558 19.0165 69.1122 19.5229 69.2734C25.5776 71.2561 25.5776 71.2561 28.3048 72.834C31.6462 74.7064 34.9684 73.9384 38.644 73.4472C37.8425 75.459 36.8801 76.157 34.8473 77.0622C33.2604 77.2849 31.703 77.2825 30.1015 77.2559C29.6665 77.2525 29.2316 77.2492 28.7835 77.2457C25.6342 77.1777 23.1086 76.7264 20.203 75.513C19.6661 75.3425 19.1291 75.1721 18.5759 74.9965C18.5255 75.6835 18.5255 75.6835 18.4742 76.3844C17.922 78.528 17.1001 79.2918 15.3216 80.6773C13.1477 81.8212 11.2729 81.9156 8.81304 81.7101C6.18208 80.8083 4.19374 79.4228 2.84685 77.0622C2.13102 74.729 2.07798 72.9859 2.98245 70.7037C3.45229 70.0167 3.45229 70.0167 3.93161 69.3158C4.20009 68.9217 4.46857 68.5276 4.74519 68.1215C6.10671 66.6631 7.95759 66.5667 9.8978 66.2172C10.0768 65.5355 10.2558 64.8538 10.4402 64.1514C10.6192 64.6627 10.7982 65.174 10.9826 65.7007C12.5288 66.0969 12.5288 66.0969 14.2368 66.2172C15.3657 65.4388 15.786 64.8165 16.4064 63.635Z" fill="#FB0301"/>
<path d="M72.8143 35.2312C73.3513 35.4016 73.8882 35.572 74.4415 35.7476C74.8222 41.5177 73.9966 45.8878 70.0346 50.4014C67.2216 53.1013 64.7727 55.2519 60.6126 55.4301C58.4993 55.4335 56.3978 55.404 54.2882 55.2775C50.9363 55.1125 50.9363 55.1125 48.0767 56.5986C46.7875 57.8232 46.7875 57.8232 46.2377 58.9871C43.2844 58.2202 43.2844 58.2202 40.2715 57.4378C41.5764 56.1953 42.8269 55.7378 44.5088 55.017C47.5349 53.616 48.89 52.4215 50.5767 49.6913C52.5756 48.7397 55.1046 49.0043 57.3236 48.953C61.6354 48.7803 64.7628 47.4294 67.971 44.648C70.3444 42.0314 72.0747 38.6227 72.8143 35.2312Z" fill="#B09D6A"/>
<path d="M26.2715 7.6665C28.996 7.92166 29.684 8.62401 31.5937 10.4423C33.5739 13.2706 33.017 17.4444 32.6784 20.771C32.2313 22.5511 31.5816 23.9073 30.5089 25.4189C30.2663 25.769 30.0237 26.1192 29.7737 26.48C28.3456 28.2954 27.5702 28.9488 25.2207 29.5826C23.4579 29.5503 23.4579 29.5503 22.3732 28.5175C21.9773 26.1277 21.9287 23.7029 21.8308 21.2874C21.8031 20.6974 21.8031 20.6974 21.7749 20.0954C21.7227 18.8681 21.6893 17.6416 21.6613 16.4136C21.6451 16.0291 21.629 15.6447 21.6123 15.2486C21.5805 12.3781 22.3138 10.7562 24.0003 8.3766C24.5427 7.86017 24.5427 7.86017 26.2715 7.6665Z" fill="#FFCA4C"/>
<path d="M46.2379 14.574C46.9538 14.9148 47.6698 15.2557 48.4074 15.6068C48.9444 15.266 49.4813 14.9251 50.0345 14.574C51.6617 14.9936 51.6617 14.9936 53.2888 15.6068C53.8258 15.7773 54.3627 15.9477 54.916 16.1233C55.2739 16.4641 55.6319 16.805 56.0007 17.1561C56.7167 16.8153 57.4326 16.4744 58.1703 16.1233C58.1703 17.1458 58.1703 18.1683 58.1703 19.2219C59.0652 18.881 59.9601 18.5402 60.8822 18.189C61.0611 19.382 61.2401 20.5749 61.4245 21.804C62.3195 21.4632 63.2144 21.1223 64.1364 20.7712C63.7785 21.9641 63.4205 23.1571 63.0517 24.3862C63.3761 24.2051 63.7005 24.024 64.0347 23.8375C65.2212 23.3533 65.2212 23.3533 66.8483 23.8698C66.4904 24.5514 66.1324 25.2331 65.7636 25.9355C66.4795 25.7651 67.1955 25.5946 67.9331 25.4191C67.3961 26.2712 66.8592 27.1233 66.306 28.0012C67.2009 28.0012 68.0958 28.0012 69.0179 28.0012C67.9439 29.535 67.9439 29.535 66.8483 31.0998C68.4592 31.3554 68.4592 31.3554 70.1026 31.6162C69.2077 32.4684 68.3128 33.3205 67.3907 34.1984C67.8382 34.4434 68.2856 34.6884 68.7467 34.9408C69.1941 35.2071 69.6416 35.4733 70.1026 35.7477C70.1026 35.9181 70.1026 36.0885 70.1026 36.2641C69.0287 36.605 67.9548 36.9458 66.8483 37.297C67.3853 37.6378 67.9223 37.9787 68.4755 38.3299C68.4755 38.6707 68.4755 39.0116 68.4755 39.3627C67.9497 39.5118 67.4239 39.661 66.8822 39.8146C65.1634 40.2108 65.1634 40.2108 64.6788 41.4285C65.2158 41.5989 65.7527 41.7693 66.306 41.9449C66.306 42.1153 66.306 42.2857 66.306 42.4613C65.0531 42.8022 63.8002 43.143 62.5093 43.4942C62.5093 43.835 62.5093 44.1759 62.5093 44.527C63.0463 44.7827 63.0463 44.7827 63.5941 45.0435C63.5941 45.3843 63.5941 45.7252 63.5941 46.0763C62.6991 46.0763 61.8042 46.0763 60.8822 46.0763C60.8822 47.0989 60.8822 48.1214 60.8822 49.1749C57.4814 49.3454 54.0807 49.5158 50.5769 49.6914C52.6109 44.7207 52.6109 44.7207 53.8312 42.9778C54.8971 42.8255 55.9644 42.6777 57.0368 42.5743C59.1097 42.3677 60.6793 42.108 62.2275 40.6962C64.3845 37.998 64.5632 35.2535 64.4394 31.939C63.9538 28.9383 62.7651 26.3205 60.8822 23.8698C59.781 23.2754 59.781 23.2754 58.7126 22.8369C58.377 22.3363 58.0414 21.8357 57.6957 21.3199C56.3413 19.4613 55.4787 19.0201 53.2888 18.189C51.1587 17.9908 49.0636 17.9628 46.9243 17.9328C46.3398 17.8469 45.7553 17.761 45.1531 17.6726C44.365 16.6215 44.365 16.6215 44.0684 15.6068C44.6053 15.6068 45.1423 15.6068 45.6955 15.6068C45.8745 15.266 46.0535 14.9251 46.2379 14.574Z" fill="#D05900"/>
<path d="M49.4583 13.1861C50.4724 13.247 50.4724 13.247 51.507 13.3091C53.2888 13.5411 53.2888 13.5411 54.916 14.574C55.992 14.7696 55.992 14.7696 57.1194 14.8322C59.255 15.0904 59.255 15.0904 60.3398 16.1233C61.5968 16.4947 62.8624 16.8416 64.1364 17.1561C64.4049 18.4343 64.4049 18.4343 64.6788 19.7383C65.9317 19.9087 67.1846 20.0791 68.4755 20.2547C69.5144 22.8177 70.4145 25.3518 71.1874 28.0012C71.3713 28.4772 71.5551 28.9532 71.7446 29.4436C73.0132 33.4264 72.9276 37.6242 70.9501 41.3639C68.825 44.5975 66.1495 47.604 62.2042 48.6585C61.7679 48.6585 61.3317 48.6585 60.8822 48.6585C60.8822 47.8064 60.8822 46.9543 60.8822 46.0763C61.7771 46.0763 62.672 46.0763 63.5941 46.0763C63.5941 45.7355 63.5941 45.3947 63.5941 45.0435C62.8781 44.7026 62.1622 44.3618 61.4245 44.0106C62.7236 42.5133 63.7635 42.2022 65.7636 41.9449C65.2266 41.6893 65.2266 41.6893 64.6788 41.4285C65.0368 40.7468 65.3948 40.0651 65.7636 39.3627C66.6585 39.3627 67.5534 39.3627 68.4755 39.3627C68.4755 39.0219 68.4755 38.681 68.4755 38.3299C67.7595 37.989 67.0436 37.6482 66.306 37.297C67.4659 36.1926 68.0051 36.0438 69.5602 35.7477C68.6653 35.4069 67.7704 35.066 66.8483 34.7148C67.9223 33.4367 67.9223 33.4367 69.0179 32.1327C68.1229 31.9622 67.228 31.7918 66.306 31.6162C67.0219 30.5937 67.7378 29.5712 68.4755 28.5176C67.5806 28.5176 66.6856 28.5176 65.7636 28.5176C66.3005 27.6655 66.8375 26.8134 67.3907 25.9355C66.4958 26.1059 65.6009 26.2763 64.6788 26.4519C65.2158 25.5998 65.7527 24.7477 66.306 23.8698C64.6951 24.1254 64.6951 24.1254 63.0517 24.3862C63.5263 21.9331 63.5263 21.9331 64.1364 20.7712C63.0625 21.2824 61.9886 21.7937 60.8822 22.3205C60.8822 20.9571 60.8822 19.5937 60.8822 18.189C59.9872 18.5298 59.0923 18.8707 58.1703 19.2219C57.9913 18.3697 57.8123 17.5176 57.6279 16.6397C56.554 17.151 56.554 17.151 55.4583 17.6726C55.1004 17.1613 54.7424 16.65 54.3736 16.1233C53.3717 15.7661 53.3717 15.7661 52.2041 15.6068C51.7342 15.4897 51.2644 15.3725 50.7803 15.2518C50.3552 15.1985 49.9301 15.1453 49.4922 15.0904C49.1342 15.4312 48.7762 15.7721 48.4074 16.1233C47.6915 15.612 46.9755 15.1007 46.2379 14.574C46.0589 15.0852 45.8799 15.5965 45.6955 16.1233C45.1585 15.9528 44.6216 15.7824 44.0684 15.6068C44.2718 14.6062 44.2718 14.6062 44.6107 13.5411C46.2416 12.7647 47.6542 13.0673 49.4583 13.1861Z" fill="#FB9201"/>
<path d="M21.2871 2.17944C22.361 2.69071 23.4349 3.20198 24.5414 3.72874C24.7204 3.21747 24.8993 2.7062 25.0837 2.17944C25.3075 2.44573 25.5312 2.71201 25.7617 2.98637C26.2316 3.35384 26.2316 3.35384 26.7109 3.72874C27.4368 3.56746 28.1598 3.39393 28.8804 3.21231C30.3381 3.63191 30.3381 3.63191 31.5923 4.24517C31.7713 4.58602 31.9503 4.92686 32.1347 5.27804C32.3137 4.93719 32.4927 4.59635 32.6771 4.24517C33.035 4.24517 33.393 4.24517 33.7618 4.24517C34.3042 5.10589 34.8466 5.96661 35.389 6.82733C35.747 6.82733 36.1049 6.82733 36.4737 6.82733C36.2948 7.84987 36.1158 8.87241 35.9314 9.92593C36.8263 9.75551 37.7212 9.58508 38.6433 9.4095C38.2853 10.6025 37.9273 11.7954 37.5585 13.0245C38.4534 12.6837 39.3484 12.3428 40.2704 11.9917C39.7334 13.5255 39.1965 15.0593 38.6433 16.6395C39.5382 16.4691 40.4331 16.2987 41.3552 16.1231C40.7022 17.4109 40.024 18.5408 39.1856 19.7381C40.0806 19.9086 40.9755 20.079 41.8975 20.2546C41.1816 20.9363 40.4657 21.618 39.728 22.3203C40.444 22.6611 41.1599 23.002 41.8975 23.3532C41.0026 24.0349 40.1077 24.7165 39.1856 25.4189C39.9016 25.7597 40.6175 26.1006 41.3552 26.4518C38.7789 28.5175 38.7789 28.5175 37.5585 28.5175C37.5585 28.8583 37.5585 29.1992 37.5585 29.5504C38.4534 29.7208 39.3484 29.8912 40.2704 30.0668C40.2704 30.4076 40.2704 30.7485 40.2704 31.0997C39.0175 31.4405 37.7646 31.7813 36.4737 32.1325C36.7534 32.4414 37.0331 32.7503 37.3212 33.0686C37.5785 33.4413 37.8358 33.8141 38.1009 34.1982C37.9219 34.7095 37.7429 35.2208 37.5585 35.7475C36.6636 35.7475 35.7686 35.7475 34.8466 35.7475C35.0256 36.7701 35.2046 37.7926 35.389 38.8461C34.1361 38.8461 32.8832 38.8461 31.5923 38.8461C31.5923 39.6982 31.5923 40.5504 31.5923 41.4283C30.9882 41.3431 30.3842 41.2579 29.7618 41.1701C27.9473 40.8883 27.9473 40.8883 26.7109 40.9119C26.8899 41.9344 27.0689 42.9569 27.2533 44.0105C26.7499 43.8933 26.2465 43.7761 25.7278 43.6554C24.0162 43.3065 24.0162 43.3065 22.982 44.2364C22.7807 44.5027 22.5793 44.769 22.3718 45.0433C22.1034 43.5095 22.1034 43.5095 21.8295 41.9447C20.2009 41.7732 20.2009 41.7732 19.2871 42.7194C19.0521 42.975 18.8172 43.2306 18.5752 43.494C18.2172 43.3236 17.8592 43.1532 17.4904 42.9776C17.5408 42.2586 17.5408 42.2586 17.5921 41.5251C17.658 39.8873 17.658 39.8873 16.6769 38.9107C16.2741 38.6231 16.2741 38.6231 15.8633 38.3297C16.6687 38.0741 16.6687 38.0741 17.4904 37.8133C17.4904 38.1541 17.4904 38.495 17.4904 38.8461C18.7592 39.0562 20.0083 39.2258 21.2871 39.3626C21.9342 39.4335 21.9342 39.4335 22.5943 39.5058C25.791 39.6987 27.6247 39.2089 30.0648 37.2141C35.1068 32.3514 37.0364 26.7012 37.1178 19.9318C37.2206 18.3862 37.2206 18.3862 36.4737 17.156C36.416 16.4575 36.3734 15.7578 36.3381 15.058C36.035 12.3484 35.1262 10.4141 33.2195 8.37663C30.7374 6.52005 28.2972 5.20189 25.0837 5.21348C24.7146 5.21215 24.3454 5.21082 23.9651 5.20945C22.7956 5.24379 22.7956 5.24379 21.2871 5.79447C21.2871 4.60151 21.2871 3.40855 21.2871 2.17944Z" fill="#CF5A00"/>
<path d="M44.0686 20.2546C44.3371 20.7659 44.3371 20.7659 44.611 21.2875C44.969 21.2875 45.327 21.2875 45.6958 21.2875C45.6958 21.9692 45.6958 22.6509 45.6958 23.3532C46.2327 23.3532 46.7697 23.3532 47.3229 23.3532C47.3229 24.3758 47.3229 25.3983 47.3229 26.4518C48.2179 26.4518 49.1128 26.4518 50.0348 26.4518C49.2213 28.0011 49.2213 28.0011 48.4077 29.5504C49.3026 29.5504 50.1975 29.5504 51.1196 29.5504C50.3964 30.9276 49.6732 32.3047 48.9501 33.6819C49.845 33.6819 50.7399 33.6819 51.662 33.6819C51.9305 34.1931 51.9305 34.1931 52.2044 34.7147C50.862 35.9929 50.862 35.9929 49.4924 37.2969C50.3874 37.4673 51.2823 37.6377 52.2044 37.8133C51.1196 38.8462 51.1196 38.8462 49.4924 39.3626C50.3874 39.7035 51.2823 40.0443 52.2044 40.3955C51.9359 40.9068 51.9359 40.9068 51.662 41.4284C50.2721 41.7511 50.2721 41.7511 48.9501 41.9448C49.666 42.6265 50.382 43.3082 51.1196 44.0105C49.2402 44.2662 49.2402 44.2662 47.3229 44.527C47.6809 44.8465 48.0389 45.166 48.4077 45.4953C49.4924 46.5927 49.4924 46.5927 49.4924 47.6255C48.0606 47.796 46.6287 47.9664 45.1534 48.142C45.5114 48.4828 45.8693 48.8237 46.2382 49.1748C46.2382 49.6861 46.2382 50.1974 46.2382 50.7241C44.9853 50.5537 43.7324 50.3833 42.4415 50.2077C42.71 51.4859 42.71 51.4859 42.9839 52.7899C41.552 52.449 40.1201 52.1082 38.6448 51.757C38.6448 52.6091 38.6448 53.4612 38.6448 54.3392C37.034 53.6575 35.4231 52.9758 33.7634 52.2734C33.9424 53.296 34.1214 54.3185 34.3058 55.372C33.836 55.1324 33.836 55.1324 33.3566 54.8879C31.3927 54.0048 30.4422 53.6718 28.3396 54.3392C27.8027 52.5497 27.8027 52.5497 27.2548 50.7241C25.7147 50.7241 24.4142 50.9321 22.9158 51.2406C23.1843 49.7068 23.1843 49.7068 23.4582 48.142C22.0263 47.8011 20.5944 47.4603 19.1191 47.1091C19.6561 46.4274 20.1931 45.7457 20.7463 45.0434C23.2521 46.2363 25.7579 47.4293 28.3396 48.6584C28.3396 48.9993 28.3396 49.3401 28.3396 49.6913C32.7282 50.8056 36.6839 50.6035 40.6724 48.493C42.7806 47.0022 43.9712 45.1807 45.1534 42.9777C45.3373 42.6415 45.5212 42.3053 45.7106 41.9589C47.0609 39.0734 46.9581 36.2715 46.7805 33.1654C46.7638 32.6708 46.747 32.1762 46.7297 31.6666C46.5962 29.3501 46.4368 27.5336 45.1195 25.5481C43.9092 23.615 43.8791 22.4654 44.0686 20.2546Z" fill="#CF5900"/>
<path d="M51.6607 18.7053C54.5671 18.9078 56.619 19.9116 58.7117 21.8039C58.7117 22.1448 58.7117 22.4856 58.7117 22.8368C59.0696 22.8368 59.4276 22.8368 59.7964 22.8368C60.2418 23.555 60.6813 24.2765 61.1185 24.9993C61.3639 25.4008 61.6093 25.8022 61.8621 26.2158C63.6103 29.6485 63.8514 34.5431 62.5655 38.1361C61.966 39.2658 61.966 39.2658 60.8812 40.9119C58.7117 40.9119 58.7117 40.9119 57.3218 39.8468C55.542 37.8045 54.3726 35.8934 54.3726 33.1654C54.143 30.8444 54.143 30.8444 52.7455 29.034C51.9385 25.6426 51.4909 22.1811 51.6607 18.7053Z" fill="#FEB520"/>
<path d="M83.6612 41.4285C83.8402 41.4285 84.0191 41.4285 84.2036 41.4285C83.8124 48.1317 79.8006 52.5202 74.8517 56.986C63.366 66.4125 48.884 67.9911 34.3046 67.2501C23.5323 66.1726 12.5497 59.6879 5.49482 52.0658C3.86399 50.1296 2.65759 48.4221 1.76172 46.0764C3.69648 46.6904 3.8757 47.1157 4.91431 48.7231C11.0793 57.7267 20.5841 61.9218 31.3405 64.4783C44.9553 67.0028 58.7214 64.5521 70.644 57.9543C72.0187 57.0072 73.2187 55.9717 74.4407 54.8557C74.9665 54.4936 75.4922 54.1314 76.034 53.7583C79.9421 50.6573 82.3739 46.0247 83.6612 41.4285Z" fill="#DBC28E"/>
<path d="M44.0685 25.9355C45.4489 27.0785 45.9753 27.8257 46.238 29.5506C46.6646 35.5826 46.4161 40.427 42.2041 45.2695C40.2447 47.2467 38.2803 48.7703 35.3904 49.175C34.125 49.1951 32.8591 49.1982 31.5938 49.175C32.8522 48.2533 34.1062 47.4233 35.4582 46.6251C37.0164 45.5608 37.4479 45.1406 38.1023 43.4942C38.0016 42.5356 38.0016 42.5356 37.8989 41.5576C37.7874 38.181 39.7534 35.4604 41.3672 32.5685C42.5597 30.4208 43.3677 28.2711 44.0685 25.9355Z" fill="#FEB51F"/>
<path d="M18.5768 74.9966C19.4585 75.1561 20.3398 75.3179 21.2209 75.4807C21.7117 75.5706 22.2025 75.6605 22.7082 75.7531C24.0006 76.0294 24.0006 76.0294 25.0854 76.5459C26.4663 76.6656 27.8374 76.7622 29.221 76.8364C29.6041 76.8587 29.9873 76.881 30.382 76.904C31.3283 76.9587 32.2746 77.0108 33.2211 77.0623C33.2211 77.923 33.2211 78.7838 33.2211 79.6445C28.4019 79.8253 24.2405 79.59 19.6616 78.0952C19.7175 78.5532 19.7734 79.0112 19.831 79.4831C19.6616 81.1938 19.6616 81.1938 18.4751 82.614C15.1825 85.122 11.818 85.2361 7.72918 84.8088C5.30386 83.7149 3.90933 82.5194 2.84776 80.1609C2.74606 78.4502 2.74606 78.4502 2.84776 77.0623C3.2281 77.4564 3.60845 77.8505 4.00032 78.2566C6.12174 80.1448 7.77244 81.0856 10.6784 81.3874C12.911 81.1637 14.4461 80.6859 16.4073 79.6445C17.6248 78.1374 18.1292 76.8214 18.5768 74.9966Z" fill="#D0CBA0"/>
<path d="M5.55886 67.7666C9.58013 68.8337 9.58013 68.8337 10.9827 70.962C11.6015 73.2083 11.7675 74.7542 11.5251 77.0624C10.8513 77.95 10.8513 77.95 9.89791 78.6117C8.7284 78.7811 8.7284 78.7811 7.4572 78.7408C6.82795 78.7288 6.82795 78.7288 6.18599 78.7166C5.01648 78.6117 5.01648 78.6117 3.38934 78.0952C2.08591 76.1095 2.19312 74.256 2.50797 72.0151C3.05915 70.1455 4.13051 69.1266 5.55886 67.7666Z" fill="#FE1422"/>
<path d="M17.4922 69.3158C19.6997 69.1795 21.1009 69.5698 23.0855 70.4778C23.8668 70.8283 23.8668 70.8283 24.6639 71.1858C25.58 71.6189 26.4902 72.0638 27.3885 72.5294C31.1857 74.4957 34.4841 74.0033 38.645 73.4473C37.8437 75.4587 36.8781 76.1534 34.8484 77.0623C30.2177 77.76 24.5393 77.5587 20.2126 75.8337C18.0846 74.2042 17.8011 71.7883 17.4922 69.3158Z" fill="#52C606"/>
<path d="M63.5938 48.6584C61.888 50.4881 60.0137 51.5447 57.7294 52.5962C57.4088 52.7506 57.0882 52.905 56.7579 53.0642C55.1218 53.8321 53.5614 54.4115 51.8034 54.8838C49.4842 55.5238 48.5077 56.3874 46.7801 57.9541C46.6011 58.295 46.4221 58.6358 46.2377 58.987C44.2688 58.4757 42.3 57.9645 40.2715 57.4377C41.5764 56.1952 42.8269 55.7377 44.5088 55.0169C47.5349 53.616 48.89 52.4214 50.5767 49.6912C52.3236 48.8596 54.2473 48.9776 56.17 48.8843C56.7882 48.8508 56.7882 48.8508 57.419 48.8167C59.4797 48.7093 61.5292 48.6309 63.5938 48.6584Z" fill="#B09D6A"/>
<path d="M25.6263 9.92603C27.3862 10.0657 28.2254 10.3525 29.5925 11.443C30.9093 13.7185 30.9171 15.6455 30.5077 18.1889C29.6754 20.52 28.8832 21.9744 26.7111 23.3533C25.2534 23.1596 25.2534 23.1596 23.9992 22.8368C23.9519 21.0724 23.923 19.3082 23.8975 17.5434C23.8838 17.0435 23.8702 16.5435 23.8562 16.0284C23.8509 15.5458 23.8457 15.0631 23.8403 14.5658C23.8318 14.1223 23.8232 13.6788 23.8145 13.2218C24.0366 11.7424 24.6033 11.036 25.6263 9.92603Z" fill="#FFD76D"/>
<path d="M37.0177 39.3628C37.3757 39.3628 37.7337 39.3628 38.1025 39.3628C38.8814 42.9473 38.8814 42.9473 37.933 45.1404C35.3259 47.7382 32.0407 49.1052 28.3396 49.6914C28.3396 49.3506 28.3396 49.0097 28.3396 48.6586C27.702 48.4349 27.702 48.4349 27.0515 48.2067C25.6277 47.6257 25.6277 47.6257 24.543 46.5928C25.0453 46.479 25.0453 46.479 25.5578 46.3629C30.3672 45.1501 34.0352 43.2249 37.0177 39.3628Z" fill="#E68407"/>
<path d="M16.4062 63.635C16.7642 63.8054 17.1221 63.9759 17.491 64.1514C17.0164 66.669 17.0164 66.669 16.4062 67.25C17.1221 67.25 17.8381 67.25 18.5757 67.25C18.2706 68.2183 18.2706 68.2183 17.491 69.3158C15.5248 69.9613 15.5248 69.9613 13.6943 70.3486C13.8733 71.2007 14.0523 72.0529 14.2367 72.9308C12.7498 72.7395 11.7494 72.5766 10.5417 71.7043C9.89764 70.8651 9.89764 70.8651 9.89764 69.3158C9.38305 69.2732 8.86847 69.2306 8.33829 69.1867C6.64335 68.7993 6.64335 68.7993 5.89758 67.7342C5.78572 67.404 5.67385 67.0738 5.55859 66.7336C6.99048 66.5632 8.42236 66.3928 9.89764 66.2172C10.0766 65.5355 10.2556 64.8538 10.44 64.1514C10.619 64.6627 10.798 65.174 10.9824 65.7007C12.5286 66.0969 12.5286 66.0969 14.2367 66.2172C15.3655 65.4388 15.7858 64.8165 16.4062 63.635Z" fill="#5D7305"/>
<path d="M51.6621 20.2546C53.9936 21.5227 55.9943 22.7794 56.8656 25.3282C57.5531 28.8341 57.5402 32.1758 55.4588 35.2312C54.6113 34.6179 54.6113 34.6179 53.8316 33.6819C53.9211 33.2665 54.0106 32.8511 54.1028 32.4231C54.2371 31.768 54.2371 31.768 54.374 31.0997C54.1244 30.8248 53.8748 30.5498 53.6176 30.2666C52.3377 28.4548 52.3059 26.6553 52.1028 24.5152C52.0584 24.1058 52.014 23.6964 51.9683 23.2746C51.8601 22.2685 51.7602 21.2616 51.6621 20.2546Z" fill="#FEC94A"/>
<path d="M19.1191 72.9309C19.8654 73.0793 20.6111 73.2305 21.3565 73.3828C21.7718 73.4667 22.1871 73.5505 22.615 73.637C24.0006 73.9638 24.0006 73.9638 25.4752 74.5125C27.8025 75.1456 29.9346 75.1087 32.3397 75.0612C33.0161 75.0542 33.0161 75.0542 33.7062 75.0471C34.8101 75.035 35.9139 75.0165 37.0177 74.9966C37.0177 75.3375 37.0177 75.6783 37.0177 76.0295C34.9087 77.3683 32.6472 77.2599 30.204 77.256C29.7706 77.2567 29.3373 77.2574 28.8907 77.258C25.328 77.1978 22.3318 76.5059 19.1191 74.9966C19.1191 74.3149 19.1191 73.6333 19.1191 72.9309Z" fill="#3D9903"/>
<path d="M45.6953 18.7053C49.831 19.1572 49.831 19.1572 51.6615 19.7382C52.8548 22.515 52.859 25.5659 52.7463 28.5175C52.5994 28.2126 52.4526 27.9077 52.3013 27.5936C51.6702 26.4674 50.9992 25.6515 50.1022 24.7088C48.3789 22.8434 46.8674 20.9373 45.6953 18.7053Z" fill="#E7952F"/>
<path d="M63.0509 45.0435C63.2299 45.3843 63.4089 45.7251 63.5933 46.0763C62.6984 46.0763 61.8034 46.0763 60.8814 46.0763C60.8814 47.0989 60.8814 48.1214 60.8814 49.1749C55.7803 49.4305 55.7803 49.4305 50.5762 49.6913C50.9341 48.8392 51.2921 47.9871 51.6609 47.1092C52.0189 47.1092 52.3769 47.1092 52.7457 47.1092C52.7457 47.6205 52.7457 48.1317 52.7457 48.6585C53.1037 48.4881 53.4616 48.3176 53.8305 48.1421C54.1842 47.0965 54.1842 47.0965 54.3728 46.0763C55.9322 46.0118 55.9322 46.0118 57.6271 46.0763C57.9851 46.4172 58.3431 46.758 58.7119 47.1092C58.9244 46.8642 59.137 46.6192 59.356 46.3668C60.5604 45.3782 61.4963 45.2435 63.0509 45.0435Z" fill="#E16701"/>
<path d="M2.84707 70.8652C7.5929 71.769 7.5929 71.769 8.81325 72.931C8.63442 74.6337 8.47552 75.3183 7.18611 76.546C5.83016 76.5137 5.83016 76.5137 4.47421 76.0296C3.76234 74.7062 3.76234 74.7062 3.38945 73.4474C3.03148 74.1291 2.67351 74.8108 2.30469 75.5131C2.48367 73.9793 2.66266 72.4455 2.84707 70.8652Z" fill="#FF3546"/>
<path d="M18.033 69.8322C19.346 71.8325 19.2047 73.6661 18.8699 75.9165C18.3029 78.1226 17.216 79.6895 15.1855 80.871C14.8723 80.9775 14.559 81.084 14.2363 81.1937C14.8182 79.7449 15.406 78.4817 16.2703 77.1591C17.1748 74.9628 16.8145 73.5181 15.8635 71.3815C15.0736 70.3655 15.0736 70.3655 14.2363 69.8322C15.8691 69.3498 16.3334 69.2928 18.033 69.8322Z" fill="#DB0C03"/>
<path d="M83.6621 41.4285C83.841 41.4285 84.02 41.4285 84.2044 41.4285C83.849 47.52 80.5581 51.7165 76.0687 55.8886C75.1749 56.589 74.2736 57.2812 73.3568 57.9543C73.1778 57.6135 72.9989 57.2726 72.8145 56.9214C73.3568 55.3721 73.3568 55.3721 74.8611 54.422C79.5461 51.4354 82.1689 46.4791 83.6621 41.4285Z" fill="#DDBF85"/>
<path d="M45.1527 17.6725C53.5006 17.2067 53.5006 17.2067 56.9643 19.5385C57.6275 20.2546 57.6275 20.2546 57.6275 21.8039C57.2471 21.4844 56.8668 21.1648 56.4749 20.8356C54.8842 19.7161 53.5532 19.2081 51.6613 18.7053C51.6613 19.0462 51.6613 19.387 51.6613 19.7382C49.8714 19.5678 48.0816 19.3974 46.2375 19.2218C46.4165 19.3922 46.5955 19.5626 46.7799 19.7382C46.8019 20.5987 46.803 21.4599 46.7799 22.3204C47.1378 22.4908 47.4958 22.6612 47.8646 22.8368C47.6856 23.3481 47.5067 23.8593 47.3222 24.3861C47.3222 24.0452 47.3222 23.7044 47.3222 23.3532C46.7853 23.3532 46.2483 23.3532 45.6951 23.3532C45.6951 22.6715 45.6951 21.9898 45.6951 21.2875C45.3371 21.2875 44.9792 21.2875 44.6103 21.2875C44.068 19.7382 44.068 19.7382 44.5764 18.6085C44.8617 18.1452 44.8617 18.1452 45.1527 17.6725Z" fill="#ED8906"/>
<path d="M17.4922 69.3159C19.7205 69.1742 21.121 69.586 23.1194 70.5101C23.6361 70.7444 24.1527 70.9788 24.6851 71.2202C25.1752 71.4439 25.6653 71.6676 26.1703 71.898C27.4308 72.4269 28.6979 72.9372 29.9669 73.4473C28.3133 74.385 27.4024 74.603 25.5262 74.1897C22.8225 73.5322 20.2721 72.4678 18.0346 70.8652C17.8556 70.3539 17.6766 69.8426 17.4922 69.3159Z" fill="#76CE0D"/>
<path d="M46.7801 53.8228C47.8648 54.3392 47.8648 54.3392 48.4072 54.8556C48.9441 55.026 49.4811 55.1965 50.0343 55.3721C49.2045 56.0109 48.3747 56.6497 47.5449 57.2885C46.7081 57.937 46.7081 57.937 46.2377 58.9871C44.2688 58.4758 42.3 57.9645 40.2715 57.4378C41.4657 56.3007 42.5651 55.743 44.0681 55.017C44.5492 54.7807 45.0302 54.5443 45.5258 54.3009C45.9397 54.1431 46.3536 53.9853 46.7801 53.8228Z" fill="#B09D6A"/>
<path d="M59.7965 43.4941C59.6175 45.0279 59.4385 46.5617 59.2541 48.142C58.7171 47.6308 58.1802 47.1195 57.6269 46.5927C55.941 46.2173 55.941 46.2173 54.3726 46.0763C54.1937 46.9284 54.0147 47.7805 53.8303 48.6585C53.4723 48.6585 53.1143 48.6585 52.7455 48.6585C52.5665 47.6359 52.3875 46.6134 52.2031 45.5599C53.7327 44.5889 54.5588 44.2911 56.3049 43.946C56.7307 43.8595 57.1565 43.7729 57.5951 43.6838C58.7117 43.4941 58.7117 43.4941 59.7965 43.4941Z" fill="#B43B00"/>
<path d="M55.8313 49.1103C56.4023 49.1173 56.4023 49.1173 56.9849 49.1244C57.9225 49.1366 58.86 49.1551 59.7974 49.1749C58.3722 50.905 56.8493 51.1489 54.6448 51.5956C54.0239 51.7255 53.4031 51.8553 52.7634 51.989C51.1193 52.2735 51.1193 52.2735 49.4922 52.2735C49.6617 51.3052 49.6617 51.3052 50.0346 50.2077C52.031 48.9405 53.5294 49.0571 55.8313 49.1103Z" fill="#A9914E"/>
<path d="M55.4578 38.3298C57.5163 39.0998 58.5008 40.2701 59.7969 41.9449C57.8203 43.1995 56.6986 43.0613 54.373 42.9777C54.8476 38.9108 54.8476 38.9108 55.4578 38.3298Z" fill="#E58306"/>
<path d="M14.2363 43.4941C17.1896 44.261 17.1896 44.261 20.2025 45.0434C19.8445 46.2364 19.4866 47.4294 19.1178 48.6585C16.9631 47.5757 15.6254 46.4374 14.2363 44.527C14.2363 44.1862 14.2363 43.8453 14.2363 43.4941Z" fill="#938359"/>
<path d="M46.2379 14.574C46.9538 14.9148 47.6698 15.2557 48.4074 15.6068C48.9444 15.266 49.4813 14.9251 50.0345 14.574C51.4922 15.0259 51.4922 15.0259 52.7464 15.6068C52.7464 16.1181 52.7464 16.6294 52.7464 17.1561C49.8827 16.9857 47.0189 16.8153 44.0684 16.6397C44.0684 16.2989 44.0684 15.958 44.0684 15.6068C44.6053 15.6068 45.1423 15.6068 45.6955 15.6068C45.8745 15.266 46.0535 14.9251 46.2379 14.574Z" fill="#B43A00"/>
<path d="M5.55819 67.7666C6.99008 68.2779 8.42196 68.7891 9.89724 69.3159C9.89724 69.8272 9.89724 70.3384 9.89724 70.8652C8.89044 70.8332 8.89044 70.8332 7.86331 70.8006C6.09169 70.7947 4.89937 70.9391 3.38867 71.8981C3.68777 69.7906 3.88403 69.3607 5.55819 67.7666Z" fill="#F90504"/>
<path d="M44.0685 23.8696C45.3388 24.9691 46.1489 25.9581 46.7805 27.4847C46.7805 28.1663 46.7805 28.848 46.7805 29.5504C46.4225 29.5504 46.0645 29.5504 45.6957 29.5504C45.3377 28.5278 44.9797 27.5053 44.6109 26.4518C44.074 27.8152 43.537 29.1786 42.9838 30.5832C42.8048 30.5832 42.6258 30.5832 42.4414 30.5832C42.5038 29.8512 42.573 29.1197 42.6448 28.3884C42.6826 27.981 42.7203 27.5736 42.7592 27.1538C42.992 25.891 43.4101 24.9808 44.0685 23.8696Z" fill="#F08D09"/>
<path d="M47.865 13.541C48.525 13.6155 49.185 13.6901 49.8651 13.7669C50.4579 13.8628 51.0508 13.9586 51.6617 14.0574C51.8407 14.3982 52.0197 14.7391 52.2041 15.0902C51.779 15.0689 51.3539 15.0476 50.9159 15.0257C49.4048 14.9419 49.4048 14.9419 48.4074 16.1231C47.6915 15.6118 46.9755 15.1006 46.2379 14.5738C46.0589 15.0851 45.8799 15.5964 45.6955 16.1231C45.1585 15.9527 44.6216 15.7823 44.0684 15.6067C44.2718 14.6061 44.2718 14.6061 44.6107 13.541C46.0123 12.8737 46.368 13.1557 47.865 13.541Z" fill="#F08009"/>
<path d="M10.4395 68.7993C11.3344 68.7993 12.2294 68.7993 13.1514 68.7993C13.5094 70.1627 13.8674 71.5261 14.2362 72.9308C11.6599 72.5435 11.6599 72.5435 10.4395 71.3815C10.3717 70.0258 10.3717 70.0258 10.4395 68.7993Z" fill="#52AE00"/>
<path d="M44.0682 20.2546C44.2472 20.5955 44.4261 20.9363 44.6106 21.2875C44.9685 21.2875 45.3265 21.2875 45.6953 21.2875C45.6953 21.9692 45.6953 22.6509 45.6953 23.3532C46.2323 23.3532 46.7692 23.3532 47.3225 23.3532C47.1435 24.3758 46.9645 25.3983 46.7801 26.4518C46.4221 26.4518 46.0641 26.4518 45.6953 26.4518C43.998 24.4006 43.91 22.815 44.0682 20.2546Z" fill="#C44D00"/>
<path d="M58.7123 41.9448C59.2492 42.1152 59.7862 42.2857 60.3394 42.4613C58.9675 44.0886 57.7536 44.3142 55.6275 44.6238C55.0884 44.7057 54.5494 44.7876 53.994 44.8719C53.5822 44.9285 53.1704 44.9851 52.7461 45.0434C53.1508 44.0327 53.1508 44.0327 53.8309 42.9777C54.8669 42.6811 54.8669 42.6811 56.0343 42.6226C58.0449 42.692 58.0449 42.692 58.7123 41.9448Z" fill="#E26800"/>
<path d="M42.4398 30.5833C42.6188 30.5833 42.7978 30.5833 42.9822 30.5833C43.3398 33.307 42.4774 34.764 40.9695 36.968C40.2703 37.8133 40.2703 37.8133 39.1855 38.3297C40.0748 35.6274 41.024 33.0869 42.4398 30.5833Z" fill="#FEC746"/>
<path d="M5.55859 66.7336C6.01724 66.8934 6.47589 67.0532 6.94844 67.2178C8.83988 67.7745 10.6471 68.0587 12.6095 68.2829C11.8936 68.4534 11.1777 68.6238 10.44 68.7994C10.261 69.4811 10.082 70.1628 9.89764 70.8651C9.89764 70.3538 9.89764 69.8426 9.89764 69.3158C9.38305 69.2732 8.86847 69.2306 8.33829 69.1867C6.64335 68.7994 6.64335 68.7994 5.89758 67.7342C5.78572 67.404 5.67385 67.0738 5.55859 66.7336Z" fill="#648402"/>
<path d="M24.543 46.5927C26.0006 46.4313 26.0006 46.4313 27.7973 46.5927C29.3566 47.8838 29.3566 47.8838 30.5092 49.1749C29.7932 49.3453 29.0773 49.5157 28.3396 49.6913C28.3396 49.3505 28.3396 49.0096 28.3396 48.6584C27.9145 48.5093 27.4895 48.3602 27.0515 48.2066C25.6277 47.6256 25.6277 47.6256 24.543 46.5927Z" fill="#E66A00"/>
<path d="M1.76172 46.0762C3.8339 46.7339 4.0561 47.4325 5.1177 49.207C5.40505 49.6817 5.69241 50.1564 5.98847 50.6454C6.20451 51.0122 6.42056 51.379 6.64314 51.7569C6.10619 51.7569 5.56923 51.7569 5.016 51.7569C4.14523 50.6454 4.14523 50.6454 3.28716 49.207C2.99981 48.7337 2.71245 48.2604 2.41639 47.7727C1.76172 46.5926 1.76172 46.5926 1.76172 46.0762Z" fill="#DBC28E"/>
<path d="M44.0684 19.7383C44.9633 19.7383 45.8582 19.7383 46.7803 19.7383C46.7803 20.5904 46.7803 21.4425 46.7803 22.3204C47.1382 22.4909 47.4962 22.6613 47.865 22.8369C47.686 23.3481 47.5071 23.8594 47.3226 24.3862C47.3226 24.0453 47.3226 23.7045 47.3226 23.3533C46.7857 23.3533 46.2487 23.3533 45.6955 23.3533C45.6955 22.6716 45.6955 21.9899 45.6955 21.2876C45.3375 21.2876 44.9796 21.2876 44.6107 21.2876C44.4318 20.7763 44.2528 20.265 44.0684 19.7383Z" fill="#E77000"/>
<path d="M16.4059 63.635C16.7638 63.8054 17.1218 63.9759 17.4906 64.1514C17.3116 65.0036 17.1326 65.8557 16.9482 66.7336C16.0533 66.904 15.1584 67.0744 14.2363 67.25C14.2363 66.2172 14.2363 66.2172 15.016 65.4425C15.2957 65.1869 15.5753 64.9313 15.8635 64.6679C16.0425 64.327 16.2214 63.9862 16.4059 63.635Z" fill="#4C870C"/>
<path d="M20.2039 45.0435C21.2778 45.3843 22.3517 45.7251 23.4582 46.0763C23.4582 46.5876 23.4582 47.0989 23.4582 47.6256C22.0263 47.4552 20.5944 47.2848 19.1191 47.1092C19.4771 46.4275 19.8351 45.7458 20.2039 45.0435Z" fill="#D96301"/>
<path d="M2.84707 70.8652C3.92098 71.1209 3.92098 71.1209 5.01659 71.3817C4.27269 72.9073 3.39561 74.1911 2.30469 75.5131C2.48367 73.9793 2.66266 72.4455 2.84707 70.8652Z" fill="#FC3739"/>
<path d="M18.0344 67.25C18.0344 67.7613 18.0344 68.2725 18.0344 68.7993C16.2836 69.9106 15.7108 69.9359 13.6953 69.8322C15.0664 68.3868 15.9755 67.53 18.0344 67.25Z" fill="#5EA812"/>
<path d="M72.2715 31.6162C73.8986 33.6819 73.8986 33.6819 73.8986 35.2312C73.5407 35.2312 73.1827 35.2312 72.8139 35.2312C72.6349 35.9129 72.4559 36.5946 72.2715 37.297C72.2715 35.4223 72.2715 33.5477 72.2715 31.6162Z" fill="#AC5550"/>
<path d="M13.6953 42.4614C14.7649 43.4798 15.2315 44.2736 15.8648 45.56C16.0438 45.9009 16.2228 46.2417 16.4072 46.5929C15.5123 46.4225 14.6174 46.252 13.6953 46.0765C13.6953 44.8835 13.6953 43.6905 13.6953 42.4614Z" fill="#B09D6A"/>
<path d="M49.7969 14.0251C50.4121 14.0358 51.0274 14.0464 51.6613 14.0574C51.8403 14.3983 52.0193 14.7391 52.2037 15.0903C51.7786 15.069 51.3535 15.0477 50.9155 15.0257C49.4044 14.9419 49.4044 14.9419 48.407 16.1232C48.0491 15.6119 47.6911 15.1006 47.3223 14.5739C47.8646 14.0574 47.8646 14.0574 49.7969 14.0251Z" fill="#E26700"/>
<path d="M9.89745 66.2173C10.0764 66.899 10.2554 67.5807 10.4398 68.283C8.82896 68.0274 8.82896 68.0274 7.18555 67.7666C7.18555 67.4257 7.18555 67.0849 7.18555 66.7337C8.27031 66.2173 8.27031 66.2173 9.89745 66.2173Z" fill="#D41C0A"/>
</svg>
