<svg width="85" height="67" viewBox="0 0 85 67" fill="none" xmlns="http://www.w3.org/2000/svg">
<path d="M39.1657 0.0319756C40.0193 0.0406461 40.0193 0.0406461 40.8901 0.0494919C51.2325 0.221337 60.3524 2.31236 69.3699 7.36681C69.8132 7.61455 70.2564 7.86228 70.7131 8.11751C75.5627 11.0999 79.8901 15.4556 82.1818 20.6912C82.3754 21.1259 82.569 21.5606 82.7684 22.0085C85.4004 28.2397 85.8188 35.4632 83.379 41.8309C82.2193 44.218 80.7449 46.2858 79.107 48.365C78.5203 49.1578 78.5203 49.1578 77.9219 49.9665C75.9413 52.0853 73.7413 53.8083 71.4198 55.5397C70.9362 55.9031 70.4527 56.2664 69.9544 56.6408C66.3081 59.2356 62.9112 60.5673 58.6079 61.6895C57.8121 61.9748 57.8121 61.9748 57.0004 62.266C44.5542 66.4292 30.0796 64.0317 18.5585 58.3283C10.9643 54.1725 4.06594 48.0783 1.03417 39.783C-0.902683 33.1309 -0.0479646 26.0882 3.00401 19.9225C6.06534 14.6789 10.3984 10.5181 15.5597 7.36681C15.9165 7.14551 16.2732 6.9242 16.6407 6.69619C18.9507 5.3169 18.9507 5.3169 20.172 5.3169C20.3306 4.90468 20.4891 4.49245 20.6525 4.06774C21.197 2.75451 21.197 2.75451 21.7095 2.24204C23.4495 2.11455 25.1892 2.04509 26.9323 1.97379C28.529 1.77399 29.3763 1.56574 30.7859 0.950832C33.5229 -0.150723 36.2541 -0.0164121 39.1657 0.0319756Z" fill="#FDAA0D"/>
<path d="M20.1711 5.31689C20.3614 5.81368 20.5516 6.31046 20.7477 6.8223C21.7791 9.25391 23.2732 11.3612 24.7834 13.5165C24.3487 13.7663 23.9141 14.016 23.4662 14.2732C19.4234 16.686 16.1191 19.3712 12.8921 22.8055C11.5684 24.208 10.3623 25.4099 8.70643 26.4126C7.29676 27.1992 7.29676 27.1992 7.00485 28.3964C7.09553 30.4478 7.09553 30.4478 7.92771 32.274C9.31471 33.3 10.7404 33.6738 12.3879 34.1758C17.0141 35.6336 21.4884 37.4351 25.8084 39.6529C25.1636 39.5789 24.5189 39.5049 23.8546 39.4287C23.4364 39.3838 23.0182 39.3389 22.5874 39.2926C21.6323 39.1881 20.6781 39.0756 19.7247 38.9563C19.2378 38.9008 18.751 38.8453 18.2493 38.7881C17.5715 38.7059 17.5715 38.7059 16.8801 38.6219C15.338 38.629 14.3578 38.938 12.9964 39.6529C12.7745 40.0968 12.5525 40.5408 12.3238 40.9982C12.0384 41.3998 11.753 41.8015 11.459 42.2153C10.0288 42.4518 8.82101 42.3351 7.35918 42.2153C7.19006 41.5388 7.02094 40.8624 6.8467 40.1654C6.50846 40.1654 6.17023 40.1654 5.82174 40.1654C5.99086 41.011 6.15998 41.8566 6.33422 42.7278C6.97898 42.7489 7.62374 42.7701 8.28804 42.7918C9.4271 42.928 9.4271 42.928 10.434 43.2403C11.3309 44.7136 11.3309 44.7136 11.9715 46.3151C13.8472 48.1909 16.2665 48.8502 18.8899 48.9035C19.7808 48.8863 20.6716 48.867 21.5624 48.8455C22.9839 48.8844 23.9996 49.3419 25.2959 49.9025C25.8984 49.9025 26.5009 49.9025 27.1216 49.9025C28.9308 49.9025 29.3948 50.1496 30.9332 50.9274C32.1707 51.1886 33.4079 51.3771 34.6586 51.564C36.0579 51.9524 36.0579 51.9524 37.5894 52.9973C40.3226 54.6288 43.4138 54.2987 46.4997 54.2585C47.4074 54.2704 47.4074 54.2704 48.3334 54.2825C52.0729 54.2659 54.8313 53.7793 58.0945 51.9524C58.7767 51.6085 59.4597 51.2663 60.1444 50.9274C61.0915 52.6494 61.7773 54.2365 62.1943 56.1483C62.6896 58.0366 62.875 58.4377 64.2442 59.6395C63.2752 60.0408 62.3029 60.4341 61.3295 60.8246C60.5179 61.1546 60.5179 61.1546 59.69 61.4913C54.3691 63.3952 49.2118 63.9967 43.5849 63.9315C42.9325 63.9263 42.2801 63.9211 41.6079 63.9158C28.5337 63.7005 16.7213 59.2646 7.35918 49.9025C2.12153 44.191 -0.00353612 38.4412 0.076386 30.7846C0.544661 22.5812 4.6338 16.4707 10.434 10.9542C12.0741 9.62875 13.7601 8.465 15.5588 7.36681C16.0939 7.03485 16.0939 7.03485 16.6398 6.69618C18.9498 5.31689 18.9498 5.31689 20.1711 5.31689Z" fill="#C5B579"/>
<path d="M27.8592 17.1038C29.0076 18.2575 29.8681 19.5998 30.7739 20.9473C34.1686 25.7237 37.8558 28.7117 42.9052 31.6493C47.2425 34.3056 51.6064 37.4526 54.5081 41.7027C54.5081 42.21 54.5081 42.7174 54.5081 43.2401C55.2691 43.4938 55.2691 43.4938 56.0455 43.7526C56.7562 44.6995 56.7562 44.6995 57.4228 45.8345C57.6467 46.2104 57.8707 46.5863 58.1014 46.9736C58.2685 47.2636 58.4357 47.5536 58.6079 47.8524C60.3836 47.5987 60.3836 47.5987 62.1952 47.3399C61.4955 49.9833 59.8304 51.5441 57.5829 52.9772C53.9605 54.7303 50.6115 54.7796 46.6287 54.7709C46.0302 54.7854 45.4317 54.7999 44.815 54.8149C41.2472 54.8229 38.7206 54.3973 35.6347 52.5663C33.8305 51.5711 31.9245 51.2574 29.9091 50.9273C29.1005 50.7846 29.1005 50.7846 28.2756 50.639C27.8 50.565 27.3243 50.491 26.8343 50.4148C23.7594 49.9023 23.7594 49.9023 22.318 49.6461C21.4129 49.5041 20.5045 49.3747 19.5915 49.2978C16.5362 49.0388 14.0195 48.5165 11.524 46.6033C10.8524 45.6705 10.6291 44.8785 10.435 43.7526C9.76906 43.6786 9.10316 43.6046 8.41708 43.5284C6.3992 43.3042 6.3992 43.3042 5.82266 42.7276C5.80184 41.8738 5.80077 41.0191 5.82266 40.1653C6.1609 40.1653 6.49913 40.1653 6.84762 40.1653C7.01674 40.6726 7.18585 41.18 7.3601 41.7027C8.71304 41.8718 10.066 42.0409 11.4599 42.2152C11.5656 41.8241 11.6713 41.433 11.7802 41.0301C12.4849 39.6528 12.4849 39.6528 13.734 38.6919C16.727 37.7467 19.5486 38.3181 22.5946 38.8904C27.7398 39.8298 32.8053 39.7687 38.0127 39.7168C38.9205 39.7117 39.8284 39.707 40.7362 39.7028C42.9353 39.6917 45.1343 39.674 47.3334 39.6528C43.8856 36.4303 43.8856 36.4303 39.9345 33.8874C39.4595 33.6403 38.9845 33.3933 38.4951 33.1387C37.1861 32.526 35.8785 32.0119 34.5214 31.5172C31.9182 30.5312 29.9011 29.015 27.6991 27.3353C26.0787 26.1506 24.4004 25.203 22.6203 24.2824C21.7095 23.766 21.7095 23.766 20.6845 22.741C20.6845 21.3276 20.8961 20.4935 21.8836 19.46C25.2734 16.6006 25.2734 16.6006 27.8592 17.1038Z" fill="#4FC800"/>
<path d="M25.8094 14.0291C26.7383 15.3103 26.7383 15.3103 27.3469 16.5915C27.0318 16.7586 26.7167 16.9258 26.392 17.098C25.7707 17.4339 25.7707 17.4339 25.1368 17.7766C24.5215 18.1066 24.5215 18.1066 23.8937 18.4432C22.3606 19.3705 22.3606 19.3705 21.1971 20.6913C21.0553 21.9883 21.0553 21.9883 21.7096 23.2537C22.8386 24.0488 23.8526 24.6574 25.0728 25.2716C25.7353 25.6243 26.3966 25.9793 27.0566 26.3366C27.3749 26.5087 27.6933 26.6808 28.0213 26.8581C29.0972 27.4757 30.0417 28.199 30.9983 28.9871C32.5634 30.2285 34.1049 30.9448 35.9629 31.6776C39.944 33.2529 43.6039 35.1267 46.3909 38.4371C46.8011 38.9224 46.8011 38.9224 47.2197 39.4175C47.4264 39.6643 47.633 39.9112 47.846 40.1655C45.1216 40.2167 42.3975 40.2536 39.6727 40.2781C38.7488 40.2883 37.825 40.3022 36.9012 40.3201C31.3074 40.4257 26.4639 40.2649 21.1971 38.1156C20.6531 37.9016 20.6531 37.9016 20.098 37.6834C19.2275 37.3257 18.3698 36.9371 17.5137 36.5461C15.4047 35.608 13.3686 34.8069 11.1398 34.2079C9.21413 33.6537 7.91883 33.2547 6.84776 31.4534C6.2695 28.9751 6.2695 28.9751 6.84776 27.3535C7.95546 26.2126 9.14941 25.3434 10.4431 24.4188C12.1549 23.1148 13.5694 21.6699 15.0474 20.1148C21.4904 13.4784 21.4904 13.4784 25.8094 14.0291Z" fill="#FCA90C"/>
<path d="M39.1328 0.192061C50.0871 -0.140446 59.8561 2.03464 69.369 7.36675C69.8123 7.61448 70.2556 7.86221 70.7123 8.11745C75.5618 11.0998 79.8892 15.4556 82.181 20.6912C82.3745 21.1259 82.5681 21.5605 82.7675 22.0084C85.3995 28.2397 85.8179 35.4631 83.3781 41.8309C82.2184 44.2179 80.744 46.2857 79.1061 48.365C78.5195 49.1577 78.5195 49.1577 77.921 49.9665C75.3778 52.6871 72.3471 54.8555 69.369 57.0771C68.8617 56.8234 68.8617 56.8234 68.344 56.5646C68.9782 55.9304 68.9782 55.9304 69.6252 55.2834C74.4846 49.593 77.4588 41.6073 77.2343 34.1517C76.3651 25.9864 73.2798 18.2822 67.3191 12.4915C65.1949 10.9332 62.9589 9.66685 60.6569 8.39171C60.0907 8.03762 59.5246 7.68353 58.9413 7.31871C52.8216 3.55273 46.2267 1.73108 39.1328 0.704538C39.1328 0.535421 39.1328 0.366303 39.1328 0.192061Z" fill="#D6D0BA"/>
<path d="M81.6692 43.7527C81.8383 43.7527 82.0075 43.7527 82.1817 43.7527C82.504 49.1245 81.7915 52.2016 78.3045 56.3114C77.0999 57.5662 75.7044 58.4999 74.2383 59.4153C73.9263 59.6126 73.6143 59.8098 73.2929 60.0131C70.2628 61.8695 67.107 63.1459 63.7325 64.2518C63.0785 64.4787 63.0785 64.4787 62.4113 64.7102C56.372 66.6876 50.2246 66.9937 43.9265 66.976C42.7223 66.9743 41.5188 66.9864 40.3147 66.9994C35.6046 67.019 31.3982 66.5545 26.8341 65.2768C26.1357 65.1153 25.4365 64.9571 24.7361 64.8043C17.6772 63.0882 9.87226 59.6791 5.79047 53.3296C4.31386 50.739 4.23711 48.7277 4.28506 45.8026C5.6082 47.0879 6.79508 48.2951 7.90444 49.7743C14.4653 57.6716 26.1892 62.0743 36.0587 63.2268C44.5671 63.8144 52.5945 63.5372 60.6576 60.6645C61.4157 60.4167 61.4157 60.4167 62.1891 60.164C70.0444 57.3541 77.9099 51.2713 81.6692 43.7527Z" fill="#D0C6AD"/>
<path d="M27.8583 17.1038C29.0067 18.2575 29.8672 19.5998 30.773 20.9473C34.1677 25.7237 37.8549 28.7117 42.9043 31.6493C47.2416 34.3056 51.6055 37.4526 54.5071 41.7027C54.5071 42.21 54.5071 42.7174 54.5071 43.2401C55.2682 43.4938 55.2682 43.4938 56.0446 43.7526C56.7552 44.6635 56.7552 44.6635 57.4218 45.7705C57.6458 46.1345 57.8697 46.4985 58.1005 46.8735C58.6069 47.8524 58.6069 47.8524 58.6069 48.8774C52.3088 50.0225 46.8208 49.6219 41.2327 46.2369C40.9837 46.0619 40.7346 45.8868 40.478 45.7064C38.8755 44.5999 37.4212 44.2613 35.5454 43.7526C33.0585 42.7789 31.0345 41.7787 28.8832 40.1653C34.9715 39.9961 41.0597 39.827 47.3324 39.6528C43.7717 36.3376 43.7717 36.3376 39.9335 33.8874C39.4586 33.6403 38.9836 33.3933 38.4942 33.1387C37.1851 32.526 35.8776 32.0119 34.5205 31.5172C31.9173 30.5312 29.9002 29.015 27.6981 27.3353C26.0778 26.1506 24.3994 25.203 22.6194 24.2824C21.7085 23.766 21.7085 23.766 20.6836 22.741C20.6836 21.3276 20.8952 20.4935 21.8827 19.46C25.2724 16.6006 25.2724 16.6006 27.8583 17.1038Z" fill="#BF8800"/>
<path d="M81.1576 19.6663C85.0478 24.1121 85.0959 30.4718 84.8346 36.0665C84.413 40.8857 82.0301 44.6553 79.1077 48.365C78.7167 48.8935 78.3256 49.422 77.9226 49.9665C75.3794 52.6871 72.3488 54.8556 69.3707 57.0771C69.0324 56.908 68.6942 56.7389 68.3457 56.5647C68.7685 56.1419 69.1913 55.7191 69.6269 55.2835C74.9828 49.0116 77.6241 40.6322 77.0578 32.4782C76.9114 31.6769 76.7622 30.8761 76.6094 30.076C76.2782 27.6011 77.3628 26.2789 78.8155 24.3566C79.8986 22.872 80.5028 21.3762 81.1576 19.6663Z" fill="#E5E0CF"/>
<path d="M11.4604 45.8027C11.862 46.1303 12.2637 46.458 12.6775 46.7956C15.4283 48.9569 18.2248 48.9261 21.5638 48.8455C22.9853 48.8844 24.001 49.3419 25.2973 49.9025C25.8998 49.9025 26.5023 49.9025 27.123 49.9025C28.9322 49.9025 29.3962 50.1496 30.9345 50.9274C32.1721 51.1886 33.4093 51.3771 34.66 51.564C36.0593 51.9524 36.0593 51.9524 37.6608 52.9653C40.4666 54.6484 43.7201 54.6167 46.9084 54.9132C50.626 55.3226 50.626 55.3226 52.2925 56.5487C52.9711 57.5897 52.9711 57.5897 52.9711 58.6146C45.0426 62.5789 29.3182 56.5836 21.6767 54.1822C17.3352 52.7217 11.1503 50.6174 7.87305 47.3401C7.87305 46.8327 7.87305 46.3254 7.87305 45.8027C9.29599 45.0912 9.94841 45.3456 11.4604 45.8027Z" fill="#B09D6A"/>
<path d="M5.82266 40.1655C6.1609 40.1655 6.49913 40.1655 6.84762 40.1655C7.01674 40.6729 7.18585 41.1802 7.3601 41.703C8.71304 41.8721 10.066 42.0412 11.4599 42.2154C11.4599 42.7228 11.4599 43.2301 11.4599 43.7529C14.5759 45.0278 17.5733 44.958 20.8857 44.978C24.7865 45.085 27.6996 46.2088 30.9341 48.3652C32.0999 48.5429 32.0999 48.5429 33.3683 48.5894C35.7396 48.7813 37.4657 49.4416 39.6462 50.4151C45.3323 52.2508 53.2002 52.572 58.6539 49.9887C59.7179 49.3381 60.7002 48.6199 61.6827 47.8527C61.0991 50.3331 59.6658 51.3549 57.7191 52.8073C54.216 54.8669 50.6342 54.7199 46.6928 54.7391C45.7881 54.7644 45.7881 54.7644 44.8651 54.7902C41.2739 54.8121 38.7383 54.4156 35.6325 52.5677C33.8301 51.5697 31.924 51.2576 29.9091 50.9276C29.3701 50.8324 28.831 50.7373 28.2756 50.6393C27.8 50.5653 27.3243 50.4913 26.8343 50.4151C23.7594 49.9026 23.7594 49.9026 22.318 49.6464C21.4129 49.5044 20.5045 49.375 19.5915 49.298C16.5362 49.0391 14.0195 48.5168 11.524 46.6035C10.8524 45.6708 10.6291 44.8788 10.435 43.7529C9.76906 43.6789 9.10316 43.6049 8.41708 43.5287C6.3992 43.3045 6.3992 43.3045 5.82266 42.7279C5.80184 41.874 5.80077 41.0194 5.82266 40.1655Z" fill="#3B9000"/>
<path d="M28.8848 40.1654C31.2912 40.1399 33.6975 40.1214 36.104 40.1091C36.9211 40.104 37.7382 40.097 38.5553 40.0881C39.7359 40.0756 40.9164 40.0698 42.0971 40.0653C42.4571 40.0601 42.817 40.0548 43.1879 40.0493C45.7516 40.0487 47.9404 40.4922 50.4088 41.1904C51.1084 41.3816 51.1084 41.3816 51.8222 41.5768C54.9598 42.6485 56.4107 43.9797 58.116 46.8156C58.6085 47.8526 58.6085 47.8526 58.6085 48.8776C52.3103 50.0227 46.8223 49.6221 41.2343 46.2371C40.9852 46.062 40.7362 45.887 40.4796 45.7066C38.877 44.6001 37.4227 44.2615 35.547 43.7528C33.0941 42.7924 30.9788 41.7701 28.8848 40.1654Z" fill="#B09D6A"/>
<path d="M48.3575 16.079C49.5599 16.6481 50.3931 17.2761 51.4324 18.1289C51.2633 18.8054 51.0941 19.4818 50.9199 20.1788C48.7214 20.1788 46.5228 20.1788 44.2577 20.1788C44.4268 20.8024 44.5959 21.426 44.7702 22.0686C45.174 23.6983 45.4812 25.1536 45.2826 26.841C44.2577 27.866 44.2577 27.866 42.8143 28.0642C40.7549 27.814 40.1101 27.1681 38.6525 25.72C36.6813 23.8293 34.7331 22.2159 32.4707 20.6913C32.6398 20.0148 32.8089 19.3383 32.9832 18.6414C34.5873 18.2791 36.1526 18.0737 37.7877 17.9367C39.4459 17.7698 40.3834 17.5157 41.9515 16.8157C44.1658 15.9062 45.9948 15.6724 48.3575 16.079Z" fill="#EF7A0E"/>
<path d="M1.72266 40.6777C2.06089 40.6777 2.39913 40.6777 2.74761 40.6777C3.35818 41.6186 3.35818 41.6186 4.06084 42.9198C9.04848 51.4204 17.4361 57.0152 26.8955 59.5037C28.5769 59.9224 30.2644 60.3032 31.9588 60.6644C32.3564 60.7564 32.754 60.8484 33.1636 60.9431C36.2625 61.6266 39.1994 61.8513 42.3685 61.8174C42.8371 61.8144 43.3056 61.8113 43.7884 61.8081C48.7793 61.7353 53.5062 61.2144 58.1953 59.4272C59.1202 59.1269 59.1202 59.1269 60.6576 59.1269C60.1502 57.9431 59.6429 56.7593 59.1202 55.5396C59.9658 55.5396 60.8113 55.5396 61.6826 55.5396C61.8887 56.1262 61.8887 56.1262 62.0989 56.7247C62.6876 58.057 63.2039 58.6668 64.2449 59.6394C63.2759 60.0407 62.3036 60.434 61.3302 60.8245C60.7892 61.0445 60.2481 61.2645 59.6907 61.4911C54.3698 63.3951 49.2125 63.9965 43.5857 63.9314C42.9332 63.9262 42.2808 63.921 41.6086 63.9157C28.5615 63.7008 16.6845 59.2815 7.35991 49.9023C4.83731 47.0992 2.77495 44.3311 1.72266 40.6777Z" fill="#897B54"/>
<path d="M45.2824 10.4417C50.0089 10.4632 55.271 10.4983 59.6318 12.4916C60.8169 13.8048 60.8169 13.8048 61.6817 15.054C62.1891 15.2231 62.6964 15.3922 63.2191 15.5664C65.1287 16.2029 65.7855 16.926 66.8065 18.6413C66.7101 19.798 66.6038 20.3814 65.7815 21.2037C63.3261 21.3791 61.4288 20.9178 59.1193 20.1787C58.9502 20.6861 58.7811 21.1934 58.6068 21.7162C57.7612 21.7162 56.9157 21.7162 56.0444 21.7162C56.1184 21.3568 56.1924 20.9974 56.2687 20.6271C56.7129 18.3605 56.7129 18.3605 57.0694 16.0789C55.9589 14.9684 53.131 15.3867 51.5623 15.3462C48.9687 15.2307 47.103 14.6616 44.7699 13.5165C44.748 12.6627 44.7491 11.808 44.7699 10.9541C44.939 10.785 45.1082 10.6159 45.2824 10.4417Z" fill="#EF790E"/>
<path d="M47.3328 22.2285C47.8824 22.3131 48.4321 22.3976 48.9983 22.4848C50.9357 22.7861 50.9357 22.7861 52.97 22.741C53.1392 23.0792 53.3083 23.4175 53.4825 23.7659C55.3428 23.7659 57.2031 23.7659 59.1198 23.7659C59.1416 24.7907 59.1407 25.8161 59.1198 26.8408C58.6073 27.3533 58.6073 27.3533 56.8457 27.4174C55.02 27.3533 55.02 27.3533 53.995 26.8408C54.4933 28.7889 54.8697 29.7762 56.3652 31.1648C57.5823 32.4781 57.5823 32.4781 57.7745 34.3999C57.5823 36.0654 57.5823 36.0654 57.0699 36.5779C53.7585 36.7619 53.7585 36.7619 51.9451 35.5529C51.9451 35.2147 51.9451 34.8765 51.9451 34.528C51.4377 34.3589 50.9304 34.1897 50.4077 34.0155C49.2546 32.7663 49.2546 32.7663 48.3577 30.9406C48.417 29.577 48.6072 28.3145 48.8862 26.9789C48.881 26.5951 48.8757 26.2113 48.8702 25.8159C47.9089 24.8729 47.9089 24.8729 46.8203 24.2784C46.9894 23.602 47.1585 22.9255 47.3328 22.2285Z" fill="#EF790E"/>
<path d="M35.0343 3.26709C37.4317 3.47279 39.758 4.15869 42.0808 4.77249C42.425 4.85936 42.7692 4.94624 43.1238 5.03574C45.6748 5.708 45.6748 5.708 46.8213 6.85443C44.6695 8.28897 43.6843 7.8105 41.184 7.36691C40.9303 7.11324 40.9303 7.11324 40.6715 6.85443C39.8177 6.83361 38.963 6.83254 38.1091 6.85443C37.94 7.70002 37.7709 8.54561 37.5967 9.41682C36.8705 9.34389 36.1445 9.26871 35.4186 9.19262C34.8122 9.13019 34.8122 9.13019 34.1935 9.0665C33.0747 8.91647 32.0223 8.68878 30.9345 8.39187C31.7216 10.002 32.5013 11.5108 33.4968 13.0042C33.3047 14.3815 33.3047 14.3815 32.9844 15.5666C31.8633 15.5666 31.8633 15.5666 30.422 15.0541C29.8254 14.1973 29.8254 14.1973 29.2369 13.1323C27.8891 10.7305 26.1684 9.63503 23.7598 8.39187C23.9519 7.39894 23.9519 7.39894 24.2722 6.34196C25.7821 5.58702 27.1122 5.88037 28.7885 5.9576C31.6776 6.07444 31.6776 6.07444 34.0093 4.51625C34.3476 4.10403 34.6858 3.69181 35.0343 3.26709Z" fill="#EF7B0E"/>
<path d="M17.5451 38.9804C18.3359 38.9675 18.3359 38.9675 19.1426 38.9543C20.684 39.1405 20.684 39.1405 21.9612 39.9212C23.593 40.882 24.5771 40.7703 26.4494 40.6459C30.3595 40.544 32.8603 41.6208 36.0584 43.7528C36.682 43.8902 37.3056 44.0276 37.9481 44.1692C40.3222 44.7232 42.3872 45.7679 44.258 47.3402C44.5117 48.1012 44.5117 48.1012 44.7705 48.8776C42.7178 48.5511 40.6693 48.204 38.6207 47.8526C38.2006 47.7905 37.7804 47.7284 37.3476 47.6645C35.0867 47.2716 33.7097 46.6746 31.8945 45.2582C28.7964 43.0267 25.396 43.3176 21.709 43.2403C20.6831 43.1542 19.658 43.0593 18.6341 42.9521C16.5703 42.7546 14.5566 42.6818 12.4844 42.7279C12.6445 41.5107 12.6445 41.5107 12.9969 40.1655C14.7512 38.9959 15.478 38.9881 17.5451 38.9804Z" fill="#79CD00"/>
<path d="M20.1711 4.29199C20.3118 4.59059 20.4525 4.88919 20.5975 5.19684C21.9821 7.84557 23.9665 10.1293 25.9685 12.3315C27.5363 14.0866 28.8757 15.9612 30.1964 17.9047C30.9531 19.0053 31.7118 20.1045 32.4706 21.2038C32.8204 21.721 32.8204 21.721 33.1772 22.2487C35.5067 25.3304 39.0217 27.2099 42.2279 29.268C43.7728 30.2642 45.3 31.2844 46.8199 32.3181C47.3273 32.6583 47.8346 32.9986 48.3574 33.3491C51.9074 36.0717 54.3743 39.2042 56.7812 42.952C57.0584 43.3758 57.3355 43.7996 57.621 44.2362C58.2952 45.2684 58.9654 46.303 59.6319 47.3401C59.2936 47.6784 58.9554 48.0166 58.6069 48.3651C58.3969 48.0381 58.1868 47.7111 57.9703 47.3742C57.6942 46.9507 57.4181 46.5273 57.1336 46.091C56.8601 45.6688 56.5866 45.2467 56.3048 44.8118C55.6149 43.6962 55.6149 43.6962 54.5071 43.2403C54.2534 42.733 53.9998 42.2256 53.7384 41.7029C51.4172 37.523 47.1735 34.8229 43.1966 32.3782C37.0603 28.5983 32.3798 24.729 28.4868 18.5633C27.8586 17.5491 27.8586 17.5491 26.8333 16.5915C26.6748 16.2532 26.5162 15.915 26.3529 15.5665C25.8248 14.3769 25.8248 14.3769 24.2709 13.5166C23.7203 12.7783 23.1991 12.0175 22.7015 11.2425C22.4418 10.8415 22.1822 10.4405 21.9147 10.0273C21.559 9.47143 21.559 9.47143 21.196 8.90429C20.8578 8.39694 20.5196 7.88959 20.1711 7.36686C20.107 5.73334 20.107 5.73334 20.1711 4.29199Z" fill="#E3A518"/>
<path d="M29.9095 28.8909C30.9043 29.3674 31.8968 29.8488 32.8883 30.3322C33.4412 30.5998 33.9941 30.8673 34.5638 31.143C35.841 31.8457 36.7208 32.3528 37.5967 33.5032C37.5577 35.0617 37.3025 35.8123 36.2834 36.9944C32.7325 38.7244 27.9793 37.211 24.2722 36.578C24.1031 35.9016 23.934 35.2251 23.7598 34.5281C24.0749 34.2929 24.39 34.0578 24.7147 33.8155C25.1289 33.501 25.5431 33.1866 25.9698 32.8626C26.3801 32.5534 26.7903 32.2442 27.213 31.9257C28.3134 30.9906 29.0977 30.0783 29.9095 28.8909Z" fill="#EF790E"/>
<path d="M22.2218 19.666C21.8835 20.0043 21.5453 20.3425 21.1968 20.691C21.3586 22.7935 21.6883 23.2324 23.2467 24.7908C21.7247 25.4673 20.2026 26.1438 18.6344 26.8407C18.6344 27.3481 18.6344 27.8554 18.6344 28.3782C19.8183 28.8855 21.0021 29.3929 22.2218 29.9156C22.2437 30.7695 22.2426 31.6241 22.2218 32.478C22.0527 32.6471 21.8835 32.8162 21.7093 32.9905C19.6092 32.796 18.3579 32.6353 16.5845 31.453C15.2952 31.3293 15.2952 31.3293 13.926 31.389C13.2334 31.4028 13.2334 31.4028 12.5267 31.417C12.1746 31.4289 11.8225 31.4408 11.4597 31.453C11.2906 30.6074 11.1215 29.7619 10.9473 28.8906C15.6011 24.7908 15.6011 24.7908 18.122 24.7908C18.1642 24.1461 18.2065 23.5013 18.2501 22.837C18.4421 21.2894 18.5166 20.8207 19.5953 19.634C20.6843 19.1536 20.6843 19.1536 22.2218 19.666Z" fill="#EE780D"/>
<path d="M20.1725 5.31689C20.3627 5.81368 20.553 6.31046 20.749 6.8223C21.7804 9.25391 23.2746 11.3612 24.7848 13.5165C24.0435 13.9892 24.0435 13.9892 23.2874 14.4714C22.6334 14.8898 21.9794 15.3082 21.3255 15.7266C20.838 16.0373 20.838 16.0373 20.3406 16.3542C18.7007 17.4047 17.0972 18.4669 15.5602 19.6663C15.236 15.5329 16.2855 11.4148 18.2226 7.74316C18.4268 7.30319 18.4268 7.30319 18.635 6.85433C18.4659 6.51609 18.2968 6.17786 18.1225 5.82937C19.1475 5.31689 19.1475 5.31689 20.1725 5.31689Z" fill="#D6D0BA"/>
<path d="M6.84766 30.9407C7.12115 31.0338 7.39465 31.127 7.67643 31.2229C9.70665 31.9079 11.7313 32.5537 13.7981 33.1187C16.6248 33.9467 19.2721 35.1444 21.9489 36.3602C24.3228 37.4334 26.2814 38.1712 28.8855 38.1962C29.4805 38.2041 29.4805 38.2041 30.0875 38.2121C30.7226 38.2177 30.7226 38.2177 31.3705 38.2235C32.27 38.2378 33.1695 38.2525 34.069 38.2675C35.485 38.2887 36.9009 38.3076 38.317 38.3211C39.6851 38.3351 41.0528 38.3586 42.4208 38.3836C42.8463 38.3853 43.2717 38.3869 43.7101 38.3887C44.9024 38.4144 44.9024 38.4144 46.8209 38.6278C47.3283 39.3889 47.3283 39.3889 47.8459 40.1653C45.1215 40.2165 42.3974 40.2534 39.6726 40.2779C38.7487 40.2881 37.8248 40.302 36.9011 40.3199C31.3072 40.4256 26.4638 40.2647 21.197 38.1154C20.8343 37.9728 20.4716 37.8301 20.0979 37.6832C19.2274 37.3255 18.3697 36.9369 17.5136 36.5459C15.4017 35.6041 13.3777 34.8182 11.1397 34.2398C9.01014 33.6583 8.00628 32.8893 6.84766 30.9407Z" fill="#E2A517"/>
<path d="M65.7819 23.2537C67.3911 23.3404 68.1539 23.5956 69.3612 24.677C69.8091 25.225 69.8091 25.225 70.2661 25.784C70.57 26.148 70.8738 26.512 71.1869 26.887C72.473 28.5776 72.6192 29.8771 72.5882 32.0118C72.4441 32.9907 72.4441 32.9907 71.5793 34.0157C70.2345 34.5972 69.281 34.5666 67.8318 34.5282C67.6957 34.182 67.5596 33.8358 67.4194 33.4792C67.2384 33.022 67.0574 32.5649 66.8709 32.0939C66.6034 31.4161 66.6034 31.4161 66.3304 30.7246C65.8137 29.4247 65.8137 29.4247 65.2094 28.3104C64.5553 26.927 64.626 25.7848 64.7569 24.2786C65.0952 23.9404 65.4334 23.6021 65.7819 23.2537Z" fill="#EF7B0E"/>
<path d="M57.5828 38.6279C58.5975 38.6279 59.6122 38.6279 60.6577 38.6279C60.7389 38.9371 60.8202 39.2463 60.9039 39.5648C61.6535 42.2992 61.6535 42.2992 63.5724 44.2972C63.9635 44.6249 64.3545 44.9525 64.7575 45.2901C64.7575 46.3235 64.7536 47.3587 64.6754 48.389C64.8129 50.0653 66.15 50.8425 67.3199 51.9524C67.2238 53.3937 67.2238 53.3937 66.8074 54.5147C65.9618 54.6839 65.1162 54.853 64.245 55.0272C62.8816 53.4554 62.5379 52.4048 62.3552 50.3509C61.8902 47.2996 60.5577 45.6204 58.4936 43.3884C57.4903 42.0961 57.203 41.2716 57.0703 39.6529C57.2394 39.3146 57.4085 38.9764 57.5828 38.6279Z" fill="#F07B0E"/>
<path d="M70.3941 36.5781C72.8058 36.9399 72.8058 36.9399 73.469 37.6031C73.8119 39.8297 73.9268 41.8981 72.8184 43.907C72.2886 44.5915 71.739 45.2613 71.1668 45.9108C70.3743 46.8511 69.8755 47.7616 69.3692 48.8776C68.4083 48.5893 68.4083 48.5893 67.3192 47.8526C66.9598 46.6621 66.6198 45.4656 66.2943 44.2653C65.9243 43.8214 65.5544 43.3774 65.1732 42.92C64.2444 41.7029 64.2444 41.7029 64.3725 40.2616C64.4993 39.8916 64.6262 39.5217 64.7569 39.1405C66.3005 39.4708 67.584 39.9862 68.9848 40.71C69.3468 40.8956 69.7088 41.0812 70.0818 41.2725C70.354 41.4145 70.6262 41.5566 70.9066 41.7029C70.9066 41.0264 70.9066 40.35 70.9066 39.653C70.5684 39.653 70.2301 39.653 69.8816 39.653C69.8597 38.7991 69.8608 37.9445 69.8816 37.0906C70.0508 36.9215 70.2199 36.7524 70.3941 36.5781Z" fill="#EF790E"/>
<path d="M39.6465 44.2653C41.8989 44.161 44.1507 44.0973 46.4048 44.0411C47.3625 43.996 47.3625 43.996 48.3396 43.95C52.9383 43.8637 52.9383 43.8637 54.5156 45.0258C55.239 45.9769 55.239 45.9769 56.0458 47.8526C55.8767 48.36 55.7075 48.8673 55.5333 49.3901C50.6523 49.7496 46.5461 49.2143 42.2089 46.8277C40.7355 45.4564 40.7355 45.4564 39.6465 44.2653Z" fill="#B09D6A"/>
<path d="M40.6719 30.9407C43.1603 31.6244 45.0098 32.7211 47.0138 34.3038C47.4465 34.6412 47.4465 34.6412 47.888 34.9854C50.3614 36.961 52.6627 39.1149 54.5088 41.7027C54.5088 42.0409 54.5088 42.3792 54.5088 42.7277C53.1608 42.4966 51.9656 42.2231 50.6972 41.7027C49.2408 41.1343 47.8538 40.8933 46.3091 40.6778C46.6474 40.3395 46.9856 40.0013 47.3341 39.6528C46.976 39.3555 46.618 39.0582 46.2491 38.752C45.7827 38.3516 45.3163 37.9513 44.8358 37.5388C44.372 37.1464 43.9083 36.754 43.4304 36.3497C42.0906 34.9133 41.6789 33.8448 41.1844 31.9656C41.0152 31.6274 40.8461 31.2892 40.6719 30.9407Z" fill="#A95500"/>
<path d="M62.7072 27.8658C63.5761 28.6725 63.5761 28.6725 64.3087 29.7555C64.6932 30.3174 64.6932 30.3174 65.0855 30.8906C65.3154 31.2453 65.5453 31.6001 65.7821 31.9656C66.2578 32.6632 66.2578 32.6632 66.743 33.3749C67.3195 34.528 67.3195 34.528 67.3195 36.5779C65.121 36.5779 62.9225 36.5779 60.6573 36.5779C60.6996 35.8486 60.7419 35.1192 60.7855 34.3678C60.8401 32.4106 60.8401 32.4106 59.6324 30.9086C59.2941 30.7501 58.9559 30.5915 58.6074 30.4282C58.7996 29.4352 58.7996 29.4352 59.1199 28.3782C60.436 27.7202 61.2482 27.6995 62.7072 27.8658Z" fill="#F07B0E"/>
<path d="M59.6329 50.9275C61.3199 52.2478 61.3958 53.4832 61.6828 55.5398C57.0191 55.9392 52.473 56.2177 47.8139 55.6359C47.4634 55.5937 47.113 55.5515 46.7519 55.508C45.9139 55.3889 45.0843 55.2133 44.2586 55.0273C44.0895 54.6891 43.9203 54.3508 43.7461 54.0024C44.3955 54.0261 45.0449 54.0499 45.7139 54.0744C52.2039 54.3609 52.2039 54.3609 58.0955 51.9524C58.6028 51.6142 59.1102 51.276 59.6329 50.9275Z" fill="#B91902"/>
<path d="M83.72 36.0657C83.8892 36.0657 84.0583 36.0657 84.2325 36.0657C83.9253 42.4144 80.8487 46.8923 76.5453 51.44C74.9008 52.9013 73.1948 54.2406 71.4206 55.5398C70.7371 56.0521 70.0538 56.5645 69.3707 57.0773C69.0324 56.9081 68.6942 56.739 68.3457 56.5648C68.5617 56.3177 68.7777 56.0706 69.0003 55.8161C69.2811 55.4924 69.5618 55.1687 69.8511 54.8352C70.1305 54.5141 70.41 54.1931 70.6979 53.8623C71.4562 52.9998 71.4562 52.9998 71.933 51.9525C72.377 51.7517 72.8209 51.5508 73.2783 51.3439C76.8332 49.4348 78.8058 46.696 80.8053 43.2404C80.9783 42.9425 81.1513 42.6447 81.3296 42.3379C82.4722 40.2794 83.1509 38.3306 83.72 36.0657Z" fill="#B09D6A"/>
<path d="M1.72266 40.6777C2.06089 40.6777 2.39913 40.6777 2.74761 40.6777C3.35818 41.6186 3.35818 41.6186 4.06084 42.9198C8.08013 49.77 14.0086 54.3478 21.1968 57.5895C21.1968 58.0969 21.1968 58.6042 21.1968 59.1269C12.9939 56.7122 6.46758 49.9295 2.23513 42.7276C1.85278 41.5045 1.85278 41.5045 1.72266 40.6777Z" fill="#897B54"/>
<path d="M39.1336 8.90405C41.1194 9.35247 41.1194 9.35247 41.696 9.92901C41.9123 11.8326 41.8147 12.7938 40.8632 14.4772C39.6461 15.5663 39.6461 15.5663 38.0766 15.8225C36.5712 15.5663 36.5712 15.5663 35.6103 14.9577C34.8555 13.7417 34.9199 12.8711 35.0338 11.4664C35.9626 11.1461 35.9626 11.1461 37.0837 10.954C37.591 11.2922 38.0984 11.6304 38.6211 11.9789C38.7902 10.9642 38.9594 9.94951 39.1336 8.90405Z" fill="#F07B0E"/>
<path d="M36.0597 27.3535C36.7993 27.8187 37.5353 28.2896 38.2697 28.7628C38.68 29.0244 39.0902 29.286 39.5129 29.5556C40.7143 30.4602 41.4629 31.1737 42.2094 32.4783C42.3055 33.8876 42.3055 33.8876 42.2094 35.0407C41.8632 34.8617 41.5171 34.6826 41.1604 34.4982C40.7033 34.265 40.2461 34.0318 39.7751 33.7915C39.0973 33.4437 39.0973 33.4437 38.4059 33.0889C37.1427 32.4483 37.1427 32.4483 35.9316 32.2221C35.6356 32.1375 35.3396 32.0529 35.0347 31.9658C34.3941 30.6526 34.3941 30.6526 34.0098 29.4034C34.6862 28.727 35.3627 28.0505 36.0597 27.3535Z" fill="#BC8100"/>
<path d="M30.9334 29.4033C32.3464 30.1098 32.7082 31.1328 33.4958 32.4782C33.834 32.8164 34.1722 33.1547 34.5207 33.5031C34.3516 34.1796 34.1825 34.8561 34.0082 35.5531C31.3024 35.5531 28.5965 35.5531 25.8086 35.5531C26.8335 33.5031 26.8335 33.5031 27.7944 33.0547C29.3851 32.2126 30.0145 30.9129 30.9334 29.4033Z" fill="#E36801"/>
<path d="M50.921 27.3535C51.4284 27.3535 51.9357 27.3535 52.4584 27.3535C52.4584 28.5373 52.4584 29.7212 52.4584 30.9409C53.0398 31.2368 53.6211 31.5328 54.2201 31.8377C55.9682 32.8356 55.9682 32.8356 56.5903 34.0798C56.5583 35.0407 56.5583 35.0407 55.5333 36.0656C53.7717 36.0656 53.7717 36.0656 51.946 35.5532C50.3467 33.3864 50.2093 31.5309 50.4085 28.8909C50.5777 28.3836 50.7468 27.8762 50.921 27.3535Z" fill="#E46801"/>
<path d="M41.6962 19.1538C42.1885 20.6309 42.2629 21.5617 42.2407 23.0935C42.2361 23.5077 42.2314 23.9219 42.2267 24.3487C42.2207 24.6638 42.2148 24.9789 42.2087 25.3036C40.1499 24.6173 39.1115 23.7438 37.5964 22.2287C36.5874 21.6854 35.5647 21.1655 34.5215 20.6913C36.3399 18.8729 39.2345 19.1538 41.6962 19.1538Z" fill="#E36700"/>
<path d="M45.7969 37.603C47.5685 37.3463 49.1579 37.26 50.9217 37.603C52.4263 38.7612 53.5255 40.0811 54.509 41.7028C54.509 42.041 54.509 42.3793 54.509 42.7278C53.161 42.4967 51.9658 42.2232 50.6974 41.7028C49.241 41.1344 47.854 40.8934 46.3094 40.6778C46.6476 40.3396 46.9858 40.0014 47.3343 39.6529C46.827 38.9764 46.3196 38.3 45.7969 37.603Z" fill="#C08B01"/>
<path d="M12.9965 35.0405C15.6782 35.3187 17.7794 35.9488 20.2673 37.0584C20.877 37.3273 21.4868 37.5962 22.115 37.8732C23.3598 38.4448 24.5903 39.0271 25.8084 39.6528C25.1637 39.5788 24.5189 39.5048 23.8546 39.4286C21.5163 39.1659 19.1753 38.9615 16.8301 38.772C13.8248 38.4313 13.8248 38.4313 12.9965 37.6029C12.9757 36.749 12.9746 35.8944 12.9965 35.0405Z" fill="#B09D6A"/>
<path d="M27.8583 17.104C28.0274 17.7805 28.1965 18.457 28.3708 19.1539C26.6796 19.8304 24.9884 20.5069 23.246 21.2039C23.246 22.2186 23.246 23.2333 23.246 24.2787C22.2531 23.9264 22.2531 23.9264 21.1961 23.2538C20.8117 21.9085 20.8117 21.9085 20.6836 20.6914C21.259 20.1883 21.8358 19.6868 22.4132 19.186C22.8948 18.7668 22.8948 18.7668 23.3861 18.3392C24.9196 17.0868 25.9147 17.0529 27.8583 17.104Z" fill="#B06000"/>
<path d="M60.657 49.9026C61.6327 51.3661 62.0379 52.4297 62.5147 54.0985C62.6482 54.5603 62.7816 55.022 62.9191 55.4978C63.0182 55.8499 63.1173 56.202 63.2194 56.5648C64.6061 57.0535 64.6061 57.0535 66.2943 57.0773C68.1874 55.778 69.6336 54.3745 70.9066 52.465C71.2448 52.6341 71.583 52.8032 71.9315 52.9775C71.3069 53.8036 70.6757 54.6247 70.0418 55.4438C69.691 55.9016 69.3402 56.3594 68.9788 56.831C67.8146 58.1211 66.8354 58.8974 65.2693 59.6397C63.2947 59.1805 62.826 58.7933 61.682 57.0773C61.3757 55.9903 61.3757 55.9903 61.1375 54.8032C60.8975 53.6312 60.6608 52.4784 60.3387 51.3259C60.2426 50.875 60.2426 50.875 60.1445 50.4151C60.3136 50.2459 60.4828 50.0768 60.657 49.9026Z" fill="#E0A21B"/>
<path d="M32.9843 25.3037C34.3279 25.8412 34.9285 26.1489 35.6748 27.4177C35.8016 27.7348 35.9284 28.0519 36.0591 28.3786C35.5518 28.7168 35.0444 29.055 34.5217 29.4035C34.6908 30.08 34.8599 30.7565 35.0342 31.4534C33.2901 30.9109 31.9524 30.4239 30.4219 29.4035C31.0296 27.6739 31.5881 26.5095 32.9843 25.3037Z" fill="#AD5D00"/>
<path d="M51.4326 6.85435C52.1292 7.34867 52.8116 7.86318 53.4825 8.39178C54.4995 8.91984 55.5232 9.43563 56.5574 9.92921C56.5574 10.0983 56.5574 10.2674 56.5574 10.4417C52.5857 10.5058 52.5857 10.5058 51.4326 9.92921C50.6451 9.81407 49.8543 9.72014 49.0624 9.64094C48.6436 9.598 48.2247 9.55506 47.7932 9.51082C47.4722 9.47977 47.1511 9.44873 46.8203 9.41674C47.3277 8.90938 47.835 8.40203 48.3577 7.8793C48.1886 7.54107 48.0195 7.20283 47.8453 6.85435C49.251 6.15149 49.9386 6.4275 51.4326 6.85435Z" fill="#F07B0E"/>
<path d="M9.41013 33.5032C10.1953 33.6323 10.9745 33.7983 11.7483 33.9836C12.1718 34.0834 12.5952 34.1831 13.0315 34.2859C13.522 34.4058 13.522 34.4058 14.0224 34.5281C13.5151 34.7818 13.5151 34.7818 12.9975 35.0406C13.3357 36.3935 13.6739 37.7465 14.0224 39.1404C13.2638 38.8967 12.5059 38.6508 11.7483 38.4037C11.3262 38.267 10.904 38.1302 10.4691 37.9894C9.41013 37.603 9.41013 37.603 8.89765 37.0905C8.83359 35.5531 8.83359 35.5531 8.89765 34.0157C9.06677 33.8465 9.23589 33.6774 9.41013 33.5032Z" fill="#B09D6A"/>
<path d="M21.1961 38.6281C21.7933 38.7047 22.3905 38.7814 23.0057 38.8603C27.7109 39.5057 27.7109 39.5057 28.8832 40.678C27.9986 40.8066 27.112 40.9213 26.2248 41.0303C25.4845 41.1284 25.4845 41.1284 24.7294 41.2285C22.938 41.1826 22.1876 40.5831 20.6836 39.6531C18.2718 39.2635 15.6567 39.0553 13.4508 40.2296C12.5142 40.9833 12.5142 40.9833 11.459 42.2154C11.9164 40.5231 12.3291 39.7722 13.7331 38.6922C16.3454 37.8672 18.5176 38.2358 21.1961 38.6281Z" fill="#59BE00"/>
<path d="M27.3471 26.3284C27.6674 27.2893 27.6674 27.2893 27.8596 28.3783C26.8346 29.4032 26.8346 29.4032 25.0089 29.4993C23.2473 29.4032 23.2473 29.4032 22.7348 28.8907C22.7139 28.0369 22.7129 27.1822 22.7348 26.3284C24.3075 25.542 25.6564 26.0466 27.3471 26.3284Z" fill="#EF7B0E"/>
<path d="M59.1211 22.2287C60.5945 22.1646 60.5945 22.1646 62.196 22.2287C63.2209 23.2537 63.2209 23.2537 63.285 25.1114C63.2638 25.6822 63.2427 26.2529 63.2209 26.841C62.3753 26.841 61.5297 26.841 60.6585 26.841C60.146 25.3036 59.6336 23.7661 59.1211 22.2287Z" fill="#F07C0E"/>
<path d="M46.3086 11.4666C47.3552 11.5256 48.4015 11.5909 49.4475 11.6587C50.0302 11.6944 50.6128 11.7301 51.2132 11.7668C52.9472 11.9762 54.414 12.394 56.0457 13.004C56.0457 13.3422 56.0457 13.6805 56.0457 14.0289C52.9708 13.6873 49.8959 13.3456 46.8211 13.004C46.652 12.4966 46.4828 11.9893 46.3086 11.4666Z" fill="#E46901"/>
<path d="M67.832 28.3784C68.6776 28.5475 69.5232 28.7167 70.3944 28.8909C70.5635 30.0747 70.7326 31.2585 70.9069 32.4782C70.2304 32.6474 69.5539 32.8165 68.857 32.9907C67.2801 30.72 67.2801 30.72 67.4797 29.2432C67.5959 28.9578 67.7122 28.6725 67.832 28.3784Z" fill="#E46801"/>
<path d="M51.4336 16.5916C52.7865 16.5916 54.1395 16.5916 55.5334 16.5916C55.5334 17.4371 55.5334 18.2827 55.5334 19.1539C55.0261 19.4076 55.0261 19.4076 54.5085 19.6664C53.9276 20.6999 53.9276 20.6999 53.4835 21.7163C53.1453 21.7163 52.807 21.7163 52.4585 21.7163C52.4797 21.2513 52.5008 20.7862 52.5226 20.307C52.461 18.7039 52.2579 17.9311 51.4336 16.5916Z" fill="#EF7B0E"/>
<path d="M25.2976 22.2285C26.5468 22.4207 26.5468 22.4207 27.86 22.741C28.5541 24.1292 28.4058 25.3082 28.3725 26.8408C27.4436 26.7447 27.4436 26.7447 26.3226 26.3283C25.3937 25.1112 25.3937 25.1112 24.7852 23.7659C24.9543 23.2586 25.1234 22.7512 25.2976 22.2285Z" fill="#AD5E00"/>
<path d="M47.846 39.1404C48.7666 39.3436 49.6843 39.5596 50.6006 39.781C51.1119 39.8999 51.6232 40.0188 52.15 40.1413C53.4833 40.6778 53.4833 40.6778 54.1759 41.7588C54.2856 42.0786 54.3953 42.3983 54.5082 42.7277C53.1603 42.4966 51.9651 42.2231 50.6967 41.7028C49.2402 41.1344 47.8532 40.8933 46.3086 40.6778C46.8159 40.5087 47.3233 40.3396 47.846 40.1653C47.846 39.8271 47.846 39.4889 47.846 39.1404Z" fill="#A67E02"/>
<path d="M60.6575 52.4648C61.6825 54.0023 61.6825 54.0023 61.6825 55.5397C59.3149 55.7088 56.9472 55.8779 54.5078 56.0522C55.6072 54.9528 56.4505 54.5699 57.8709 53.9702C59.3808 53.3952 59.3808 53.3952 60.6575 52.4648Z" fill="#AB2837"/>
<path d="M25.2976 5.82935C27.796 6.27776 27.796 6.27776 28.3725 6.8543C28.3933 7.70818 28.3944 8.56284 28.3725 9.41669C25.9382 9.03233 25.9382 9.03233 24.7852 7.87926C24.9773 6.79024 24.9773 6.79024 25.2976 5.82935Z" fill="#E46902"/>
<path d="M12.4839 27.3535C13.1604 27.3535 13.8369 27.3535 14.5339 27.3535C14.8721 28.1991 15.2103 29.0447 15.5588 29.9159C14.375 30.085 13.1912 30.2541 11.9715 30.4284C11.6512 29.4675 11.6512 29.4675 11.459 28.3785C11.7972 28.0402 12.1355 27.702 12.4839 27.3535Z" fill="#E46902"/>
<path d="M61.1699 29.916C62.3589 30.121 63.1497 30.3802 64.1487 31.0691C64.7573 31.9659 64.7573 31.9659 64.5971 33.3432C64.4808 33.7343 64.3646 34.1254 64.2448 34.5283C63.2839 34.24 63.2839 34.24 62.1949 33.5034C61.5543 31.6456 61.5543 31.6456 61.1699 29.916Z" fill="#E46902"/>
<path d="M49.3828 41.1904C50.2159 41.4348 51.0486 41.6807 51.8811 41.9271C52.3449 42.0639 52.8086 42.2006 53.2865 42.3415C54.5076 42.7279 54.5076 42.7279 55.5325 43.2403C55.5325 43.7477 55.5325 44.255 55.5325 44.7778C52.6508 44.5719 51.4092 43.6328 49.3828 41.7029C49.3828 41.5338 49.3828 41.3647 49.3828 41.1904Z" fill="#897B54"/>
<path d="M60.1445 17.104C61.3284 17.104 62.5122 17.104 63.7319 17.104C63.901 17.7805 64.0701 18.4569 64.2444 19.1539C62.9089 19.6309 62.3779 19.7428 61.0414 19.1859C60.7454 19.0063 60.4495 18.8266 60.1445 18.6414C60.1445 18.1341 60.1445 17.6267 60.1445 17.104Z" fill="#E36800"/>
<path d="M40.6719 30.9407C41.7073 31.2491 42.7326 31.5931 43.7467 31.9656C44.4408 33.3538 44.2925 34.5328 44.2592 36.0655C43.2983 35.7452 43.2983 35.7452 42.2093 35.0405C41.6007 33.5031 41.6007 33.5031 41.1844 31.9656C41.0152 31.6274 40.8461 31.2892 40.6719 30.9407Z" fill="#B05E01"/>
<path d="M5.82266 40.1655C6.1609 40.1655 6.49913 40.1655 6.84762 40.1655C7.01674 40.6729 7.18585 41.1802 7.3601 41.703C8.54392 41.8721 9.72774 42.0412 10.9474 42.2154C10.7783 42.7228 10.6092 43.2301 10.435 43.7529C6.3992 43.3045 6.3992 43.3045 5.82266 42.7279C5.80184 41.874 5.80077 41.0194 5.82266 40.1655Z" fill="#2D4D00"/>
<path d="M43.7461 54.0024C45.6064 54.0024 47.4667 54.0024 49.3834 54.0024C49.3834 54.3407 49.3834 54.6789 49.3834 55.0274C49.7216 55.1965 50.0598 55.3656 50.4083 55.5399C49.3937 55.4817 48.3794 55.4163 47.3655 55.3477C46.8006 55.312 46.2358 55.2763 45.6539 55.2396C45.1934 55.1696 44.733 55.0995 44.2586 55.0274C44.0895 54.6892 43.9203 54.3509 43.7461 54.0024Z" fill="#9B1400"/>
<path d="M71.933 52.4648C72.2713 52.4648 72.6095 52.4648 72.958 52.4648C72.958 53.1413 72.958 53.8178 72.958 54.5148C72.1733 55.2755 72.1733 55.2755 71.1643 55.9241C70.8314 56.1434 70.4984 56.3627 70.1554 56.5887C69.8964 56.7499 69.6375 56.9111 69.3707 57.0771C69.0324 56.908 68.6942 56.7389 68.3457 56.5647C68.9187 55.8784 69.496 55.1957 70.0753 54.5148C70.5569 53.944 70.5569 53.944 71.0482 53.3617C71.3402 53.0657 71.6322 52.7698 71.933 52.4648Z" fill="#897B54"/>
<path d="M83.7198 36.0657C83.889 36.0657 84.0581 36.0657 84.2323 36.0657C84.0214 38.6132 83.8244 40.9061 82.6949 43.2404C82.3566 42.733 82.0184 42.2257 81.6699 41.7029C82.0182 40.3196 82.0182 40.3196 82.6308 38.7882C82.8303 38.2789 83.0298 37.7695 83.2354 37.2448C83.3953 36.8557 83.5551 36.4666 83.7198 36.0657Z" fill="#B09D6A"/>
<path d="M19.7241 57.0449C20.2103 57.2246 20.6965 57.4043 21.1975 57.5894C21.1975 58.0968 21.1975 58.6041 21.1975 59.1268C18.2507 58.23 18.2507 58.23 17.0977 57.0769C18.1226 56.5645 18.1226 56.5645 19.7241 57.0449Z" fill="#897B54"/>
<path d="M59.6331 50.9275C59.9714 51.0966 60.3096 51.2657 60.6581 51.44C60.4979 52.4329 60.4979 52.4329 60.1456 53.4899C59.6383 53.659 59.1309 53.8281 58.6082 54.0024C58.4391 53.3259 58.2699 52.6494 58.0957 51.9524C58.6031 51.6142 59.1104 51.276 59.6331 50.9275Z" fill="#897B54"/>
<path d="M32.9844 42.7278C35.0772 43.1083 37.0941 43.6652 39.1341 44.2652C39.1341 44.4343 39.1341 44.6035 39.1341 44.7777C35.3497 45.03 35.3497 45.03 33.7531 43.7527C33.4994 43.4145 33.2457 43.0763 32.9844 42.7278Z" fill="#50C600"/>
<path d="M34.5215 5.31689C35.5362 5.82425 35.5362 5.82425 36.5714 6.34185C36.5714 6.8492 36.5714 7.35656 36.5714 7.87928C35.8949 7.87928 35.2185 7.87928 34.5215 7.87928C34.5215 7.0337 34.5215 6.18811 34.5215 5.31689Z" fill="#E56A02"/>
</svg>
