<svg width="85" height="50" viewBox="0 0 85 50" fill="none" xmlns="http://www.w3.org/2000/svg">
<path d="M83.775 31.3037C83.9737 20.978 66.0522 12.2005 43.7463 11.6986C21.4405 11.1967 3.19696 19.1605 2.99833 29.4862C2.79969 39.812 20.7212 48.5895 43.027 49.0913C65.3329 49.5932 83.5764 41.6294 83.775 31.3037Z" fill="#DBC28E"/>
<path d="M81.8178 26.864C74.8843 38.269 63.8181 44.6949 41.3131 43.8914C18.8082 43.0879 4.84992 35.3058 2.31517 21.9239C0.282045 11.1888 21.797 3.54021 44.302 4.34576C66.8069 5.14925 87.3833 17.7071 81.8178 26.864Z" fill="#D6D0BA"/>
<path d="M84.619 21.7013C84.8294 10.7628 66.1427 1.47119 42.881 0.947809C19.6193 0.424432 0.591414 8.86752 0.380996 19.806C0.170578 30.7444 18.8573 40.0361 42.119 40.5595C65.3807 41.0829 84.4086 32.6398 84.619 21.7013Z" fill="#E5E0CF"/>
<path d="M82.8883 21.6623C83.0869 11.3366 65.1655 2.55909 42.8596 2.05722C20.5537 1.55535 2.31024 9.51916 2.11161 19.8449C1.91298 30.1706 19.8344 38.9481 42.1403 39.45C64.4462 39.9519 82.6897 31.988 82.8883 21.6623Z" fill="#B09D6A"/>
<path opacity="0.55" d="M64.2735 22.7181C64.3807 17.1445 54.7077 12.4066 42.6682 12.1357C30.6287 11.8648 20.7818 16.1635 20.6746 21.7372C20.5674 27.3108 30.2404 32.0487 42.2799 32.3196C54.3194 32.5905 64.1663 28.2917 64.2735 22.7181Z" fill="#EAE4D6"/>
<path d="M17.102 23.0291C20.8661 22.3468 25.0616 22.5667 28.3659 21.753C37.9633 19.3877 45.4669 11.2871 54.6577 7.47511C59.9153 5.2948 65.6841 4.57351 71.2628 5.39961C72.6347 5.60305 74.0636 5.93184 75.1144 6.90589C75.3709 7.14427 75.6445 6.9326 75.6464 7.29838C75.6502 7.99707 74.9871 8.49848 74.379 8.72864C71.012 10.0068 69.1252 14.7394 67.037 17.5732C62.1632 24.1881 55.8624 29.792 48.4786 32.7614C39.5119 36.3678 30.8664 34.1135 21.7516 32.4778C18.5328 31.9003 15.0119 31.5346 12.1978 33.3265C10.9722 34.1074 7.32019 36.1541 7.73822 32.5394C8.38996 26.8945 12.0325 23.9477 17.102 23.0291Z" fill="#6D8739"/>
<path d="M17.1333 22.5071C20.8974 21.8249 25.0929 22.0448 28.3972 21.231C37.9946 18.8657 45.4982 10.7651 54.6891 6.95314C59.9467 4.77283 65.7154 4.05154 71.2942 4.87763C72.666 5.08107 74.0949 5.40987 75.1457 6.38392C75.4022 6.62229 75.6454 6.93054 75.6473 7.29632C75.6511 7.995 74.8664 8.30736 74.2583 8.53751C70.8913 9.8157 69.1584 14.2174 67.0683 17.0512C62.1945 23.6661 55.8937 29.27 48.5099 32.2394C39.5432 35.8458 30.8977 33.5916 21.7829 31.9558C18.5641 31.3784 15.0432 31.0126 12.2291 32.8045C11.0035 33.5854 7.07979 36.4603 7.49782 32.8477C8.14766 27.2027 12.0619 23.4277 17.1333 22.5071Z" fill="#809D4E"/>
<path d="M9.45508 32.4921C9.72109 31.7625 10.1106 31.0885 10.5894 30.4967C11.0683 29.9049 11.6326 29.3973 12.2425 28.9699C13.4662 28.115 14.8647 27.5704 16.2993 27.3012C17.7377 27.0402 19.2008 27.0238 20.6487 27.0896C22.0984 27.1553 23.5406 27.3012 24.9809 27.3711C30.744 27.6547 36.5469 26.6971 41.9717 24.599C44.6889 23.5633 47.3148 22.2481 49.8002 20.6699C50.1099 20.4706 50.4253 20.2835 50.7294 20.0739L51.6357 19.4369C51.934 19.2191 52.2457 19.0218 52.5364 18.7896L53.4142 18.1073C54.009 17.6655 54.5619 17.1641 55.1281 16.6833C55.7001 16.2086 56.2435 15.6969 56.7907 15.1852C57.8795 14.1598 58.955 13.1056 60.0893 12.1254C61.2199 11.1431 62.4227 10.241 63.7185 9.52379C66.3122 8.09354 69.1795 7.30854 72.0638 7.09277C70.6236 7.24895 69.1966 7.53253 67.8095 7.95997C66.4243 8.39356 65.0733 8.9669 63.8059 9.70668C62.5348 10.4382 61.3548 11.3424 60.2432 12.3329C59.1279 13.3214 58.0695 14.3858 56.9883 15.4297C52.677 19.6362 47.5771 22.8933 42.1047 24.9976C36.6248 27.0793 30.7706 28.0492 24.9676 27.6958C23.5178 27.6054 22.0794 27.441 20.6391 27.3567C19.2008 27.2725 17.7529 27.2725 16.3297 27.5067C14.9122 27.7389 13.5213 28.2465 12.2976 29.0664C11.0778 29.8781 10.0232 31.0433 9.45508 32.4921Z" fill="#6D8739"/>
<path d="M51.9199 20.2919C52.8073 20.1316 53.7041 20.0494 54.6029 20.0186C55.5016 19.9857 56.4023 20.0124 57.301 20.0823C58.1979 20.1583 59.0929 20.2775 59.9764 20.4563C60.86 20.633 61.7359 20.8591 62.591 21.1612C61.6998 21.0296 60.8163 20.894 59.9308 20.781C59.0454 20.67 58.1599 20.5693 57.2706 20.5015C56.3833 20.4255 55.494 20.3803 54.6029 20.3453C53.7117 20.3145 52.8187 20.3063 51.9199 20.2919Z" fill="#97B264"/>
<path d="M44.8438 24.519C45.7178 24.4903 46.5957 24.554 47.464 24.6814C48.3343 24.8047 49.195 25.0019 50.0425 25.2506C50.888 25.5075 51.7203 25.8157 52.5259 26.1918C53.3316 26.5658 54.1144 26.9973 54.8517 27.5069C54.0403 27.1535 53.2328 26.8083 52.4157 26.4959C51.5987 26.1856 50.774 25.9 49.9399 25.6554C49.1076 25.4027 48.264 25.191 47.4165 25.0019C46.5653 24.817 45.7083 24.6629 44.8438 24.519Z" fill="#97B264"/>
<path d="M37.7754 27.2727C38.41 27.4659 39.0295 27.7001 39.6375 27.9652C40.2474 28.2283 40.8441 28.5345 41.4236 28.8797C41.9993 29.2311 42.5561 29.6236 43.0653 30.0839C43.5764 30.5401 44.042 31.06 44.4144 31.6477C43.9204 31.1751 43.413 30.7415 42.881 30.3449C42.349 29.9503 41.7979 29.5845 41.2317 29.2475C40.6693 28.9023 40.0897 28.5858 39.5102 28.2652C38.9326 27.9426 38.3473 27.6262 37.7754 27.2727Z" fill="#97B264"/>
<path d="M29.6699 28.3782C29.9929 28.6186 30.2723 28.9186 30.5193 29.2474C30.7663 29.5762 30.981 29.9358 31.1558 30.316C31.3306 30.6962 31.4655 31.0969 31.5605 31.5079C31.6536 31.9189 31.7049 32.3422 31.6878 32.7655C31.5472 32.371 31.4161 31.9867 31.2736 31.6086C31.1311 31.2325 30.9753 30.8647 30.81 30.5009C30.6428 30.1393 30.4661 29.7838 30.2742 29.4324C30.0803 29.083 29.8751 28.7398 29.6699 28.3782Z" fill="#97B264"/>
<path d="M29.0445 26.4631C28.9837 26.0562 28.9305 25.6616 28.8488 25.2794C28.7671 24.8972 28.6588 24.5294 28.5125 24.1821C28.2218 23.4875 27.7753 22.8813 27.1406 22.4292C27.5187 22.4929 27.8779 22.7025 28.1705 22.984C28.465 23.2656 28.7025 23.619 28.864 24.0074C29.0274 24.3958 29.1167 24.813 29.1452 25.2301C29.1737 25.6493 29.1433 26.0665 29.0445 26.4631Z" fill="#97B264"/>
<path d="M36.9028 25.1417C36.8762 24.6485 36.8762 24.1636 36.861 23.6848C36.8439 23.206 36.823 22.7313 36.7602 22.2627C36.7051 21.7963 36.6101 21.336 36.479 20.8859C36.3441 20.4379 36.1655 20.0023 35.9375 19.5769C36.2909 19.8913 36.5645 20.3126 36.7602 20.7647C36.9598 21.2188 37.0795 21.71 37.146 22.2052C37.203 22.7025 37.2087 23.2018 37.1631 23.693C37.1194 24.1862 37.0339 24.6691 36.9028 25.1417Z" fill="#97B264"/>
<path d="M44.1243 22.7723C44.1871 22.0736 44.2365 21.3831 44.2536 20.6927C44.2669 20.0022 44.2574 19.3138 44.2042 18.6295C44.1586 17.9431 44.073 17.2629 43.9609 16.5827C43.8469 15.9026 43.7006 15.2285 43.541 14.5483C43.8526 15.1669 44.0844 15.8286 44.2555 16.5108C44.4303 17.191 44.5367 17.8938 44.5899 18.5987C44.6355 19.3035 44.6298 20.0145 44.5538 20.7173C44.4797 21.416 44.3429 22.1106 44.1243 22.7723Z" fill="#97B264"/>
<path d="M51.4465 18.4138C51.6423 17.6843 51.781 16.9527 51.8494 16.2129C51.9159 15.4752 51.9197 14.7334 51.8475 13.9997C51.7829 13.2641 51.6441 12.5387 51.4446 11.8297C51.2432 11.1207 50.9734 10.4323 50.6504 9.7583C51.1083 10.3357 51.4674 11.0077 51.7297 11.7208C51.9957 12.4339 52.1591 13.1921 52.2332 13.9586C52.2997 14.7272 52.2769 15.504 52.1477 16.2602C52.0185 17.0144 51.7905 17.75 51.4465 18.4138Z" fill="#97B264"/>
<path d="M60.3066 13.9833C60.8824 13.6771 61.4923 13.4531 62.1155 13.2867C62.7388 13.1181 63.3791 13.0175 64.0214 12.9681C64.6636 12.925 65.3096 12.9353 65.9481 13.0133C66.5865 13.0894 67.2193 13.225 67.8273 13.4469C67.1889 13.3976 66.558 13.3545 65.9291 13.3401C65.3001 13.3298 64.6731 13.338 64.0461 13.3873C63.4209 13.4284 62.7977 13.5065 62.1745 13.6072C61.5531 13.71 60.9337 13.8435 60.3066 13.9833Z" fill="#97B264"/>
<path d="M58.6816 12.3249L58.8831 10.9748C58.9439 10.5289 59.0009 10.085 59.0389 9.64113C59.0807 9.19521 59.1149 8.74722 59.1206 8.30746C59.1225 7.86565 59.0826 7.42794 58.9401 6.99023C59.227 7.34163 59.3695 7.82044 59.4227 8.28691C59.4816 8.7575 59.4607 9.22192 59.4246 9.68428C59.3771 10.1446 59.3011 10.6049 59.1776 11.0488C59.056 11.4926 58.8964 11.9242 58.6816 12.3249Z" fill="#97B264"/>
<path d="M19.0407 26.2841C19.0084 25.98 18.9609 25.7005 18.8849 25.4354C18.8089 25.1703 18.7063 24.9196 18.5847 24.6812C18.4611 24.4449 18.3167 24.2189 18.1457 24.0113C17.9747 23.8038 17.7809 23.6126 17.5586 23.4236C17.8436 23.4503 18.1172 23.5818 18.349 23.7688C18.5828 23.9558 18.7804 24.2004 18.9229 24.4778C19.0673 24.7531 19.1566 25.0634 19.1813 25.3779C19.206 25.6881 19.168 26.0087 19.0407 26.2841Z" fill="#97B264"/>
<path d="M19.1953 28.0144C19.4518 28.1089 19.676 28.2898 19.8604 28.5076C20.0447 28.7275 20.1891 28.9864 20.2841 29.2659C20.3791 29.5453 20.4247 29.8454 20.4152 30.1413C20.4057 30.4372 20.3411 30.7311 20.2024 30.9818C20.1834 30.692 20.1568 30.4249 20.1131 30.1639C20.0675 29.905 20.001 29.6543 19.9193 29.4118C19.8357 29.1693 19.7368 28.933 19.6171 28.7028C19.4955 28.4706 19.3549 28.2487 19.1953 28.0144Z" fill="#97B264"/>
<path opacity="0.25" d="M41.1823 13.79C40.844 14.5729 41.1861 15.4771 41.378 16.3155C41.6193 17.3759 41.6117 18.4814 41.6858 19.5726C41.7371 20.3432 41.8606 21.1755 42.3812 21.7036C42.6947 22.0221 43.1166 22.1865 43.4605 22.466C43.983 22.8893 44.3155 23.5613 44.8818 23.9147C45.6874 24.4182 46.7173 24.1264 47.5495 23.6743C48.3818 23.2222 49.1722 22.614 50.0957 22.4783C50.6733 22.3941 51.2586 22.505 51.84 22.5461C52.4214 22.5852 53.0409 22.542 53.5254 22.1906C54.0289 21.8249 54.2987 21.196 54.6503 20.6617C55.207 19.8151 56.0012 19.1698 56.5238 18.2985C57.1052 17.3286 57.3066 16.0812 56.9817 14.9818C56.7062 14.0489 56.0754 13.268 55.3305 12.7132C54.5838 12.1563 53.723 11.8049 52.8547 11.5295C51.6386 11.1432 50.3807 10.8925 49.1152 10.8719C47.445 10.8432 45.7976 11.2151 44.192 11.6795C42.9589 12.035 41.7751 12.4152 41.1823 13.79Z" fill="#4F3920"/>
<path d="M50.7453 2.9584C51.0569 3.16389 51.3647 3.37966 51.6213 3.65914C52.6606 4.78525 52.6663 6.66965 53.6354 7.86769C54.2643 8.64446 55.2315 9.04518 55.8148 9.861C56.2461 10.4652 56.4247 11.2707 56.2936 12.0208C56.2271 12.4071 56.0637 12.7975 55.7521 13.001C55.4994 13.1654 55.1878 13.1839 54.8952 13.1448C53.7475 12.9907 52.8031 12.0577 52.2046 10.9892C51.6061 9.92059 51.2811 8.70406 50.8441 7.54506C50.5553 6.77856 50.2133 6.02234 50.0974 5.20446C50.0385 4.79347 50.0271 4.36399 49.8827 3.97355C49.7724 3.67763 49.533 3.42898 49.4418 3.12896C49.1891 2.28232 50.4337 2.7529 50.7453 2.9584Z" fill="#EFA841"/>
<path d="M51.0523 3.68984C51.4134 3.92822 51.6661 4.3166 51.8637 4.72143C52.5249 6.06948 52.6731 7.65386 53.304 9.01835C53.6346 9.73553 54.0963 10.3828 54.653 10.911C55.282 11.5069 56.042 11.9672 56.519 12.7111C56.9446 13.3749 57.0985 14.2318 56.9351 15.0188C56.7717 15.8059 56.2928 16.5107 55.6468 16.9135C55.3941 17.0717 55.0578 17.1786 54.8222 16.9916C54.7271 16.9176 54.6644 16.8066 54.6093 16.6957C54.4839 16.4491 54.3832 16.1902 54.2806 15.9333C53.6422 14.3181 53.0037 12.7008 52.3634 11.0856C52.0214 10.2184 51.6775 9.3492 51.4095 8.45324C51.2556 7.93539 51.1264 7.40726 50.9744 6.88941C50.7198 6.02222 50.3987 5.17558 50.0187 4.36387C49.8781 4.06179 49.5816 3.6919 49.9769 3.49462C50.2866 3.33639 50.7844 3.51311 51.0523 3.68984Z" fill="#E29734"/>
<path d="M51.9373 5.67515C52.3819 6.62865 52.5947 7.6849 52.7942 8.72882C52.9937 9.77479 53.1857 10.8331 53.5923 11.8051C54.1699 13.184 55.0725 14.4848 55.2644 16.0178C55.5114 17.9761 54.4055 19.8297 52.5396 20.0845C52.1615 20.1359 51.7511 20.0619 51.4604 19.7968C50.9378 19.3201 50.972 18.4611 50.9454 17.7213C50.9074 16.6383 50.6433 15.5842 50.4324 14.5259C50.0695 12.7031 49.8586 10.8454 49.8054 8.98158C49.7693 7.69312 49.8073 6.4026 49.7503 5.11415C49.735 4.78946 49.4842 3.82569 49.7807 3.65513C50.1797 3.42908 50.7136 4.00652 50.9245 4.21202C51.3463 4.6189 51.6827 5.12853 51.9373 5.67515Z" fill="#D38129"/>
<path d="M49.0544 2.53915C48.587 2.4775 48.1347 2.75492 47.7794 3.08988C47.4051 3.44538 47.0916 3.87898 46.8655 4.35778C46.5405 5.04414 46.3866 5.83119 45.9496 6.44151C45.4898 7.08266 44.7639 7.46488 44.3535 8.14302C44.0495 8.64443 43.9526 9.28557 44.0913 9.86713C44.1388 10.0665 44.2224 10.2699 44.3858 10.3768C44.6252 10.5309 44.9311 10.4137 45.1725 10.2617C45.7729 9.88151 46.246 9.30407 46.683 8.71841C47.3633 7.806 48.0929 7.00868 48.6991 6.03874C49.1095 5.3791 50.7493 2.76314 49.0544 2.53915Z" fill="#C66C28"/>
<path d="M47.5281 4.27564C46.922 4.90445 46.5534 5.74904 46.1961 6.57308C45.8389 7.39712 45.4665 8.23965 44.8547 8.86436C44.0889 9.64524 43.0059 10.0213 42.3313 10.8947C41.6435 11.7865 41.52 13.1407 42.0368 14.1579C42.128 14.3367 42.2401 14.5114 42.3997 14.6223C42.6391 14.7867 42.9546 14.7847 43.2206 14.6799C43.4885 14.5751 43.7165 14.3799 43.9293 14.1764C45.3487 12.8202 46.2892 10.981 47.1006 9.12945C47.587 8.02182 48.0393 6.89571 48.5599 5.80453C48.824 5.2538 49.432 4.68457 49.7285 4.15645C50.0116 3.65298 49.6315 3.41872 49.0406 3.48037C48.4763 3.5379 47.9366 3.85026 47.5281 4.27564Z" fill="#9B4B16"/>
<path d="M49.7831 3.65088C48.719 3.88103 47.9324 4.81604 47.406 5.84352C46.7809 7.058 46.4712 8.42455 45.8726 9.65136C45.4375 10.5432 44.8675 11.3467 44.2347 12.0844C43.6609 12.7523 42.9294 13.3071 42.6044 14.1825C41.9622 15.9128 42.7679 18.1486 44.3487 18.8863C44.7554 19.0774 45.238 19.1679 45.637 18.9583C46.1577 18.6829 46.3572 18.0089 46.6916 17.4951C47.026 16.9773 47.5238 16.5971 47.8336 16.0608C48.1072 15.5881 48.2155 15.0292 48.3029 14.4785C48.4093 13.7942 48.4872 13.1037 48.5366 12.4112C48.6468 10.8371 48.6088 9.23831 48.9318 7.69709C49.1845 6.48467 49.6634 5.29279 49.5893 4.0516L49.7831 3.65088Z" fill="#AA551B"/>
<path d="M49.2794 6.89555C48.3807 10.7219 48.9925 14.7681 48.546 18.6848C48.4871 19.1965 48.3978 19.737 48.0805 20.1233C47.6054 20.6987 46.7219 20.7234 46.1271 20.3C45.5324 19.8767 45.2094 19.1041 45.1334 18.3396C45.0593 17.5731 45.2018 16.8025 45.369 16.0545C45.4887 15.5202 45.6217 14.9859 45.8231 14.4804C46.0872 13.8167 46.4635 13.2125 46.7903 12.5796C47.6092 10.989 48.1033 9.20327 48.2249 7.38669C48.2629 6.82158 48.2667 6.24413 48.4263 5.70368C48.6562 4.93307 49.2148 4.16657 49.783 3.65283C49.7944 4.14602 49.8742 4.52619 49.764 5.01938C49.6196 5.64819 49.4276 6.26674 49.2794 6.89555Z" fill="#BA6024"/>
<path d="M48.6062 12.7214C48.629 13.3091 48.6784 13.8947 48.6784 14.4804C48.6784 16.2497 48.2432 17.9841 48.1007 19.7473C48.0931 19.8459 48.0855 19.9466 48.114 20.0411C48.1425 20.1356 48.2033 20.2158 48.2698 20.2857C48.724 20.7809 49.4384 20.9782 50.0578 20.7789C50.6279 20.5939 51.0858 20.1069 51.367 19.5397C51.6482 18.9725 51.7717 18.3293 51.842 17.6902C51.9941 16.3032 51.9086 14.8873 51.595 13.5351C51.234 11.9795 50.569 10.4917 50.4721 8.89297C50.417 7.96824 50.5538 7.04351 50.5519 6.11672C50.55 5.18994 50.3429 4.35357 49.7823 3.65283C49.7918 4.35768 49.5011 4.99677 49.3453 5.68313C49.1705 6.45579 49.0185 7.23462 48.8969 8.01962C48.6594 9.57111 48.5415 11.1473 48.6062 12.7214Z" fill="#C66C28"/>
<path opacity="0.22" d="M51.0508 5.29883C51.6436 6.1167 51.7994 7.20377 51.8716 8.23947C51.9438 9.27517 51.959 10.3458 52.3353 11.3014" stroke="#F2EDDF" stroke-width="2.0431" stroke-miterlimit="10" stroke-linecap="round" stroke-linejoin="round"/>
<path opacity="0.22" d="M53.3809 13.7756C53.911 14.3921 54.2435 15.1977 54.3442 16.032C54.4449 16.8683 54.2967 17.7746 53.7799 18.4055" stroke="#F2EDDF" stroke-width="2.0431" stroke-miterlimit="10" stroke-linecap="round" stroke-linejoin="round"/>
<path opacity="0.22" d="M54.9609 12.3105C55.1281 12.4749 55.3068 12.6291 55.4588 12.8099C55.8996 13.336 56.0915 14.0922 55.9604 14.7868" stroke="#F2EDDF" stroke-width="2.0431" stroke-miterlimit="10" stroke-linecap="round" stroke-linejoin="round"/>
<path opacity="0.22" d="M49.9141 9.1438C49.7849 10.7549 50.7634 12.2303 50.9135 13.8394" stroke="#F2EDDF" stroke-width="2.0431" stroke-miterlimit="10" stroke-linecap="round" stroke-linejoin="round"/>
<path opacity="0.22" d="M53.9824 9.02466C54.1895 9.31646 54.4347 9.57744 54.7083 9.79527C54.8546 9.9124 55.0104 10.0172 55.1472 10.1487C55.284 10.2802 55.4018 10.4426 55.4493 10.6316" stroke="#F2EDDF" stroke-width="2.0431" stroke-miterlimit="10" stroke-linecap="round" stroke-linejoin="round"/>
<path opacity="0.25" d="M34.8073 22.3862C34.469 23.1691 34.8111 24.0733 35.003 24.9117C35.2443 25.9721 35.2367 27.0776 35.3108 28.1688C35.3621 28.9394 35.4856 29.7717 36.0062 30.2998C36.3197 30.6183 36.7416 30.7827 37.0855 31.0622C37.608 31.4855 37.9405 32.1575 38.5068 32.5109C39.3124 33.0144 40.3423 32.7226 41.1745 32.2705C42.0068 31.8184 42.7972 31.2101 43.7207 31.0745C44.2983 30.9903 44.8836 31.1012 45.465 31.1423C46.0464 31.1814 46.6659 31.1382 47.1504 30.7868C47.6539 30.421 47.9237 29.7922 48.2753 29.2579C48.832 28.4113 49.6262 27.766 50.1488 26.8947C50.7302 25.9248 50.9316 24.6774 50.6067 23.578C50.3312 22.6451 49.7004 21.8642 48.9555 21.3094C48.2088 20.7525 47.348 20.4011 46.4797 20.1257C45.2636 19.7394 44.0057 19.4887 42.7402 19.4681C41.07 19.4393 39.4226 19.8113 37.817 20.2757C36.5858 20.6333 35.4001 21.0134 34.8073 22.3862Z" fill="#4F3920"/>
<path d="M44.3722 11.5564C44.6838 11.7619 44.9916 11.9777 45.2481 12.2572C46.2875 13.3833 46.2932 15.2677 47.2622 16.4657C47.8912 17.2425 48.8583 17.6432 49.4417 18.459C49.873 19.0632 50.0516 19.8687 49.9205 20.6188C49.854 21.0051 49.6906 21.3956 49.379 21.599C49.1263 21.7634 48.8146 21.7819 48.522 21.7428C47.3743 21.5887 46.43 20.6558 45.8315 19.5872C45.2329 18.5186 44.908 17.3021 44.471 16.1431C44.1822 15.3766 43.8401 14.6204 43.7223 13.8025C43.6634 13.3915 43.652 12.962 43.5076 12.5716C43.3974 12.2757 43.158 12.027 43.0668 11.727C42.8141 10.8783 44.0605 11.3509 44.3722 11.5564Z" fill="#EFA841"/>
<path d="M44.6793 12.286C45.0403 12.5244 45.293 12.9128 45.4906 13.3176C46.1519 14.6657 46.3001 16.25 46.9309 17.6145C47.2615 18.3317 47.7233 18.979 48.28 19.5072C48.9089 20.1031 49.669 20.5634 50.1459 21.3073C50.5715 21.971 50.7254 22.828 50.562 23.615C50.3986 24.4021 49.9198 25.1069 49.2738 25.5097C49.021 25.6679 48.6847 25.7748 48.4491 25.5878C48.3541 25.5138 48.2914 25.4028 48.2363 25.2919C48.1109 25.0453 48.0102 24.7863 47.9076 24.5295C47.2691 22.9143 46.6307 21.297 45.9904 19.6818C45.6483 18.8146 45.3044 17.9454 45.0365 17.0494C44.8826 16.5316 44.7534 16.0035 44.6014 15.4856C44.3468 14.6184 44.0256 13.7718 43.6456 12.9601C43.505 12.658 43.2086 12.2881 43.6038 12.0908C43.9116 11.9326 44.4114 12.1093 44.6793 12.286Z" fill="#E29734"/>
<path d="M45.5623 14.2712C46.0069 15.2247 46.2197 16.2809 46.4192 17.3248C46.6187 18.3708 46.8107 19.4291 47.2173 20.399C47.7949 21.7779 48.6975 23.0787 48.8894 24.6117C49.1364 26.5701 48.0305 28.4237 46.1646 28.6785C45.7865 28.7298 45.3761 28.6559 45.0854 28.3908C44.5628 27.914 44.597 27.0551 44.5704 26.3153C44.5324 25.2323 44.2683 24.1781 44.0574 23.1198C43.6945 21.2971 43.4836 19.4394 43.4304 17.5755C43.3943 16.2871 43.4323 14.9966 43.3753 13.7081C43.36 13.3834 43.1092 12.4196 43.4057 12.2491C43.8047 12.021 44.3386 12.6005 44.5495 12.806C44.9713 13.2149 45.3077 13.7245 45.5623 14.2712Z" fill="#D38129"/>
<path d="M42.6794 11.1351C42.212 11.0734 41.7597 11.3509 41.4044 11.6858C41.0301 12.0413 40.7166 12.4749 40.4905 12.9537C40.1655 13.6401 40.0116 14.4271 39.5746 15.0375C39.1148 15.6786 38.3889 16.0608 37.9785 16.739C37.6745 17.2404 37.5776 17.8815 37.7163 18.4631C37.7638 18.6624 37.8474 18.8679 38.0108 18.9727C38.2502 19.1268 38.5561 19.0097 38.7975 18.8576C39.3979 18.4775 39.871 17.9 40.308 17.3144C40.9883 16.402 41.7179 15.6046 42.3241 14.6347C42.7345 13.9751 44.3762 11.3591 42.6794 11.1351Z" fill="#C66C28"/>
<path d="M41.1551 12.8717C40.5489 13.5005 40.1803 14.3451 39.8231 15.1691C39.4659 15.9932 39.0935 16.8357 38.4816 17.4583C37.7159 18.2392 36.6328 18.6153 35.9583 19.4886C35.2704 20.3805 35.1469 21.7347 35.6637 22.7519C35.755 22.9307 35.8671 23.1054 36.0267 23.2163C36.2661 23.3807 36.5815 23.3787 36.8475 23.2739C37.1154 23.1691 37.3434 22.9739 37.5563 22.7704C38.9756 21.4141 39.9162 19.575 40.7276 17.7234C41.214 16.6158 41.6662 15.4897 42.1868 14.3985C42.451 13.8478 43.059 13.2786 43.3554 12.7504C43.6385 12.247 43.2585 12.0127 42.6676 12.0744C42.1013 12.134 41.5617 12.4484 41.1551 12.8717Z" fill="#9B4B16"/>
<path d="M43.4081 12.249C42.344 12.4792 41.5574 13.4142 41.031 14.4417C40.4059 15.6561 40.0962 17.0227 39.4976 18.2495C39.0625 19.1414 38.4925 19.9448 37.8597 20.6826C37.2859 21.3504 36.5544 21.9053 36.2294 22.7807C35.5872 24.511 36.3929 26.7467 37.9737 27.4845C38.3804 27.6756 38.863 27.766 39.262 27.5564C39.7827 27.281 39.9822 26.607 40.3166 26.0933C40.651 25.5754 41.1488 25.1953 41.4586 24.6589C41.7322 24.1863 41.8405 23.6273 41.9279 23.0766C42.0343 22.3923 42.1122 21.7018 42.1616 21.0093C42.2718 19.4352 42.2338 17.8365 42.5568 16.2952C42.8095 15.0828 43.2884 13.8909 43.2143 12.6497L43.4081 12.249Z" fill="#AA551B"/>
<path d="M42.9044 15.4937C42.0057 19.32 42.6175 23.3662 42.171 27.283C42.1121 27.7947 42.0228 28.3351 41.7055 28.7215C41.2304 29.2969 40.3469 29.3215 39.7521 28.8982C39.1574 28.4749 38.8344 27.7022 38.7584 26.9378C38.6843 26.1713 38.8268 25.4007 38.994 24.6526C39.1137 24.1184 39.2467 23.5841 39.4481 23.0785C39.7122 22.4148 40.0885 21.8106 40.4153 21.1777C41.2342 19.5872 41.7283 17.8014 41.8499 15.9848C41.8879 15.4197 41.8917 14.8423 42.0513 14.3018C42.2812 13.5312 42.8398 12.7647 43.408 12.251C43.4194 12.7442 43.4992 13.1243 43.389 13.6175C43.2446 14.2463 43.0526 14.8628 42.9044 15.4937Z" fill="#BA6024"/>
<path d="M42.2312 21.3176C42.254 21.9053 42.3034 22.4909 42.3034 23.0766C42.3034 24.8459 41.8682 26.5803 41.7257 28.3435C41.7181 28.4421 41.7105 28.5428 41.739 28.6373C41.7675 28.7318 41.8283 28.812 41.8948 28.8818C42.349 29.3771 43.0634 29.5744 43.6828 29.375C44.2529 29.1901 44.7108 28.7031 44.992 28.1359C45.2732 27.5687 45.3967 26.9255 45.467 26.2864C45.6191 24.8993 45.5336 23.4835 45.22 22.1313C44.859 20.5757 44.194 19.0879 44.0971 17.4892C44.042 16.5644 44.1788 15.6397 44.1769 14.7129C44.175 13.7861 43.9679 12.9498 43.4073 12.249C43.4168 12.9539 43.1261 13.593 42.9703 14.2793C42.7955 15.052 42.6435 15.8308 42.5219 16.6158C42.2844 18.1673 42.1685 19.7455 42.2312 21.3176Z" fill="#C66C28"/>
<path opacity="0.22" d="M44.6758 13.895C45.2686 14.7129 45.4244 15.8 45.4966 16.8357C45.5688 17.8714 45.584 18.942 45.9603 19.8975" stroke="#F2EDDF" stroke-width="2.0431" stroke-miterlimit="10" stroke-linecap="round" stroke-linejoin="round"/>
<path opacity="0.22" d="M47.0078 22.3718C47.5379 22.9883 47.8705 23.7939 47.9712 24.6282C48.0719 25.4645 47.9237 26.3708 47.4068 27.0016" stroke="#F2EDDF" stroke-width="2.0431" stroke-miterlimit="10" stroke-linecap="round" stroke-linejoin="round"/>
<path opacity="0.22" d="M48.5859 20.9087C48.7531 21.0731 48.9318 21.2272 49.0838 21.408C49.5246 21.9341 49.7165 22.6903 49.5854 23.3849" stroke="#F2EDDF" stroke-width="2.0431" stroke-miterlimit="10" stroke-linecap="round" stroke-linejoin="round"/>
<path opacity="0.22" d="M43.5391 17.7419C43.4099 19.353 44.3884 20.8285 44.5385 22.4375" stroke="#F2EDDF" stroke-width="2.0431" stroke-miterlimit="10" stroke-linecap="round" stroke-linejoin="round"/>
<path opacity="0.22" d="M47.6094 17.6206C47.8165 17.9124 48.0616 18.1734 48.3352 18.3912C48.4815 18.5083 48.6373 18.6132 48.7741 18.7447C48.911 18.8762 49.0288 19.0385 49.0763 19.2276" stroke="#F2EDDF" stroke-width="2.0431" stroke-miterlimit="10" stroke-linecap="round" stroke-linejoin="round"/>
<path opacity="0.25" d="M20.4725 23.7422C20.2331 24.2703 20.1685 24.9053 20.3699 25.6635C20.5314 26.2697 20.7955 26.8431 20.9095 27.4616C21.0368 28.1521 20.9817 28.9063 21.3199 29.5084C21.6031 30.0139 22.1104 30.3119 22.5265 30.6961C23.1269 31.251 23.5526 32.0113 24.191 32.5168C25.1088 33.2422 26.3343 33.3326 27.463 33.1785C28.5917 33.0244 29.6899 32.6524 30.8224 32.5559C31.5178 32.4963 32.2722 32.525 32.8441 32.0914C33.1747 31.8407 33.4028 31.4647 33.6213 31.0968C34.2502 30.0427 35.1528 29.2885 35.8121 28.2548C36.3935 27.2849 36.595 26.0375 36.27 24.9381C35.9945 24.0052 35.3637 23.2243 34.6188 22.6695C33.8721 22.1126 33.0113 21.7612 32.143 21.4858C30.9269 21.0995 29.669 20.8488 28.4036 20.8282C26.7334 20.7995 25.086 21.1714 23.4804 21.6358C22.2757 21.9811 20.9817 22.6222 20.4725 23.7422Z" fill="#4F3920"/>
<path d="M30.0358 12.9104C30.3474 13.1159 30.6552 13.3317 30.9117 13.6112C31.9511 14.7373 31.9568 16.6217 32.9259 17.8197C33.5548 18.5965 34.522 18.9972 35.1053 19.813C35.5366 20.4172 35.7152 21.2227 35.5841 21.9728C35.5176 22.3591 35.3542 22.7496 35.0426 22.953C34.7899 23.1174 34.4783 23.1359 34.1856 23.0969C33.038 22.9427 32.0936 22.0098 31.4951 20.9412C30.8965 19.8726 30.5716 18.6561 30.1346 17.4971C29.8458 16.7306 29.5038 15.9744 29.386 15.1565C29.3271 14.7455 29.3157 14.316 29.1712 13.9256C29.061 13.6297 28.8216 13.381 28.7304 13.081C28.4796 12.2323 29.7242 12.7049 30.0358 12.9104Z" fill="#EFA841"/>
<path d="M30.3433 13.6422C30.7044 13.8806 30.9571 14.269 31.1547 14.6738C31.8159 16.0219 31.9641 17.6062 32.595 18.9707C32.9256 19.6879 33.3873 20.3352 33.9441 20.8634C34.573 21.4593 35.333 21.9196 35.81 22.6635C36.2356 23.3273 36.3895 24.1842 36.2261 24.9712C36.0627 25.7583 35.5839 26.4631 34.9378 26.8659C34.6851 27.0241 34.3488 27.131 34.1132 26.944C34.0182 26.87 33.9555 26.759 33.9004 26.6481C33.7749 26.4015 33.6742 26.1425 33.5716 25.8857C32.9332 24.2705 32.2948 22.6532 31.6544 21.038C31.3124 20.1708 30.9685 19.3016 30.7006 18.4056C30.5467 17.8878 30.4174 17.3597 30.2654 16.8418C30.0108 15.9746 29.6897 15.128 29.3097 14.3163C29.1691 14.0142 28.8727 13.6443 29.2679 13.447C29.5757 13.2888 30.0754 13.4655 30.3433 13.6422Z" fill="#E29734"/>
<path d="M31.2263 15.6271C31.671 16.5806 31.8838 17.6369 32.0833 18.6808C32.2828 19.7268 32.4747 20.7851 32.8813 21.7571C33.459 23.1359 34.3615 24.4367 34.5534 25.9677C34.8005 27.926 33.6946 29.7796 31.8287 30.0344C31.4506 30.0858 31.0401 30.0118 30.7494 29.7467C30.2269 29.27 30.2611 28.411 30.2345 27.6712C30.1965 26.5883 29.9324 25.5341 29.7215 24.4758C29.3585 22.653 29.1476 20.7953 29.0944 18.9315C29.0583 17.643 29.0963 16.3525 29.0393 15.0641C29.0241 14.7394 28.7733 13.7756 29.0697 13.605C29.4687 13.3769 30.0027 13.9564 30.2136 14.1619C30.6354 14.5709 30.9717 15.0805 31.2263 15.6271Z" fill="#D38129"/>
<path d="M28.3454 12.4913C27.878 12.4296 27.4257 12.7071 27.0704 13.042C26.6961 13.3975 26.3826 13.8311 26.1565 14.3099C25.8315 14.9963 25.6776 15.7833 25.2406 16.3937C24.7808 17.0348 24.0549 17.417 23.6445 18.0952C23.3405 18.5966 23.2436 19.2377 23.3823 19.8193C23.4298 20.0186 23.5134 20.2241 23.6768 20.3289C23.9162 20.483 24.2222 20.3659 24.4635 20.2138C25.0639 19.8337 25.537 19.2562 25.9741 18.6706C26.6543 17.7582 27.3839 16.9608 27.9901 15.9909C28.4005 15.3312 30.0422 12.7132 28.3454 12.4913Z" fill="#C66C28"/>
<path d="M26.8191 14.2258C26.213 14.8567 25.8444 15.6992 25.4872 16.5233C25.1299 17.3473 24.7575 18.1898 24.1457 18.8146C23.3799 19.5954 22.2969 19.9715 21.6223 20.8448C20.9345 21.7367 20.811 23.0909 21.3278 24.1081C21.419 24.2869 21.5311 24.4616 21.6907 24.5725C21.9301 24.7369 22.2456 24.7349 22.5116 24.6301C22.7795 24.5253 23.0075 24.3301 23.2203 24.1266C24.6397 22.7703 25.5803 20.9312 26.3916 19.0796C26.878 17.972 27.3303 16.8459 27.8509 15.7547C28.115 15.204 28.7231 14.6348 29.0195 14.1066C29.3026 13.6032 28.9226 13.3689 28.3316 13.4306C27.7673 13.4902 27.2277 13.8025 26.8191 14.2258Z" fill="#9B4B16"/>
<path d="M29.0724 13.603C28.0083 13.8332 27.2217 14.7682 26.6953 15.7957C26.0702 17.0101 25.7605 18.3767 25.1619 19.6035C24.7268 20.4954 24.1568 21.2988 23.524 22.0345C22.9502 22.7024 22.2187 23.2572 21.8937 24.1326C21.2515 25.8629 22.0553 28.0987 23.638 28.8364C24.0447 29.0275 24.5273 29.118 24.9263 28.9084C25.447 28.633 25.6465 27.959 25.9809 27.4452C26.3153 26.9274 26.8131 26.5472 27.1229 26.0109C27.3965 25.5382 27.5048 24.9793 27.5922 24.4285C27.6986 23.7442 27.7765 23.0538 27.8259 22.3613C27.9361 20.7872 27.8981 19.1884 28.2211 17.6472C28.4738 16.4348 28.9527 15.2429 28.8786 14.0017L29.0724 13.603Z" fill="#AA551B"/>
<path d="M28.5685 16.8479C27.6697 20.6743 28.2816 24.7205 27.8351 28.6372C27.7761 29.1489 27.6868 29.6894 27.3695 30.0757C26.8945 30.6511 26.0109 30.6758 25.4162 30.2524C24.8215 29.8291 24.4985 29.0565 24.4224 28.292C24.3483 27.5255 24.4908 26.7549 24.6581 26.0069C24.7778 25.4726 24.9108 24.9383 25.1122 24.4328C25.3763 23.769 25.7525 23.1649 26.0793 22.532C26.8983 20.9414 27.3923 19.1557 27.5139 17.3391C27.5519 16.774 27.5557 16.1965 27.7153 15.6561C27.9453 14.8855 28.5039 14.119 29.072 13.6052C29.0834 14.0984 29.1632 14.4786 29.053 14.9718C28.9086 15.6006 28.7167 16.2191 28.5685 16.8479Z" fill="#BA6024"/>
<path d="M27.8972 22.6738C27.92 23.2594 27.9694 23.8471 27.9694 24.4328C27.9694 26.2021 27.5342 27.9365 27.3917 29.6997C27.3841 29.7983 27.3765 29.899 27.405 29.9935C27.4335 30.088 27.4943 30.1682 27.5608 30.2381C28.015 30.7333 28.7294 30.9306 29.3489 30.7312C29.9189 30.5463 30.3768 30.0593 30.658 29.4921C30.9393 28.9249 31.0628 28.2817 31.1331 27.6426C31.2851 26.2555 31.1996 24.8397 30.886 23.4875C30.525 21.9319 29.86 20.4441 29.7631 18.8454C29.708 17.9206 29.8448 16.9959 29.8429 16.0691C29.841 15.1423 29.6339 14.306 29.0733 13.6052C29.0828 14.3101 28.7921 14.9492 28.6363 15.6355C28.4615 16.4082 28.3095 17.187 28.1879 17.972C27.9504 19.5235 27.8326 21.0997 27.8972 22.6738Z" fill="#C66C28"/>
<path opacity="0.22" d="M30.3418 15.2512C30.9346 16.0691 31.0904 17.1562 31.1626 18.1919C31.2349 19.2276 31.2501 20.2982 31.6263 21.2538" stroke="#F2EDDF" stroke-width="2.0431" stroke-miterlimit="10" stroke-linecap="round" stroke-linejoin="round"/>
<path opacity="0.22" d="M32.6719 23.7258C33.202 24.3423 33.5345 25.1479 33.6352 25.9822C33.7359 26.8185 33.5877 27.7248 33.0709 28.3556" stroke="#F2EDDF" stroke-width="2.0431" stroke-miterlimit="10" stroke-linecap="round" stroke-linejoin="round"/>
<path opacity="0.22" d="M34.25 22.2627C34.4172 22.4271 34.5958 22.5812 34.7478 22.762C35.1887 23.2881 35.3806 24.0443 35.2495 24.7389" stroke="#F2EDDF" stroke-width="2.0431" stroke-miterlimit="10" stroke-linecap="round" stroke-linejoin="round"/>
<path opacity="0.22" d="M29.2031 19.0959C29.0739 20.705 30.0525 22.1825 30.2026 23.7915" stroke="#F2EDDF" stroke-width="2.0431" stroke-miterlimit="10" stroke-linecap="round" stroke-linejoin="round"/>
<path opacity="0.22" d="M33.2734 18.9746C33.4805 19.2664 33.7257 19.5274 33.9993 19.7452C34.1456 19.8624 34.3014 19.9672 34.4382 20.0987C34.575 20.2302 34.6928 20.3925 34.7403 20.5816" stroke="#F2EDDF" stroke-width="2.0431" stroke-miterlimit="10" stroke-linecap="round" stroke-linejoin="round"/>
<path opacity="0.12" d="M34.7574 32.6915C34.5047 33.5854 35.0424 34.3847 35.2799 35.1985C35.5669 36.1767 35.7227 37.2226 35.9431 38.2213C35.9906 38.4351 36.0419 38.657 36.1806 38.8173C36.3649 39.0289 36.6556 39.0742 36.9235 39.105C40.4996 39.5242 44.1117 39.6043 47.701 39.3475C47.8188 39.3392 47.9442 39.3269 48.0411 39.257C48.1304 39.1913 48.1855 39.0844 48.2368 38.9796C48.5902 38.2686 48.9114 37.5247 49.3199 36.8507C49.584 36.415 50.5702 35.3752 50.5322 34.8389C50.9825 33.7909 51.0205 32.525 50.5569 31.4852C50.1635 30.6016 49.4377 29.9255 48.6283 29.4878C47.8169 29.0501 46.92 28.8322 46.0232 28.6905C44.7691 28.4911 43.4922 28.4336 42.2344 28.6041C40.5775 28.8281 38.9947 29.4446 37.4651 30.1495C36.2908 30.6838 35.1659 31.2407 34.7574 32.6915Z" fill="#4F3920"/>
<path d="M44.2921 21.1304C44.6037 21.3359 44.9115 21.5517 45.168 21.8311C46.2074 22.9573 46.2131 24.8417 47.1822 26.0397C47.8111 26.8165 48.7783 27.2172 49.3616 28.033C49.7929 28.6372 49.9715 29.4427 49.8404 30.1928C49.7739 30.5791 49.6105 30.9695 49.2989 31.173C49.0462 31.3374 48.7345 31.3559 48.4419 31.3168C47.2943 31.1627 46.3499 30.2298 45.7514 29.1612C45.1528 28.0926 44.8279 26.8761 44.3909 25.7171C44.1021 24.9506 43.7601 24.1943 43.6422 23.3765C43.5833 22.9655 43.5719 22.536 43.4275 22.1455C43.3173 21.8496 43.0779 21.601 42.9867 21.301C42.734 20.4523 43.9805 20.9249 44.2921 21.1304Z" fill="#EFA841"/>
<path d="M44.5973 21.86C44.9583 22.0984 45.211 22.4868 45.4086 22.8916C46.0698 24.2396 46.218 25.824 46.8489 27.1885C47.1795 27.9057 47.6412 28.553 48.198 29.0811C48.8269 29.6771 49.5869 30.1374 50.0639 30.8813C50.4895 31.545 50.6434 32.4019 50.48 33.189C50.3166 33.976 49.8378 34.6809 49.1917 35.0837C48.939 35.2419 48.6027 35.3487 48.3671 35.1617C48.2721 35.0878 48.2094 34.9768 48.1543 34.8658C48.0289 34.6192 47.9282 34.3603 47.8255 34.1034C47.1871 32.4882 46.5487 30.871 45.9083 29.2558C45.5663 28.3886 45.2224 27.5194 44.9545 26.6234C44.8006 26.1056 44.6714 25.5774 44.5193 25.0596C44.2647 24.1924 43.9436 23.3457 43.5636 22.534C43.423 22.232 43.1266 21.8621 43.5218 21.6648C43.8296 21.5066 44.3293 21.6833 44.5973 21.86Z" fill="#E29734"/>
<path d="M45.4842 23.845C45.9288 24.7985 46.1416 25.8547 46.3411 26.8987C46.5406 27.9446 46.7325 29.0029 47.1392 29.9729C47.7168 31.3518 48.6193 32.6525 48.8113 34.1835C49.0583 36.1419 47.9524 37.9954 46.0865 38.2502C45.7084 38.3016 45.2979 38.2276 45.0072 37.9626C44.4847 37.4858 44.5189 36.6268 44.4923 35.887C44.4543 34.8041 44.1902 33.7499 43.9793 32.6916C43.6163 30.8688 43.4054 29.0112 43.3522 27.1473C43.3161 25.8589 43.3541 24.5683 43.2971 23.2799C43.2819 22.9552 43.0311 21.9914 43.3275 21.8209C43.7266 21.5928 44.2605 22.1723 44.4714 22.3778C44.8932 22.7887 45.2295 23.2984 45.4842 23.845Z" fill="#D38129"/>
<path d="M42.5993 20.7091C42.1319 20.6474 41.6797 20.9248 41.3243 21.2598C40.95 21.6153 40.6365 22.0489 40.4104 22.5277C40.0855 23.2141 39.9315 24.0011 39.4945 24.6114C39.0347 25.2526 38.3089 25.6348 37.8984 26.3129C37.5944 26.8143 37.4975 27.4555 37.6362 28.0371C37.6837 28.2364 37.7673 28.4419 37.9307 28.5467C38.1701 28.7008 38.4761 28.5837 38.7174 28.4316C39.3178 28.0514 39.7909 27.474 40.228 26.8883C40.9082 25.9759 41.6378 25.1786 42.244 24.2087C42.6544 23.549 44.2961 20.9331 42.5993 20.7091Z" fill="#C66C28"/>
<path d="M41.075 22.4457C40.4689 23.0745 40.1002 23.9191 39.743 24.7431C39.3858 25.5671 39.0134 26.4097 38.4015 27.0323C37.6358 27.8132 36.5527 28.1893 35.8782 29.0626C35.1903 29.9545 35.0668 31.3087 35.5837 32.3259C35.6749 32.5047 35.787 32.6794 35.9466 32.7903C36.186 32.9547 36.5014 32.9527 36.7674 32.8479C37.0354 32.7431 37.2634 32.5478 37.4762 32.3444C38.8956 30.9881 39.8361 29.1489 40.6475 27.2974C41.1339 26.1898 41.5861 25.0637 42.1068 23.9725C42.3709 23.4218 42.9789 22.8525 43.2753 22.3244C43.5584 21.821 43.1784 21.5867 42.5875 21.6483C42.0232 21.7079 41.4835 22.0203 41.075 22.4457Z" fill="#9B4B16"/>
<path d="M43.3263 21.8208C42.2622 22.051 41.4756 22.986 40.9492 24.0134C40.326 25.2279 40.0144 26.5945 39.4158 27.8213C38.9807 28.7131 38.4107 29.5166 37.7779 30.2523C37.2041 30.9202 36.4726 31.475 36.1477 32.3504C35.5054 34.0807 36.3092 36.3165 37.892 37.0542C38.2986 37.2453 38.7812 37.3357 39.1802 37.1261C39.7009 36.8508 39.9004 36.1767 40.2348 35.663C40.5692 35.1451 41.067 34.765 41.3768 34.2286C41.6504 33.756 41.7587 33.197 41.8461 32.6463C41.9525 31.962 42.0304 31.2716 42.0798 30.579C42.19 29.0049 42.152 27.4062 42.475 25.865C42.7277 24.6525 43.2066 23.4607 43.1325 22.2195L43.3263 21.8208Z" fill="#AA551B"/>
<path d="M42.8244 25.0677C41.9256 28.894 42.5374 32.9402 42.0909 36.857C42.032 37.3687 41.9427 37.9091 41.6254 38.2954C41.1504 38.8708 40.2668 38.8955 39.6721 38.4722C39.0773 38.0488 38.7543 37.2762 38.6783 36.5117C38.6042 35.7452 38.7467 34.9746 38.9139 34.2266C39.0336 33.6923 39.1666 33.158 39.368 32.6525C39.6322 31.9888 40.0084 31.3846 40.3352 30.7517C41.1542 29.1612 41.6482 27.3754 41.7698 25.5588C41.8078 24.9937 41.8116 24.4163 41.9712 23.8758C42.2011 23.1052 42.7597 22.3387 43.3279 21.825C43.3393 22.3181 43.4191 22.6983 43.3089 23.1915C43.1645 23.8203 42.9726 24.4368 42.8244 25.0677Z" fill="#BA6024"/>
<path d="M42.1511 30.8915C42.1739 31.4792 42.2233 32.0649 42.2233 32.6506C42.2233 34.4199 41.7882 36.1543 41.6456 37.9174C41.638 38.0161 41.6304 38.1168 41.6589 38.2113C41.6874 38.3058 41.7483 38.386 41.8148 38.4558C42.2689 38.9511 42.9833 39.1483 43.6028 38.949C44.1728 38.7641 44.6307 38.277 44.9119 37.7099C45.1932 37.1427 45.3167 36.4995 45.387 35.8604C45.539 34.4733 45.4535 33.0575 45.14 31.7053C44.7789 30.1497 44.1139 28.6619 44.017 27.0631C43.9619 26.1384 44.0987 25.2137 44.0968 24.2869C44.0949 23.3601 43.8878 22.5237 43.3291 21.823C43.3386 22.5278 43.0479 23.1669 42.8921 23.8533C42.7173 24.626 42.5653 25.4048 42.4437 26.1898C42.2043 27.7413 42.0884 29.3195 42.1511 30.8915Z" fill="#C66C28"/>
<path opacity="0.22" d="M44.5957 23.469C45.1885 24.2869 45.3443 25.3739 45.4166 26.4096C45.4888 27.4453 45.504 28.516 45.8802 29.4715" stroke="#F2EDDF" stroke-width="2.0431" stroke-miterlimit="10" stroke-linecap="round" stroke-linejoin="round"/>
<path opacity="0.22" d="M46.9277 31.9458C47.4579 32.5623 47.7904 33.3678 47.8911 34.2021C47.9918 35.0385 47.8436 35.9447 47.3268 36.5756" stroke="#F2EDDF" stroke-width="2.0431" stroke-miterlimit="10" stroke-linecap="round" stroke-linejoin="round"/>
<path opacity="0.22" d="M48.5059 30.4824C48.6731 30.6468 48.8517 30.8009 49.0037 30.9818C49.4445 31.5078 49.6364 32.2641 49.5053 32.9586" stroke="#F2EDDF" stroke-width="2.0431" stroke-miterlimit="10" stroke-linecap="round" stroke-linejoin="round"/>
<path opacity="0.22" d="M43.4609 27.3159C43.3317 28.927 44.3103 30.4025 44.4604 32.0115" stroke="#F2EDDF" stroke-width="2.0431" stroke-miterlimit="10" stroke-linecap="round" stroke-linejoin="round"/>
<path opacity="0.22" d="M47.5293 27.1946C47.7364 27.4864 47.9815 27.7474 48.2551 27.9652C48.4015 28.0823 48.5573 28.1871 48.6941 28.3186C48.8309 28.4502 48.9487 28.6125 48.9962 28.8016" stroke="#F2EDDF" stroke-width="2.0431" stroke-miterlimit="10" stroke-linecap="round" stroke-linejoin="round"/>
<path opacity="0.12" d="M49.7408 24.8006C49.4026 25.5835 49.7446 26.4877 49.9366 27.3261C50.1779 28.3865 50.1703 29.492 50.2444 30.5832C50.2957 31.3538 50.4192 32.1861 50.9398 32.7142C51.2533 33.0327 51.6752 33.1971 52.0191 33.4766C52.5416 33.8999 52.8741 34.5719 53.4404 34.9253C54.246 35.4288 55.2759 35.137 56.1081 34.6849C56.9404 34.2328 57.7308 33.6246 58.6543 33.4889C59.2319 33.4047 59.8172 33.5156 60.3986 33.5567C60.98 33.5958 61.5995 33.5526 62.084 33.2012C62.5875 32.8355 62.8573 32.2066 63.2108 31.6723C63.7675 30.8257 64.5617 30.1804 65.0843 29.3091C65.6657 28.3392 65.8671 27.0918 65.5422 25.9924C65.2667 25.0595 64.6358 24.2786 63.891 23.7238C63.1443 23.1669 62.2835 22.8155 61.4152 22.5401C60.1991 22.1538 58.9412 21.9031 57.6757 21.8805C56.0055 21.8517 54.3581 22.2236 52.7525 22.6881C51.5194 23.0456 50.3337 23.4258 49.7408 24.8006Z" fill="#4F3920"/>
<path d="M59.3058 13.9688C59.6174 14.1743 59.9252 14.39 60.1817 14.6695C61.2211 15.7956 61.2268 17.68 62.1958 18.8781C62.8248 19.6548 63.7919 20.0556 64.3753 20.8714C64.8066 21.4755 64.9852 22.2811 64.8541 23.0311C64.7876 23.4175 64.6242 23.8079 64.3126 24.0114C64.0598 24.1758 63.7482 24.1942 63.4556 24.1552C62.3079 24.0011 61.3636 23.0681 60.765 21.9995C60.1665 20.931 59.8416 19.7144 59.4046 18.5554C59.1157 17.7889 58.7737 17.0327 58.6559 16.2148C58.597 15.8038 58.5856 15.3744 58.4412 14.9839C58.331 14.688 58.0916 14.4394 58.0004 14.1393C57.7477 13.2906 58.9941 13.7633 59.3058 13.9688Z" fill="#EFA841"/>
<path d="M59.6129 14.7003C59.9739 14.9387 60.2266 15.3271 60.4242 15.7319C61.0855 17.08 61.2337 18.6644 61.8645 20.0288C62.1951 20.746 62.6569 21.3933 63.2136 21.9215C63.8425 22.5174 64.6026 22.9777 65.0795 23.7216C65.5051 24.3854 65.659 25.2423 65.4956 26.0293C65.3322 26.8164 64.8534 27.5212 64.2074 27.924C63.9546 28.0822 63.6183 28.1891 63.3827 28.0021C63.2877 27.9281 63.225 27.8171 63.1699 27.7062C63.0445 27.4596 62.9438 27.2006 62.8412 26.9438C62.2027 25.3286 61.5643 23.7113 60.924 22.0961C60.5819 21.2289 60.238 20.3597 59.9701 19.4637C59.8162 18.9459 59.687 18.4178 59.535 17.8999C59.2804 17.0327 58.9592 16.1861 58.5792 15.3744C58.4386 15.0723 58.1422 14.7024 58.5374 14.5051C58.8452 14.3469 59.345 14.5236 59.6129 14.7003Z" fill="#E29734"/>
<path d="M60.4959 16.6855C60.9405 17.639 61.1533 18.6953 61.3528 19.7392C61.5523 20.7851 61.7442 21.8434 62.1509 22.8154C62.7285 24.1943 63.6311 25.4951 63.823 27.026C64.07 28.9844 62.9641 30.838 61.0982 31.0928C60.7201 31.1442 60.3097 31.0702 60.019 30.8051C59.4964 30.3284 59.5306 29.4694 59.504 28.7296C59.466 27.6466 59.2019 26.5925 58.991 25.5341C58.6281 23.7114 58.4172 21.8537 58.3639 19.9899C58.3278 18.7014 58.3659 17.4109 58.3088 16.1224C58.2936 15.7978 58.0428 14.834 58.3392 14.6634C58.7383 14.4374 59.2722 15.0148 59.4831 15.2203C59.9049 15.6293 60.2413 16.1389 60.4959 16.6855Z" fill="#D38129"/>
<path d="M57.613 13.5496C57.1456 13.488 56.6933 13.7654 56.338 14.1004C55.9637 14.4559 55.6502 14.8895 55.424 15.3683C55.0991 16.0546 54.9452 16.8417 54.5082 17.452C54.0484 18.0932 53.3225 18.4754 52.9121 19.1535C52.6081 19.6549 52.5112 20.2961 52.6499 20.8776C52.6974 21.077 52.781 21.2825 52.9444 21.3873C53.1838 21.5414 53.4897 21.4242 53.731 21.2722C54.3315 20.892 54.8046 20.3146 55.2416 19.7289C55.9219 18.8165 56.6515 18.0192 57.2577 17.0492C57.6681 16.3896 59.3098 13.7716 57.613 13.5496Z" fill="#C66C28"/>
<path d="M56.0887 15.284C55.4825 15.9129 55.1139 16.7574 54.7567 17.5815C54.3995 18.4055 54.0271 19.2481 53.4152 19.8707C52.6495 20.6516 51.5664 21.0276 50.8919 21.901C50.204 22.7929 50.0805 24.1471 50.5973 25.1643C50.6885 25.3431 50.8007 25.5177 50.9603 25.6287C51.1997 25.7931 51.5151 25.791 51.7811 25.6862C52.049 25.5814 52.277 25.3862 52.4899 25.1828C53.9092 23.8265 54.8498 21.9873 55.6611 20.1358C56.1476 19.0282 56.5998 17.9021 57.1204 16.8109C57.3846 16.2601 57.9926 15.6909 58.289 15.1628C58.5721 14.6593 58.1921 14.4251 57.6012 14.4867C57.0349 14.5484 56.4953 14.8607 56.0887 15.284Z" fill="#9B4B16"/>
<path d="M58.3417 14.6614C57.2776 14.8915 56.491 15.8265 55.9646 16.854C55.3395 18.0685 55.0298 19.435 54.4312 20.6619C53.9961 21.5537 53.4261 22.3572 52.7933 23.0929C52.2195 23.7607 51.488 24.3156 51.163 25.191C50.5208 26.9213 51.3264 29.157 52.9073 29.8948C53.314 30.0859 53.7966 30.1763 54.1956 29.9667C54.7162 29.6913 54.9177 29.0173 55.2502 28.5036C55.5846 27.9857 56.0824 27.6056 56.3921 27.0692C56.6658 26.5966 56.7741 26.0376 56.8615 25.4869C56.9679 24.8026 57.0458 24.1121 57.0952 23.4196C57.2054 21.8455 57.1674 20.2468 57.4904 18.7055C57.7431 17.4931 58.222 16.3012 58.1479 15.06L58.3417 14.6614Z" fill="#AA551B"/>
<path d="M57.838 17.9063C56.9393 21.7326 57.5511 25.7788 57.1046 29.6956C57.0457 30.2073 56.9564 30.7477 56.6391 31.1341C56.164 31.7094 55.2805 31.7341 54.6857 31.3108C54.091 30.8875 53.768 30.1148 53.692 29.3504C53.6179 28.5839 53.7604 27.8132 53.9276 27.0652C54.0473 26.531 54.1803 25.9967 54.3817 25.4911C54.6458 24.8274 55.0221 24.2232 55.3489 23.5903C56.1678 21.9998 56.6619 20.214 56.7835 18.3974C56.8215 17.8323 56.8253 17.2549 56.9849 16.7144C57.2148 15.9438 57.7734 15.1773 58.3416 14.6636C58.353 15.1568 58.4328 15.5369 58.3226 16.0301C58.1781 16.6589 57.9862 17.2775 57.838 17.9063Z" fill="#BA6024"/>
<path d="M57.1647 23.7321C57.1876 24.3198 57.237 24.9055 57.237 25.4911C57.237 27.2605 56.8018 28.9948 56.6593 30.758C56.6517 30.8566 56.6441 30.9573 56.6726 31.0519C56.7011 31.1464 56.7619 31.2265 56.8284 31.2964C57.2826 31.7916 57.997 31.9889 58.6164 31.7896C59.1865 31.6046 59.6444 31.1176 59.9256 30.5505C60.2068 29.9833 60.3303 29.3401 60.4006 28.701C60.5527 27.3139 60.4671 25.898 60.1536 24.5459C59.7926 22.9903 59.1276 21.5025 59.0307 19.9037C58.9756 18.979 59.1124 18.0543 59.1105 17.1275C59.1086 16.2007 58.9015 15.3643 58.3409 14.6636C58.3504 15.3684 58.0597 16.0075 57.9039 16.6939C57.7291 17.4665 57.5771 18.2454 57.4555 19.0304C57.218 20.5819 57.102 22.158 57.1647 23.7321Z" fill="#C66C28"/>
<path opacity="0.22" d="M59.6094 16.3096C60.2022 17.1274 60.358 18.2145 60.4302 19.2502C60.5024 20.2859 60.5176 21.3565 60.8939 22.3121" stroke="#F2EDDF" stroke-width="2.0431" stroke-miterlimit="10" stroke-linecap="round" stroke-linejoin="round"/>
<path opacity="0.22" d="M61.9414 24.7842C62.4715 25.4007 62.8041 26.2062 62.9048 27.0405C63.0055 27.8769 62.8573 28.7831 62.3404 29.414" stroke="#F2EDDF" stroke-width="2.0431" stroke-miterlimit="10" stroke-linecap="round" stroke-linejoin="round"/>
<path opacity="0.22" d="M63.5195 23.321C63.6867 23.4854 63.8654 23.6396 64.0174 23.8204C64.4582 24.3465 64.6501 25.1027 64.519 25.7973" stroke="#F2EDDF" stroke-width="2.0431" stroke-miterlimit="10" stroke-linecap="round" stroke-linejoin="round"/>
<path opacity="0.22" d="M58.4746 20.1543C58.3454 21.7654 59.324 23.2408 59.4741 24.8499" stroke="#F2EDDF" stroke-width="2.0431" stroke-miterlimit="10" stroke-linecap="round" stroke-linejoin="round"/>
<path opacity="0.22" d="M62.543 20.033C62.7501 20.3248 62.9952 20.5857 63.2688 20.8036C63.4151 20.9207 63.5709 21.0255 63.7077 21.157C63.8445 21.2885 63.9624 21.4509 64.0099 21.6399" stroke="#F2EDDF" stroke-width="2.0431" stroke-miterlimit="10" stroke-linecap="round" stroke-linejoin="round"/>
</svg>
