<svg width="85" height="60" viewBox="0 0 85 60" fill="none" xmlns="http://www.w3.org/2000/svg">
<path d="M21.1945 0.0903606C22.5644 -0.0301202 22.5644 -0.0301202 24.1169 0.0903606C25.0302 1.05421 25.0302 1.05421 25.5781 2.01805C25.8594 1.85902 26.1407 1.69998 26.4305 1.53613C27.5264 1.05421 27.5264 1.05421 29.4746 1.05421C30.8163 3.9086 31.6683 6.81204 32.4883 9.84931C32.6211 10.3277 32.7539 10.806 32.8907 11.2988C33.8582 14.84 33.8582 14.84 33.8582 16.4758C34.8226 16.7143 34.8226 16.7143 35.8065 16.9577C35.3243 17.1962 35.3243 17.1962 34.8323 17.4396C34.8323 17.9167 34.8323 18.3938 34.8323 18.8854C35.1538 19.0444 35.4753 19.2034 35.8065 19.3673C36.0476 18.8902 36.0476 18.8902 36.2935 18.4034C36.3356 18.7414 36.3777 19.0793 36.421 19.4275C37.0835 23.8537 38.7636 26.5833 41.6512 29.9696C41.1691 30.2082 41.1691 30.2082 40.6771 30.4515C46.1335 34.1891 51.4271 35.1393 57.9287 35.1196C59.0699 35.1202 60.2081 35.1492 61.3488 35.1795C65.9099 35.278 65.9099 35.278 69.8515 33.2151C74.0364 28.7862 74.8476 23.7441 75.2587 17.9215C77.5152 19.6757 78.5453 21.9527 79.1552 24.6684C79.2404 26.012 79.2033 27.3312 79.1248 28.6744C79.1065 29.0029 79.0881 29.3314 79.0693 29.6698C78.8872 31.7593 78.3177 33.0387 77.207 34.7888C77.0547 35.9423 77.0547 35.9423 77.0852 37.1081C76.8885 39.58 76.1003 40.8504 74.3474 42.5919C65.8703 49.7175 53.2451 50.7862 42.5883 50.7551C41.525 50.7525 40.4618 50.7551 39.3986 50.7582C38.7162 50.7579 38.0338 50.7573 37.3514 50.7563C36.7391 50.7558 36.1267 50.7552 35.4959 50.7547C34.0718 50.7004 32.8049 50.5381 31.4229 50.2104C31.2622 51.0056 31.1014 51.8007 30.9358 52.62C28.0204 52.4771 26.806 51.2725 24.9084 49.2767C24.51 48.8783 24.51 48.8783 24.1036 48.4719C22.1687 46.4974 22.1687 46.4974 22.1687 45.3911C21.878 45.3371 21.5873 45.2831 21.2878 45.2274C14.1467 43.6211 6.66417 39.6134 2.38164 33.6141C1.71193 32.3792 1.71193 32.3792 1.71193 31.4154C1.39047 31.4154 1.06901 31.4154 0.737801 31.4154C-0.493094 28.9796 0.0284271 25.4678 0.768243 22.9215C2.35545 18.8192 5.38384 15.9658 9.0179 13.5842C7.81002 18.1257 4.91717 21.7913 1.71193 25.1504C2.02335 24.8323 2.33476 24.5142 2.65562 24.1865C4.65139 22.8969 6.20637 22.8685 8.53084 23.2227C10.7424 24.2256 10.7424 24.2256 11.4532 25.6323C13.1409 25.3937 13.1409 25.3937 14.8627 25.1504C15.0234 24.3552 15.1841 23.56 15.3497 22.7408C16.4761 22.4396 16.4761 22.4396 17.7851 22.2588C18.2673 22.5769 18.7495 22.895 19.2463 23.2227C19.5677 23.2227 19.8892 23.2227 20.2204 23.2227C20.3811 23.5407 20.5419 23.8588 20.7075 24.1865C21.8382 24.3828 22.9757 24.5453 24.1169 24.6684C24.1169 24.8275 24.1169 24.9865 24.1169 25.1504C22.9918 25.4684 21.8667 25.7865 20.7075 26.1142C20.7075 26.9094 20.7075 27.7046 20.7075 28.5238C21.9933 28.6829 23.2792 28.8419 24.604 29.0058C24.9082 27.3503 25.091 25.8778 25.091 24.1865C25.9399 25.2936 26.7466 26.4027 27.5264 27.56C28.7746 27.9116 28.7746 27.9116 29.9617 28.0419C29.278 29.3948 28.448 29.4718 27.0393 29.9696C26.5571 30.1286 26.0749 30.2877 25.5781 30.4515C25.9133 31.9512 25.9133 31.9512 27.0926 32.5486C27.517 32.7512 27.9414 32.9537 28.3787 33.1623C28.7981 33.3673 29.2175 33.5724 29.6497 33.7836C31.2087 34.418 32.6564 34.7888 34.3453 34.7888C33.6148 32.9818 32.9521 31.5114 31.8186 29.9094C30.8907 28.4531 30.7362 27.7932 30.9358 26.1142C31.5787 25.9552 32.2217 25.7961 32.8841 25.6323C33.0448 24.6781 33.2055 23.7239 33.3711 22.7408C33.6926 22.7408 34.0141 22.7408 34.3453 22.7408C34.3453 21.7865 34.3453 20.8323 34.3453 19.8492C34.1042 20.3263 34.1042 20.3263 33.8582 20.8131C33.376 20.8131 32.8938 20.8131 32.397 20.8131C32.1559 19.8589 32.1559 19.8589 31.91 18.8854C31.267 18.7263 30.6241 18.5673 29.9617 18.4034C29.9617 18.8805 29.9617 19.3577 29.9617 19.8492C28.6758 20.1673 27.39 20.4854 26.0652 20.8131C26.5522 19.8492 26.5522 19.8492 28.0134 19.3673C27.8169 16.4997 27.463 15.3403 25.5781 13.1023C25.7303 12.1083 25.7303 12.1083 26.0652 11.1746C25.8864 10.2651 25.8864 10.2651 25.5781 9.2469C25.4068 8.12372 25.2453 6.99904 25.091 5.87344C25.0006 5.24724 24.9102 4.62104 24.8171 3.97587C24.7467 3.48882 24.6764 3.00178 24.604 2.49998C24.2825 2.49998 23.9611 2.49998 23.6298 2.49998C22.8993 1.83733 22.8993 1.83733 22.1687 1.05421C21.8472 0.736138 21.5257 0.418068 21.1945 0.0903606Z" fill="#FDA83E"/>
<path d="M54.7951 6.74882C60.887 6.51089 66.2931 8.0655 70.8759 12.1385C73.715 15.2296 75.4861 17.6822 75.3793 21.9143C75.015 25.8913 73.5042 29.3488 70.8759 32.3792C70.6909 32.6305 70.506 32.8817 70.3154 33.1406C68.8922 34.7298 67.8 35.224 65.6559 35.5247C63.8159 35.6248 61.9815 35.6116 60.1399 35.5683C58.9777 35.542 57.8173 35.5387 56.6549 35.539C55.9062 35.5319 55.1575 35.5235 54.4089 35.5136C53.8958 35.5112 53.8958 35.5112 53.3723 35.5087C50.8281 35.4376 48.8497 34.8584 46.5226 33.825C46.3619 33.5069 46.2012 33.1889 46.0356 32.8612C46.3489 32.9307 46.6622 33.0003 46.985 33.072C52.9659 34.2876 58.1785 33.9785 64.057 32.3792C61.0766 33.2359 58.3866 33.5053 55.2898 33.4937C54.6682 33.5053 54.6682 33.5053 54.0341 33.5172C49.1502 33.5209 46.2864 32.0202 42.7574 28.7215C41.2838 27.1731 40.1888 25.5948 39.2167 23.7046C39.0057 23.3269 38.7947 22.9492 38.5774 22.56C38.0457 20.5515 38.1696 18.5397 38.2425 16.4758C38.7247 16.4758 39.2069 16.4758 39.7037 16.4758C39.7037 16.1577 39.7037 15.8396 39.7037 15.5119C39.3823 15.5119 39.0608 15.5119 38.7296 15.5119C38.7667 14.2623 38.9876 13.385 39.7855 12.4001C44.0671 8.43576 49.1555 7.0921 54.7951 6.74882Z" fill="#F8FCF4"/>
<path d="M20.2201 0.572246C19.7379 1.36742 19.2557 2.16259 18.7589 2.98186C19.5626 2.98186 20.3663 2.98186 21.1943 2.98186C21.1943 2.66379 21.1943 2.34572 21.1943 2.01802C21.8372 2.17705 22.4801 2.33609 23.1425 2.49994C23.1425 3.45415 23.1425 4.40836 23.1425 5.39148C23.6247 5.39148 24.1069 5.39148 24.6037 5.39148C24.3626 3.96017 24.3626 3.96017 24.1167 2.49994C25.6079 3.97548 26.0189 5.77461 26.1087 7.84816C26.0961 8.79635 26.0806 9.7445 26.0649 10.6926C26.2064 11.34 26.3618 11.9853 26.552 12.6203C26.552 13.0974 26.552 13.5745 26.552 14.0661C26.783 14.255 27.0141 14.4438 27.2521 14.6384C28.4751 16.0421 28.3495 17.5482 28.5002 19.3673C28.018 19.6853 27.5358 20.0034 27.039 20.3311C28.4856 20.0926 28.4856 20.0926 29.9614 19.8492C29.9614 19.3721 29.9614 18.895 29.9614 18.4034C30.7651 18.5624 31.5687 18.7215 32.3968 18.8853C32.3968 19.5215 32.3968 20.1576 32.3968 20.813C32.8789 20.813 33.3611 20.813 33.8579 20.813C34.0187 20.3359 34.1794 19.8588 34.345 19.3673C34.8849 20.9698 34.7564 22.0765 34.345 23.7046C33.8628 23.7046 33.3806 23.7046 32.8838 23.7046C32.8838 24.3407 32.8838 24.9768 32.8838 25.6323C31.9194 25.8708 31.9194 25.8708 30.9356 26.1142C31.7166 28.8015 32.5233 30.6857 34.345 32.8611C34.345 33.4972 34.345 34.1334 34.345 34.7888C33.0056 35.1201 33.0056 35.1201 31.4226 35.2707C30.5094 34.6984 30.5094 34.6984 29.4744 33.825C28.1957 33.1411 26.889 32.5176 25.5778 31.8973C25.5778 31.4202 25.5778 30.9431 25.5778 30.4515C26.7932 29.3348 27.8475 28.8112 29.4744 28.5238C29.1127 28.4244 28.7511 28.325 28.3785 28.2226C26.6531 27.369 26.053 26.2904 25.0908 24.6684C25.1912 25.1952 25.2917 25.722 25.3952 26.2648C25.5778 28.0419 25.5778 28.0419 24.6037 29.4876C21.968 29.1979 21.968 29.1979 20.7376 28.3732C20.2201 27.56 20.2201 27.56 20.3723 26.566C20.4828 26.2579 20.5933 25.9497 20.7072 25.6323C20.7585 24.5668 20.7585 24.5668 20.2201 23.2226C19.7379 23.3817 19.2557 23.5407 18.7589 23.7046C18.4375 23.3865 18.116 23.0684 17.7848 22.7407C16.5171 22.8951 16.5171 22.8951 15.3495 23.2226C15.3093 23.5208 15.2691 23.819 15.2277 24.1262C14.8624 25.1503 14.8624 25.1503 13.9796 25.7829C12.7237 26.1734 12.1687 26.148 10.9659 25.6323C10.6444 25.1552 10.323 24.6781 9.99177 24.1865C8.01277 23.5338 6.21387 23.3776 4.147 23.7046C2.95174 24.392 2.20219 25.1221 1.22461 26.1142C1.95055 24.5008 2.90127 23.2986 4.05567 21.9576C6.72549 18.6913 8.26321 15.2976 9.74824 11.3854C14.2901 -0.454558 14.2901 -0.454558 20.2201 0.572246Z" fill="#FEA93F"/>
<path d="M75.2589 17.9216C77.7716 20.1989 79.2034 23.1973 79.3989 26.5962C79.0929 31.4404 76.3043 34.9521 72.8083 38.0852C63.7177 45.5319 51.1588 47.4766 39.7031 47.319C39.8075 47.0649 39.912 46.8109 40.0196 46.5491C41.1369 43.5928 41.3463 41.0272 41.2556 37.8913C41.2491 37.4512 41.2425 37.011 41.2357 36.5576C41.2187 35.4858 41.1948 34.4146 41.1643 33.3432C41.6001 33.6103 42.0358 33.8774 42.4847 34.1527C48.6996 37.8788 53.9221 38.7567 61.134 37.6805C66.1836 36.4395 70.1313 33.3731 72.8235 29.0059C74.5573 25.5137 74.8313 21.744 75.2589 17.9216Z" fill="#4BAC8F"/>
<path d="M21.6824 4.90979C22.5956 5.78328 22.5956 5.78328 23.1436 6.83748C23.1436 7.31459 23.1436 7.79169 23.1436 8.28325C23.4651 8.28325 23.7865 8.28325 24.1177 8.28325C24.2785 7.96518 24.4392 7.64711 24.6048 7.31941C25.087 7.63748 25.5692 7.95554 26.066 8.28325C26.1269 9.42782 26.1269 9.42782 26.066 10.6929C26.2193 11.3376 26.3806 11.9806 26.553 12.6206C26.553 13.0977 26.553 13.5748 26.553 14.0663C26.7841 14.2552 27.0151 14.444 27.2532 14.6386C28.4762 16.0423 28.3506 17.5484 28.5013 19.3675C28.0191 19.6856 27.5369 20.0036 27.0401 20.3313C28.0045 20.1723 28.9689 20.0133 29.9625 19.8494C29.9625 19.3723 29.9625 18.8952 29.9625 18.4036C30.7662 18.5627 31.5698 18.7217 32.3978 18.8856C32.3978 19.5217 32.3978 20.1578 32.3978 20.8133C32.88 20.8133 33.3622 20.8133 33.859 20.8133C34.0197 20.3362 34.1805 19.8591 34.3461 19.3675C34.886 20.9701 34.7574 22.0768 34.3461 23.7048C33.8639 23.7048 33.3817 23.7048 32.8849 23.7048C32.8849 24.3409 32.8849 24.9771 32.8849 25.6325C31.9205 25.871 31.9205 25.871 30.9366 26.1144C31.7177 28.8018 32.5244 30.686 34.3461 32.8613C34.3461 33.4975 34.3461 34.1336 34.3461 34.789C33.0067 35.1204 33.0067 35.1204 31.4237 35.271C30.5104 34.6987 30.5104 34.6987 29.4754 33.8252C28.1967 33.1413 26.8901 32.5178 25.5789 31.8975C25.5789 31.4204 25.5789 30.9433 25.5789 30.4517C26.7943 29.3351 27.8485 28.8115 29.4754 28.524C29.1138 28.4246 28.7521 28.3252 28.3795 28.2228C26.6542 27.3693 26.0541 26.2907 25.0918 24.6686C25.1923 25.1954 25.2928 25.7222 25.3963 26.265C25.5789 28.0421 25.5789 28.0421 24.6048 29.4879C21.9691 29.1981 21.9691 29.1981 20.7387 28.3734C20.2212 27.5602 20.2212 27.5602 20.3734 26.5662C20.4839 26.2581 20.5944 25.95 20.7083 25.6325C20.7596 24.567 20.7596 24.567 20.2212 23.2229C21.4267 22.9843 21.4267 22.9843 22.6565 22.741C22.6565 22.4229 22.6565 22.1048 22.6565 21.7771C23.6209 21.5386 23.6209 21.5386 24.6048 21.2952C24.6048 20.9771 24.6048 20.659 24.6048 20.3313C24.3034 20.2121 24.002 20.0928 23.6915 19.9699C22.4311 19.2363 22.1422 18.8047 21.6824 17.4398C21.6215 15.8735 21.6215 15.8735 21.6824 14.5483C21.3308 14.6675 20.9792 14.7868 20.6169 14.9097C19.2471 15.0302 19.2471 15.0302 17.8772 14.0965C17.5256 13.7684 17.174 13.4404 16.8117 13.1025C17.1332 12.4663 17.4547 11.8302 17.7859 11.1748C17.4644 10.9064 17.143 10.6381 16.8117 10.3615C15.8376 9.2471 15.8376 9.2471 15.5332 8.04229C15.8376 6.83748 15.8376 6.83748 17.1162 5.72303C18.8641 4.85831 19.765 4.57251 21.6824 4.90979Z" fill="#FCA843"/>
<path d="M21.1953 0.0903606C22.5652 -0.0301202 22.5652 -0.0301202 24.1177 0.0903606C25.0309 1.05421 25.0309 1.05421 25.5789 2.01805C26.0008 1.7795 26.0008 1.7795 26.4313 1.53613C27.5272 1.05421 27.5272 1.05421 29.4754 1.05421C30.8171 3.9086 31.6691 6.81204 32.4891 9.84931C32.6219 10.3277 32.7547 10.806 32.8915 11.2988C33.859 14.84 33.859 14.84 33.859 16.4758C34.5019 16.6348 35.1448 16.7938 35.8073 16.9577C35.3251 17.1962 35.3251 17.1962 34.8331 17.4396C34.8331 17.9167 34.8331 18.3938 34.8331 18.8854C35.1546 19.0444 35.4761 19.2034 35.8073 19.3673C35.968 19.0492 36.1287 18.7312 36.2943 18.4034C36.3364 18.7414 36.3785 19.0793 36.4218 19.4275C37.0843 23.8537 38.7644 26.5833 41.652 29.9696C41.1698 30.2082 41.1698 30.2082 40.6779 30.4515C45.9191 34.0417 50.8206 35.0852 57.1468 34.8792C58.2864 34.8538 59.426 34.8306 60.5657 34.8095C61.3499 34.795 61.3499 34.795 62.1499 34.7801C63.8141 34.7903 65.3475 34.962 66.9794 35.2708C64.185 38.307 59.9087 38.4369 55.9953 38.6408C50.2917 38.8076 45.5552 37.1192 41.165 33.505C39.6065 32.0494 38.5612 30.6745 37.5729 28.7949C37.0531 27.8057 37.0531 27.8057 36.2943 27.0781C34.7825 26.7516 33.4318 26.842 31.9107 27.0781C31.9107 26.601 31.9107 26.1239 31.9107 25.6323C32.2322 25.6323 32.5537 25.6323 32.8849 25.6323C33.0456 24.6781 33.2063 23.7239 33.3719 22.7408C33.6934 22.7408 34.0149 22.7408 34.3461 22.7408C34.3461 21.7865 34.3461 20.8323 34.3461 19.8492C34.1853 20.1673 34.0246 20.4854 33.859 20.8131C33.3768 20.8131 32.8946 20.8131 32.3978 20.8131C32.2371 20.1769 32.0763 19.5408 31.9107 18.8854C31.2678 18.7263 30.6249 18.5673 29.9625 18.4034C29.9625 18.8805 29.9625 19.3577 29.9625 19.8492C28.6766 20.1673 27.3908 20.4854 26.066 20.8131C26.553 19.8492 26.553 19.8492 28.0142 19.3673C27.8177 16.4997 27.4638 15.3403 25.5789 13.1023C25.7311 12.1083 25.7311 12.1083 26.066 11.1746C25.8872 10.2651 25.8872 10.2651 25.5789 9.2469C25.4075 8.12372 25.2461 6.99904 25.0918 5.87344C25.0014 5.24724 24.911 4.62104 24.8179 3.97587C24.7475 3.48882 24.6772 3.00178 24.6048 2.49998C24.2833 2.49998 23.9618 2.49998 23.6306 2.49998C22.9 1.83733 22.9 1.83733 22.1694 1.05421C21.848 0.736138 21.5265 0.418068 21.1953 0.0903606Z" fill="#C58817"/>
<path d="M0.738281 28.042C5.16205 28.9043 5.16205 28.9043 6.25771 30.3349C6.64394 31.2649 6.64394 31.2649 7.07012 32.8612C7.07012 32.3841 7.07012 31.907 7.07012 31.4155C14.5982 32.6576 21.4802 38.612 27.0398 43.4635C27.5381 43.8892 28.0365 44.3147 28.5352 44.7399C30.5131 46.4573 32.2485 48.1436 33.8587 50.2105C33.055 50.2105 32.2514 50.2105 31.4234 50.2105C31.2626 51.0056 31.1019 51.8008 30.9363 52.6201C28.0208 52.4771 26.8065 51.2726 24.9089 49.2767C24.6433 49.0112 24.3777 48.7456 24.1041 48.472C22.1691 46.4975 22.1691 46.4975 22.1691 45.3912C21.8784 45.3372 21.5877 45.2831 21.2882 45.2275C13.9844 43.5845 6.45187 39.4782 2.16903 33.2829C1.16657 31.5436 0.863855 30.03 0.738281 28.042Z" fill="#C38716"/>
<path d="M78.1813 30.4517C78.4667 31.3515 78.4667 31.3515 78.6683 32.3794C78.4473 32.7173 78.2263 33.0553 77.9986 33.4034C77.1599 34.8717 77.131 35.4715 77.0854 37.1082C76.8886 39.5801 76.1004 40.8506 74.3475 42.592C65.7991 49.7776 53.0848 50.7932 42.3516 50.7226C41.4055 50.7193 41.4055 50.7193 40.4404 50.716C38.8958 50.7103 37.3512 50.7024 35.8066 50.6924C39.334 47.2023 39.334 47.2023 41.3851 47.0987C42.0562 47.057 42.0562 47.057 42.7409 47.0145C43.2252 46.9857 43.7095 46.957 44.2085 46.9274C52.3161 46.3291 60.2876 44.9931 67.4658 41.054C67.9035 40.826 68.3411 40.598 68.792 40.3631C73.1765 37.9486 76.1987 35.0288 78.1813 30.4517Z" fill="#D1C9AF"/>
<path d="M61.1344 12.1384C61.3755 12.6155 61.3755 12.6155 61.6215 13.1023C62.5859 12.9432 63.5503 12.7842 64.5439 12.6204C64.4635 13.1273 64.3831 13.6342 64.3003 14.1565C64.1076 15.6105 64.0121 16.9437 64.0568 18.4034C63.5746 18.4034 63.0924 18.4034 62.5956 18.4034C62.2742 19.5167 61.9527 20.6299 61.6215 21.7769C60.8178 21.9359 60.0142 22.095 59.1862 22.2588C59.0254 23.3721 58.8647 24.4853 58.6991 25.6323C57.574 25.4732 56.4489 25.3142 55.2896 25.1504C55.1289 24.5142 54.9682 23.8781 54.8026 23.2227C54.5012 23.5407 54.1998 23.8588 53.8893 24.1865C52.8543 25.1504 52.8543 25.1504 51.8802 25.1504C51.8802 24.8323 51.8802 24.5142 51.8802 24.1865C51.4482 24.2362 51.0163 24.2859 50.5712 24.3371C48.4563 24.1397 47.8918 23.3199 46.5225 21.7769C46.201 21.6179 45.8796 21.4588 45.5483 21.295C45.5483 20.1817 45.5483 19.0685 45.5483 17.9215C45.2269 17.9215 44.9054 17.9215 44.5742 17.9215C44.735 17.4444 44.8957 16.9673 45.0613 16.4757C45.8649 16.4757 46.6686 16.4757 47.4966 16.4757C47.4966 16.1577 47.4966 15.8396 47.4966 15.5119C48.6217 15.6709 49.7468 15.83 50.9061 15.9938C50.7453 15.8348 50.5846 15.6757 50.419 15.5119C50.5797 15.2137 50.7405 14.9155 50.9061 14.6083C51.4623 13.6275 51.4623 13.6275 51.3931 12.6204C51.8753 12.7794 52.3575 12.9384 52.8543 13.1023C52.8543 13.4203 52.8543 13.7384 52.8543 14.0661C53.4972 14.3842 54.1402 14.7023 54.8026 15.03C54.8026 15.5071 54.8026 15.9842 54.8026 16.4757C55.2848 16.4757 55.767 16.4757 56.2638 16.4757C56.4245 15.9986 56.5852 15.5215 56.7508 15.03C57.233 15.03 57.7152 15.03 58.212 15.03C58.3728 14.5529 58.5335 14.0758 58.6991 13.5842C59.9472 12.771 59.9472 12.771 61.1344 12.1384Z" fill="#5CD200"/>
<path d="M39.2152 33.8251C40.0162 34.4162 40.0162 34.4162 40.6764 35.2709C40.8191 36.3609 40.8191 36.3609 40.7677 37.5299C40.7545 37.9194 40.7414 38.3089 40.7278 38.7102C40.7023 39.1547 40.7023 39.1547 40.6764 39.6082C40.9979 39.6082 41.3193 39.6082 41.6505 39.6082C41.8193 42.28 41.6134 44.5078 40.1893 46.8371C38.8568 48.2978 37.4748 49.6163 35.8057 50.6924C33.8575 50.6924 33.8575 50.6924 32.9899 49.9168C32.7136 49.5764 32.4374 49.236 32.1528 48.8852C31.2374 47.7817 30.3717 46.7656 29.3217 45.7829C28.4998 44.9094 28.4998 44.9094 27.9823 43.6142C27.8316 43.2464 27.6809 42.8787 27.5256 42.4997C27.0435 42.3407 26.5613 42.1817 26.0645 42.0178C26.0645 41.5407 26.0645 41.0636 26.0645 40.5721C26.7074 40.5721 27.3503 40.5721 28.0127 40.5721C28.7357 41.31 28.7357 41.31 29.3521 42.2588C29.5606 42.5719 29.769 42.885 29.9838 43.2076C30.137 43.4511 30.2902 43.6946 30.448 43.9455C30.448 43.6274 30.448 43.3094 30.448 42.9817C30.1266 42.6636 29.8051 42.3455 29.4739 42.0178C29.4739 41.3817 29.4739 40.7455 29.4739 40.0901C31.1616 39.8516 31.1616 39.8516 32.8834 39.6082C32.4916 39.4989 32.0998 39.3895 31.6961 39.2769C30.448 38.6444 30.448 38.6444 30.0219 37.4094C30.0018 37.0218 29.9817 36.6341 29.961 36.2347C30.1217 36.0757 30.2824 35.9167 30.448 35.7528C34.058 36.093 34.058 36.093 35.3187 36.7167C35.3187 36.0805 35.3187 35.4444 35.3187 34.789C36.8931 33.7504 37.3894 33.5993 39.2152 33.8251Z" fill="#FCA83F"/>
<path d="M68.9263 9.72885C69.9614 10.4915 70.8971 11.2732 71.8487 12.1385C71.688 12.4565 71.5273 12.7746 71.3617 13.1023C71.1074 12.8812 70.8531 12.66 70.5911 12.4321C67.7881 10.1202 65.1136 8.81357 61.6204 7.80116C61.3071 7.70735 60.9938 7.61354 60.671 7.5169C53.7674 6.15076 46.9298 7.90054 41.1636 11.6565C39.7685 12.8934 38.9971 13.6505 38.7283 15.5119C39.0498 15.5119 39.3713 15.5119 39.7025 15.5119C39.7025 15.83 39.7025 16.1481 39.7025 16.4758C39.2203 16.4758 38.7381 16.4758 38.2413 16.4758C38.2626 21.2582 39.979 25.5157 43.325 29.0058C46.9713 32.2784 50.3325 32.9639 55.1059 32.9816C55.7618 32.9845 55.7618 32.9845 56.4309 32.9874C59.1899 32.9634 61.5818 32.7242 64.1641 31.6846C65.0298 31.4154 65.0298 31.4154 66.491 31.8973C60.5819 34.7557 53.7969 35.0771 47.4593 33.5069C46.4846 33.2416 46.4846 33.2416 45.5472 33.825C44.5274 33.4127 44.5274 33.4127 43.3554 32.7708C42.7753 32.4624 42.7753 32.4624 42.1834 32.1477C41.0717 31.3494 40.6872 30.7375 40.1895 29.4877C40.3503 29.3287 40.511 29.1696 40.6766 29.0058C40.4826 28.8014 40.2886 28.597 40.0887 28.3864C37.6005 25.661 36.2615 23.0634 35.8059 19.3673C35.3237 19.2083 34.8415 19.0492 34.3447 18.8854C34.5055 18.2493 34.6662 17.6131 34.8318 16.9577C34.5103 16.7987 34.1889 16.6396 33.8577 16.4758C33.4429 15.3745 33.4429 15.3745 33.0662 14.036C32.9394 13.5931 32.8125 13.1502 32.6819 12.6938C32.5877 12.3515 32.4935 12.0092 32.3965 11.6565C34.0471 11.1121 35.1421 11.2229 36.8714 11.3252C39.7422 11.3535 40.9962 10.9179 43.0948 9.05303C50.1983 3.53545 61.9322 5.17103 68.9263 9.72885Z" fill="#F0D393"/>
<path d="M57.0264 51.9575C57.6764 52.0031 58.3255 52.0641 58.9728 52.1382C59.3135 52.1684 59.6542 52.1985 60.0052 52.2295C63.3289 52.5624 66.8905 53.0583 69.9013 54.5479C73.4899 54.8319 76.371 54.5961 79.6426 53.1021C79.4105 55.1691 78.2969 56.1514 76.7202 57.4394C75.1106 58.0079 75.1106 58.0079 73.3716 58.343C72.8003 58.461 72.2289 58.5791 71.6403 58.7007C69.8024 58.8957 68.3042 58.7322 66.4918 58.4032C64.3533 58.101 62.3055 57.904 60.1467 57.942C59.7985 57.9477 59.4503 57.9533 59.0916 57.9591C58.3916 57.9739 57.6918 57.9953 56.9923 58.0238C54.5124 58.0787 54.5124 58.0787 53.4495 57.2304C53.253 56.9813 53.0565 56.7322 52.854 56.4756C51.3441 55.897 51.3441 55.897 49.9316 55.5117C49.9316 55.1936 49.9316 54.8756 49.9316 54.5479C50.3636 54.5976 50.7956 54.6473 51.2406 54.6985C52.947 54.7224 52.947 54.7224 53.9423 53.3336C55.2894 52.1382 55.2894 52.1382 57.0264 51.9575Z" fill="#FA0B0A"/>
<path d="M21.6824 4.90979C22.5956 5.78328 22.5956 5.78327 23.1436 6.83748C23.1436 7.31459 23.1436 7.79169 23.1436 8.28325C23.4651 8.28325 23.7865 8.28325 24.1177 8.28325C24.2785 7.96518 24.4392 7.64711 24.6048 7.31941C25.087 7.63747 25.5692 7.95554 26.066 8.28325C26.1269 9.42782 26.1269 9.42782 26.066 10.6929C26.2193 11.3376 26.3806 11.9806 26.553 12.6206C26.553 13.0977 26.553 13.5748 26.553 14.0663C26.7841 14.2552 27.0151 14.444 27.2532 14.6386C28.4762 16.0423 28.3506 17.5484 28.5013 19.3675C27.1848 20.2979 26.4312 20.8305 24.7874 20.753C23.5115 20.2879 23.0137 19.9269 22.1695 18.8856C21.9202 17.7956 21.9202 17.7956 21.8346 16.6265C21.7866 16.0423 21.7866 16.0423 21.7376 15.4462C21.7194 15.1499 21.7012 14.8536 21.6824 14.5483C21.3308 14.6675 20.9792 14.7868 20.6169 14.9097C19.2471 15.0302 19.2471 15.0302 17.8772 14.0965C17.5256 13.7684 17.174 13.4404 16.8117 13.1025C17.1332 12.4663 17.4547 11.8302 17.7859 11.1748C17.4644 10.9064 17.143 10.638 16.8117 10.3615C15.8376 9.2471 15.8376 9.2471 15.5332 8.04229C15.8376 6.83748 15.8376 6.83748 17.1162 5.72303C18.8641 4.85831 19.765 4.57251 21.6824 4.90979Z" fill="#FED6AE"/>
<path d="M41.1641 33.343C42.1887 33.9593 43.2134 34.5755 44.2691 35.2105C50.3531 38.6891 56.7551 38.7481 63.569 37.1984C59.5156 41.5464 53.6075 42.7567 47.983 43.9453C47.5956 44.0416 47.2082 44.1379 46.8091 44.2371C44.9478 44.5177 43.0468 44.4273 41.1641 44.4273C41.1641 40.7695 41.1641 37.1117 41.1641 33.343Z" fill="#33650D"/>
<path d="M10.4788 11.1746C12.7614 13.2079 14.2103 16.1333 14.5884 19.1263C14.3754 20.3311 14.3754 20.3311 13.4012 21.2949C13.562 21.454 13.7227 21.613 13.8883 21.7769C13.9796 23.4335 13.9796 23.4335 13.8883 25.1503C13.5668 25.4684 13.2454 25.7865 12.9142 26.1142C11.94 26.0238 11.94 26.0238 10.9659 25.6323C10.6444 25.1552 10.323 24.6781 9.99178 24.1865C8.01277 23.5338 6.21387 23.3776 4.147 23.7046C2.95174 24.392 2.20219 25.1221 1.22461 26.1142C1.95055 24.5008 2.90127 23.2986 4.05567 21.9576C6.36243 19.1491 7.95343 16.2612 9.10897 12.8312C9.23956 12.4435 9.37016 12.0559 9.50471 11.6565C9.82617 11.4974 10.1476 11.3384 10.4788 11.1746Z" fill="#FDA942"/>
<path d="M1.22461 31.4155C1.47575 31.7336 1.72689 32.0517 1.98565 32.3794C2.37743 32.8565 2.76921 33.3336 3.17287 33.8251C3.40392 34.1221 3.63497 34.419 3.87302 34.725C7.96557 39.7283 14.2829 42.7733 20.4332 44.6082C22.7461 45.652 23.765 47.1548 25.0908 49.2467C22.5238 49.3584 20.3608 49.0086 17.937 48.2226C17.599 48.1144 17.2609 48.0063 16.9126 47.8948C12.4411 46.4145 7.32373 44.6555 4.63406 40.5721C4.28923 39.4806 4.09019 38.4303 3.91869 37.3003C3.48407 35.5106 2.33904 34.3122 1.22461 32.8613C1.22461 32.3842 1.22461 31.9071 1.22461 31.4155Z" fill="#CEC1A8"/>
<path d="M0.738281 28.042C1.52334 28.195 2.30403 28.3701 3.08228 28.554C3.73494 28.6966 3.73494 28.6966 4.40078 28.8421C5.9032 29.645 6.07086 30.4507 6.64192 31.9879C7.39778 33.5295 8.79866 34.3965 10.1752 35.3612C12.7152 37.2322 15.1078 39.1834 17.4202 41.325C17.6873 41.5721 17.9544 41.8191 18.2296 42.0737C19.2313 43.0063 20.2223 43.9469 21.195 44.9093C18.0857 44.3671 15.4737 43.4762 12.7018 41.9876C12.3435 41.7967 11.9851 41.6057 11.6159 41.4089C7.34292 39.0536 3.20901 35.989 1.22535 31.4155C0.932129 30.2594 0.813877 29.2388 0.738281 28.042Z" fill="#1B6A55"/>
<path d="M20.2205 0.57231C19.7384 1.36748 19.2562 2.16266 18.7594 2.98193C19.563 2.98193 20.3667 2.98193 21.1947 2.98193C21.1947 2.66386 21.1947 2.34579 21.1947 2.01808C21.8376 2.17711 22.4805 2.33615 23.1429 2.5C23.1429 3.45421 23.1429 4.40842 23.1429 5.39154C23.6251 5.39154 24.1073 5.39154 24.6041 5.39154C24.4434 4.43733 24.2827 3.48313 24.1171 2.5C25.2964 3.66689 25.3486 4.33185 25.6391 5.93371C25.7616 6.59159 25.7616 6.59159 25.8865 7.26276C25.9455 7.59947 26.0045 7.93617 26.0653 8.28308C25.0912 8.28308 24.1171 8.28308 23.1429 8.28308C22.6607 7.32887 22.1785 6.37467 21.6817 5.39154C19.4313 5.23619 18.0834 5.38663 16.324 6.83731C15.6617 8.31952 15.6617 8.31952 15.3499 9.72885C15.5106 9.88789 15.6714 10.0469 15.837 10.2108C15.8569 11.3351 15.8576 12.4599 15.837 13.5842C13.2582 13.8272 12.031 13.1935 9.99219 11.6565C11.3393 6.97501 14.172 -0.303501 20.2205 0.57231Z" fill="#FDA842"/>
<path d="M36.293 26.1143C37.325 27.1354 38.3469 28.1552 39.3371 29.2166C44.423 33.9057 50.3544 35.1003 57.1454 34.8792C58.285 34.8539 59.4247 34.8306 60.5644 34.8096C61.0872 34.7999 61.6099 34.7902 62.1485 34.7802C63.8127 34.7904 65.3462 34.962 66.9781 35.2708C64.1837 38.3071 59.9074 38.4369 55.994 38.6409C50.2904 38.8077 45.5539 37.1193 41.1636 33.505C39.162 31.6355 37.5246 29.5211 36.293 27.0781C36.293 26.76 36.293 26.442 36.293 26.1143Z" fill="#FC5106"/>
<path d="M68.4399 41.0537C59.5821 45.881 49.6964 47.4563 39.7031 47.3187C40.2587 45.9106 40.2587 45.9106 41.1643 44.4272C42.4048 43.9679 42.4048 43.9679 43.9649 43.8248C44.5715 43.7614 45.178 43.6981 45.8028 43.6328C46.5294 43.5738 47.2563 43.5176 47.9832 43.4634C49.8302 43.3253 51.677 43.1856 53.5236 43.0417C54.2436 42.9871 54.2436 42.9871 54.9781 42.9314C58.6329 42.6238 62.0107 41.9334 65.5252 40.9125C66.9788 40.5718 66.9788 40.5718 68.4399 41.0537Z" fill="#176955"/>
<path d="M31.9104 5.87354C37.0538 5.87354 42.1972 5.87354 47.4964 5.87354C46.741 7.36841 45.3397 7.53453 43.8054 8.0949C42.4878 8.73835 42.4878 8.73835 41.5166 10.2673C39.9996 11.8566 39.9996 11.8566 38.2479 11.939C37.5453 11.9199 36.8429 11.8857 36.1417 11.8373C35.781 11.8243 35.4203 11.8112 35.0487 11.7978C34.1643 11.7639 33.2807 11.7121 32.3974 11.6566C31.6161 9.3375 31.4105 8.34634 31.9104 5.87354Z" fill="#82CFB3"/>
<path d="M61.1338 12.1384C61.2945 12.4565 61.4552 12.7746 61.6208 13.1023C62.5852 12.9432 63.5496 12.7842 64.5432 12.6204C64.4629 13.1273 64.3825 13.6342 64.2997 14.1565C64.107 15.6105 64.0114 16.9437 64.0562 18.4034C63.574 18.4034 63.0918 18.4034 62.595 18.4034C62.2735 19.5167 61.952 20.6299 61.6208 21.7769C60.8172 21.9359 60.0135 22.095 59.1855 22.2588C59.0248 22.7359 58.864 23.213 58.6984 23.7046C58.377 23.0684 58.0555 22.4323 57.7243 21.7769C57.4029 21.7769 57.0814 21.7769 56.7502 21.7769C56.7502 21.4588 56.7502 21.1408 56.7502 20.813C56.4287 20.813 56.1073 20.813 55.7761 20.813C55.056 19.3882 55.2596 18.0457 55.289 16.4757C55.6105 16.4757 55.9319 16.4757 56.2631 16.4757C56.4239 15.9986 56.5846 15.5215 56.7502 15.03C57.2324 15.03 57.7146 15.03 58.2114 15.03C58.3721 14.5529 58.5328 14.0758 58.6984 13.5842C59.9465 12.771 59.9465 12.771 61.1338 12.1384Z" fill="#5AD101"/>
<path d="M74.772 19.8491C74.9327 19.8491 75.0934 19.8491 75.259 19.8491C75.57 24.5662 73.9842 28.7948 70.8755 32.3791C70.6905 32.6304 70.5056 32.8816 70.315 33.1405C68.8918 34.7296 67.7996 35.2239 65.6554 35.5246C63.8155 35.6247 61.9811 35.6115 60.1395 35.5682C58.9773 35.5419 57.8169 35.5386 56.6545 35.5389C55.9058 35.5318 55.1571 35.5234 54.4085 35.5135C53.8954 35.5111 53.8954 35.5111 53.3719 35.5086C50.8277 35.4375 48.8493 34.8583 46.5222 33.8249C46.3615 33.5068 46.2008 33.1888 46.0352 32.861C46.3485 32.9306 46.6618 33.0002 46.9846 33.0719C55.035 34.7082 62.8607 33.9337 69.9013 29.4876C72.1374 27.6574 72.9197 25.9802 73.7065 23.3129C73.8117 22.979 73.9169 22.6451 74.0252 22.3011C74.2809 21.4858 74.5274 20.6677 74.772 19.8491Z" fill="#F0F0ED"/>
<path d="M30.9362 26.1143C32.0735 26.2687 33.2099 26.4304 34.3456 26.5962C34.9502 26.6502 34.9502 26.6502 35.5671 26.7054C37.2323 27.2167 37.6505 28.0217 38.577 29.4576C39.7479 31.2573 39.7479 31.2573 41.1645 32.8612C41.3109 34.001 41.4057 35.1476 41.4689 36.2949C41.5054 36.9124 41.5418 37.5299 41.5793 38.1661C41.6032 38.642 41.627 39.1178 41.6516 39.6081C41.3301 39.6081 41.0087 39.6081 40.6775 39.6081C40.6417 39.1552 40.6417 39.1552 40.6052 38.6932C40.5687 38.2993 40.5323 37.9055 40.4948 37.4997C40.4609 37.1083 40.427 36.7169 40.3921 36.3137C40.2737 35.1728 40.2737 35.1728 39.2163 34.307C37.7106 34.1924 36.7658 34.3119 35.3197 34.7889C35.3197 35.425 35.3197 36.0612 35.3197 36.7166C34.5161 36.5575 33.7124 36.3985 32.8844 36.2346C33.0452 35.7575 33.2059 35.2804 33.3715 34.7889C33.693 34.7889 34.0144 34.7889 34.3456 34.7889C33.6151 32.9819 32.9524 31.5115 31.819 29.9094C30.8911 28.4531 30.7365 27.7933 30.9362 26.1143Z" fill="#FEA83D"/>
<path d="M70.3876 32.3794C70.5484 32.3794 70.7091 32.3794 70.8747 32.3794C71.0435 34.133 70.9476 35.1267 70.1441 36.7167C68.657 38.4824 67.0141 39.8557 65.0299 41.054C64.7084 41.054 64.387 41.054 64.0558 41.054C64.0558 41.3721 64.0558 41.6902 64.0558 42.0179C62.6054 42.2631 61.1544 42.5033 59.7026 42.7407C59.298 42.8097 58.8933 42.8787 58.4764 42.9497C55.7533 43.39 53.1772 43.5297 50.418 43.4636C50.418 43.3046 50.418 43.1456 50.418 42.9817C50.8185 42.8705 51.2191 42.7593 51.6318 42.6447C56.2852 41.2996 60.2902 39.7738 64.0558 36.7167C64.7911 36.3055 65.5325 35.9047 66.278 35.5119C67.9151 34.6413 69.1416 33.7663 70.3876 32.3794Z" fill="#3A906D"/>
<path d="M65.5173 19.8491C65.5173 20.3262 65.5173 20.8033 65.5173 21.2949C65.1958 21.2949 64.8743 21.2949 64.5431 21.2949C64.7842 22.0105 64.7842 22.0105 65.0302 22.7407C64.548 22.8997 64.0658 23.0587 63.569 23.2226C63.4083 24.0178 63.2475 24.8129 63.0819 25.6322C61.9568 25.4732 60.8317 25.3141 59.6725 25.1503C59.5118 25.7864 59.351 26.4226 59.1854 27.078C57.9088 27.078 56.9891 26.9272 55.776 26.596C55.776 26.278 55.776 25.9599 55.776 25.6322C55.371 25.7533 54.966 25.8745 54.5488 25.9993C54.0195 26.1465 53.4902 26.2938 52.9449 26.4454C52.4194 26.5964 51.8939 26.7474 51.3524 26.9029C49.9312 27.078 49.9312 27.078 49.0769 26.4266C48.8766 26.1645 48.6764 25.9023 48.47 25.6322C48.1284 25.4632 47.7869 25.2943 47.435 25.1202C46.5217 24.6684 46.5217 24.6684 46.0347 23.7045C45.7132 23.5455 45.3918 23.3864 45.0605 23.2226C45.2213 22.9045 45.382 22.5864 45.5476 22.2587C46.7044 22.1684 46.7044 22.1684 47.9829 22.2587C48.4651 22.9744 48.4651 22.9744 48.9571 23.7045C50.4502 24.058 50.4502 24.058 51.8795 24.1864C51.8795 24.5045 51.8795 24.8226 51.8795 25.1503C52.2009 25.1503 52.5224 25.1503 52.8536 25.1503C53.175 24.5141 53.4965 23.878 53.8277 23.2226C54.1492 23.2226 54.4706 23.2226 54.8018 23.2226C54.9626 23.8587 55.1233 24.4949 55.2889 25.1503C56.2533 25.1503 57.2177 25.1503 58.2113 25.1503C58.5328 24.037 58.8542 22.9238 59.1854 21.7768C59.9891 21.7768 60.7927 21.7768 61.6207 21.7768C61.7815 21.2997 61.9422 20.8226 62.1078 20.331C64.4214 19.8491 64.4214 19.8491 65.5173 19.8491Z" fill="#C0DCA9"/>
<path d="M78.1815 30.4517C78.5049 31.2969 78.5049 31.2969 78.6686 32.3794C75.5334 38.2454 69.4291 41.7626 63.5696 44.4274C63.1677 44.6119 62.7659 44.7964 62.3519 44.9865C58.9726 46.4329 55.4864 47.1279 51.88 47.8009C51.3978 47.9009 50.9156 48.0009 50.4188 48.104C46.3503 48.8861 42.3669 48.858 38.2422 48.7647C39.2163 47.319 39.2163 47.319 40.1852 47.1046C40.5812 47.0871 40.9773 47.0697 41.3853 47.0517C41.8327 47.0254 42.2801 46.9992 42.7411 46.9721C43.2254 46.9474 43.7097 46.9227 44.2087 46.8973C52.3228 46.3338 60.2845 44.9949 67.4661 41.054C67.9037 40.826 68.3413 40.598 68.7922 40.3631C73.1767 37.9486 76.1989 35.0288 78.1815 30.4517Z" fill="#BC9F89"/>
<path d="M79.1555 53.1021C79.3966 53.8177 79.3966 53.8177 79.6426 54.5478C77.4114 57.4697 75.1903 58.0023 71.6231 58.7176C69.7988 58.8951 68.2902 58.7271 66.4918 58.4032C64.3533 58.1009 62.3055 57.9039 60.1467 57.942C59.7985 57.9476 59.4503 57.9533 59.0916 57.9591C58.3916 57.9739 57.6918 57.9953 56.9923 58.0238C54.5124 58.0786 54.5124 58.0786 53.4495 57.2304C53.253 56.9813 53.0565 56.7322 52.854 56.4755C51.3441 55.897 51.3441 55.897 49.9316 55.5117C49.9316 55.1936 49.9316 54.8755 49.9316 54.5478C51.0568 54.7069 52.1819 54.8659 53.3411 55.0297C53.3411 55.3478 53.3411 55.6659 53.3411 55.9936C53.8767 55.9476 54.4122 55.9016 54.964 55.8543C58.6838 55.5668 62.0057 55.433 65.6737 56.2383C69.5244 56.9381 74.2098 57.0633 77.6943 55.0297C77.8551 54.5526 78.0158 54.0755 78.1814 53.584C78.5029 53.4249 78.8243 53.2659 79.1555 53.1021Z" fill="#B2190D"/>
<path d="M22.6553 33.3431C24.5514 33.1392 25.9332 33.2376 27.5259 34.3069C28.7209 36.0804 28.6925 37.0318 28.5001 39.1262C26.7533 40.2783 26.1745 40.4424 24.1165 40.09C22.846 39.0778 21.7708 37.9372 20.707 36.7165C21.2934 35.5148 21.9024 34.4605 22.6553 33.3431Z" fill="#FDD2A7"/>
<path d="M35.5325 38.554C36.7806 38.6443 36.7806 38.6443 37.7547 39.6082C38.058 41.4944 37.8346 42.6346 36.7197 44.1563C35.3194 45.3912 35.3194 45.3912 33.8886 45.5117C32.0042 44.7507 30.6054 43.712 29.4746 42.0178C29.4746 41.3816 29.4746 40.7455 29.4746 40.0901C29.9408 39.9941 29.9408 39.9941 30.4164 39.8962C30.8189 39.8111 31.2213 39.726 31.636 39.6383C32.0372 39.5544 32.4384 39.4706 32.8517 39.3841C34.0878 39.0674 34.2101 38.6546 35.5325 38.554Z" fill="#FED6AE"/>
<path d="M52.8543 56.4753C53.015 56.7934 53.1757 57.1115 53.3413 57.4392C53.6109 57.4341 53.8805 57.4291 54.1582 57.4239C63.1655 57.2774 63.1655 57.2774 67.0039 58.2185C68.5241 58.514 69.8562 58.2139 71.3627 57.9211C72.2447 57.8234 73.1276 57.7334 74.0111 57.65C74.6431 57.5895 74.6431 57.5895 75.2878 57.5277C75.5998 57.4985 75.9119 57.4693 76.2334 57.4392C76.2334 57.7573 76.2334 58.0753 76.2334 58.403C72.2525 60.1408 68.1795 59.9524 63.9045 59.9693C63.2808 59.9792 62.657 59.9892 62.0143 59.9994C58.4638 60.0139 55.6557 59.7514 52.3672 58.403C52.5279 57.7669 52.6887 57.1308 52.8543 56.4753Z" fill="#D3CCA3"/>
<path d="M24.5741 13.3433C26.0657 13.5842 26.0657 13.5842 27.192 14.3071C28.3466 15.9995 28.3644 17.3401 28.501 19.3673C27.1845 20.2977 26.4309 20.8303 24.7872 20.7528C23.4797 20.2762 22.9429 20.0337 22.1692 18.8854C21.7171 17.1279 21.4573 16.0224 22.1996 14.3372C23.1433 13.5842 23.1433 13.5842 24.5741 13.3433Z" fill="#DBBC84"/>
<path d="M41.1641 33.343C42.1887 33.9593 43.2134 34.5755 44.2691 35.2105C47.056 36.8354 49.5913 37.8648 52.8536 38.1623C51.2191 39.2404 49.9891 39.5097 48.0743 39.9092C47.4885 40.0347 46.9027 40.1602 46.2992 40.2895C44.5735 40.5719 44.5735 40.5719 41.6511 40.5719C41.4904 38.1863 41.3297 35.8008 41.1641 33.343Z" fill="#771902"/>
<path d="M24.1165 7.31934C24.7594 7.63741 25.4024 7.95547 26.0648 8.28318C26.0547 8.64101 26.0447 8.99884 26.0343 9.36751C26.0076 10.663 26.0076 10.663 26.3692 11.747C26.4295 12.0353 26.4897 12.3235 26.5518 12.6205C25.4439 13.7167 24.7173 13.9464 23.2337 14.3976C22.8187 14.5287 22.4037 14.6597 21.9761 14.7948C20.5622 15.057 19.6441 14.9514 18.2717 14.5482C17.3889 13.7952 17.3889 13.7952 16.8105 13.1024C16.9813 12.8042 17.1521 12.506 17.3281 12.1988C17.4787 11.8609 17.6294 11.5229 17.7847 11.1747C17.6239 10.8567 17.4632 10.5386 17.2976 10.2109C18.9415 10.1506 18.9415 10.1506 20.7071 10.2109C21.0285 10.5289 21.35 10.847 21.6812 11.1747C22.6888 11.4844 22.6888 11.4844 23.6295 11.6566C23.6194 11.1199 23.6094 10.5832 23.599 10.0302C23.6295 8.28318 23.6295 8.28318 24.1165 7.31934Z" fill="#FFAB46"/>
<path d="M51.3933 12.6204C51.8755 12.7794 52.3577 12.9384 52.8545 13.1023C52.8545 13.4204 52.8545 13.7384 52.8545 14.0661C53.1634 14.1643 53.4723 14.2624 53.7906 14.3636C54.8028 15.03 54.8028 15.03 55.2061 16.3892C55.2739 16.9147 55.3417 17.4403 55.4116 17.9818C55.4844 18.5098 55.5573 19.0378 55.6323 19.5819C55.7039 20.1913 55.7039 20.1913 55.7769 20.8131C56.0984 20.8131 56.4198 20.8131 56.751 20.8131C56.751 21.1311 56.751 21.4492 56.751 21.7769C57.0725 21.7769 57.394 21.7769 57.7252 21.7769C58.4214 22.9115 58.7415 23.4542 58.5166 24.7889C58.4162 25.0672 58.3157 25.3455 58.2122 25.6323C57.2478 25.4733 56.2834 25.3142 55.2898 25.1504C54.6487 23.4059 54.3157 22.2127 54.3157 20.3311C53.9942 20.3311 53.6728 20.3311 53.3416 20.3311C52.8036 19.0892 52.3744 17.9583 52.1239 16.6263C51.9677 15.4242 51.9677 15.4242 50.9062 14.5481C51.0889 13.524 51.0889 13.524 51.3933 12.6204Z" fill="#7FFB00"/>
<path d="M30.9358 29.4875C32.191 30.1833 32.8423 30.8201 33.8582 31.8971C34.2844 33.4935 34.2844 33.4935 34.3453 34.7887C33.0059 35.12 33.0059 35.12 31.4229 35.2706C30.5097 34.6983 30.5097 34.6983 29.4746 33.8248C28.196 33.1409 26.8893 32.5175 25.5781 31.8971C25.5781 30.4514 25.5781 30.4514 26.3392 29.608C28.0812 28.7241 29.0681 28.9777 30.9358 29.4875Z" fill="#FCCEA2"/>
<path d="M15.8371 14.5481C16.9539 14.5801 16.9539 14.5801 18.2724 15.03C19.3626 16.3082 19.3626 16.3082 20.3729 17.8914C20.7125 18.4126 21.0522 18.9339 21.4022 19.4709C22.1689 20.8131 22.1689 20.8131 22.1689 21.7769C20.6834 22.5118 19.4207 22.3724 17.7853 22.2589C16.9025 21.6565 16.9025 21.6565 16.3241 20.8131C16.0378 20.4105 16.0378 20.4105 15.7457 19.9999C15.144 18.3053 15.2609 16.822 15.35 15.03C15.5107 14.871 15.6715 14.7119 15.8371 14.5481Z" fill="#DEB577"/>
<path d="M67.7794 53.6252C68.9745 54.0841 69.5704 54.5495 70.3878 55.5115C69.5458 55.5378 68.7035 55.5563 67.8612 55.5718C67.3922 55.5829 66.9232 55.5941 66.44 55.6056C65.0301 55.5115 65.0301 55.5115 63.8638 55.0145C62.1388 54.3799 60.7661 54.5659 58.9418 54.7284C56.9032 54.9019 54.9004 55.0685 52.8535 55.0296C55.6284 50.1624 63.0001 52.4381 67.7794 53.6252Z" fill="#FE1D0B"/>
<path d="M69.9109 10.4536C70.5754 10.9941 71.2163 11.5626 71.8497 12.1385C71.6889 12.4566 71.5282 12.7746 71.3626 13.1023C71.1083 12.8812 70.854 12.66 70.592 12.4322C67.7891 10.1202 65.1145 8.81359 61.6213 7.80118C61.308 7.70737 60.9947 7.61356 60.6719 7.51692C53.6859 6.13446 47.0334 7.97492 41.1646 11.6566C40.1127 12.4159 39.1907 13.1813 38.2422 14.0662C39.6409 10.9108 42.3862 8.93969 45.5482 7.65057C46.3558 7.36761 47.1675 7.09565 47.9835 6.83733C48.4638 6.67426 48.4638 6.67426 48.9538 6.50789C56.1094 4.378 64.0299 6.12035 69.9109 10.4536Z" fill="#FEB787"/>
<path d="M7.07031 31.4155C8.81091 31.6922 10.131 32.1381 11.6613 32.9987C12.049 33.2146 12.4367 33.4305 12.8361 33.6529C13.2339 33.8787 13.6316 34.1045 14.0414 34.3372C14.4486 34.5649 14.8558 34.7925 15.2753 35.0271C16.2762 35.5874 17.2752 36.1506 18.2728 36.7167C18.2728 37.0348 18.2728 37.3528 18.2728 37.6805C17.4691 37.8396 16.6655 37.9986 15.8375 38.1625C16.1589 38.9576 16.4804 39.7528 16.8116 40.5721C14.7237 39.6079 13.136 38.2774 11.393 36.807C11.0847 36.5558 10.7765 36.3045 10.4588 36.0456C8.7881 34.6399 7.6617 33.5838 7.07031 31.4155Z" fill="#BF8C23"/>
<path d="M35.8067 18.4033C35.9674 18.4033 36.1281 18.4033 36.2937 18.4033C36.3358 18.7413 36.3779 19.0792 36.4212 19.4274C37.0837 23.8536 38.7638 26.5832 41.6515 29.9695C41.0085 30.1285 40.3656 30.2875 39.7032 30.4514C39.5487 30.1675 39.3943 29.8836 39.2352 29.5911C38.4938 28.4098 37.8507 27.5037 36.7808 26.596C35.0697 26.397 33.572 26.662 31.9102 27.0779C31.9102 26.6008 31.9102 26.1237 31.9102 25.6322C32.2316 25.6322 32.5531 25.6322 32.8843 25.6322C33.045 24.678 33.2057 23.7238 33.3714 22.7406C33.6928 22.7406 34.0143 22.7406 34.3455 22.7406C34.3455 22.2635 34.3455 21.7864 34.3455 21.2949C34.6669 21.2949 34.9884 21.2949 35.3196 21.2949C35.4803 20.3407 35.6411 19.3864 35.8067 18.4033Z" fill="#AB8167"/>
<path d="M36.293 26.1143C37.3149 27.1254 38.3274 28.1345 39.3067 29.1865C40.8248 30.5885 42.4253 31.6235 44.1868 32.7012C44.475 32.913 44.7632 33.1248 45.0601 33.3431C45.0601 33.6612 45.0601 33.9792 45.0601 34.307C45.4519 34.4262 45.8437 34.5455 46.2474 34.6684C47.5977 35.1372 48.8476 35.646 50.1439 36.2346C51.9975 37.0677 53.8046 37.6644 55.7756 38.1623C55.7756 38.3214 55.7756 38.4804 55.7756 38.6443C49.5047 38.431 44.6613 36.8803 40.2161 32.3849C36.293 28.0728 36.293 28.0728 36.293 26.1143Z" fill="#E03A04"/>
<path d="M41.6511 40.5718C45.704 40.2459 49.0457 41.1766 52.8536 42.4994C52.8536 42.6585 52.8536 42.8175 52.8536 42.9814C48.9375 43.839 45.2017 44.6374 41.1641 44.4271C41.3248 43.1549 41.4855 41.8826 41.6511 40.5718Z" fill="#347815"/>
<path d="M8.53132 13.5842C8.69205 13.9023 8.85278 14.2204 9.01838 14.5481C7.06517 19.1142 4.26132 22.6284 0.738281 26.1142C0.810172 21.704 2.56103 18.9595 5.72689 15.9035C6.64334 15.1032 7.56974 14.3305 8.53132 13.5842Z" fill="#28715A"/>
<path d="M15.8365 22.2588C16.9932 22.319 16.9932 22.319 18.2718 22.7407C19.185 23.8853 19.185 23.8853 19.733 25.1503C19.5722 25.6274 19.4115 26.1045 19.2459 26.5961C18.7637 26.5961 18.2815 26.5961 17.7847 26.5961C17.7847 27.2322 17.7847 27.8684 17.7847 28.5238C16.1774 28.6828 14.5701 28.8419 12.9141 29.0057C13.0447 28.6876 13.1753 28.3696 13.3098 28.0419C13.9057 26.5524 14.4643 25.0522 15.0164 23.5464C15.3494 22.7407 15.3494 22.7407 15.8365 22.2588Z" fill="#FBB15A"/>
<path d="M9.992 14.0659C11.1183 13.9455 11.1183 13.9455 12.4273 14.0659C13.8835 15.2495 14.0179 16.5141 14.2234 18.2828C14.2801 18.965 14.3328 19.6477 14.3756 20.3309C13.4833 20.6265 13.4833 20.6265 12.4273 20.8129C11.1381 19.9526 10.2063 19.3092 9.50493 17.9213C9.39253 15.2522 9.39253 15.2522 9.992 14.0659Z" fill="#FED4AB"/>
<path d="M33.3718 27.56C34.9243 27.3491 34.9243 27.3491 36.7813 27.56C37.8902 28.5244 38.6792 29.5709 39.2166 30.9334C39.034 32.0102 39.034 32.0102 38.7295 32.8611C35.7958 32.7473 35.7958 32.7473 34.5343 31.7712C33.8589 31.0238 33.8589 31.0238 32.8848 29.4877C32.9761 28.3431 32.9761 28.3431 33.3718 27.56Z" fill="#DBBE88"/>
<path d="M79.1544 53.1021C79.3955 53.8177 79.3955 53.8177 79.6415 54.5478C77.4103 57.4697 75.1892 58.0023 71.6221 58.7176C69.0124 58.9715 66.6014 58.4556 64.0554 57.9213C63.8947 57.4442 63.734 56.9671 63.5684 56.4755C63.8405 56.4831 64.1126 56.4907 64.393 56.4985C65.6503 56.5289 66.9075 56.5474 68.165 56.5659C68.5929 56.578 69.0208 56.5901 69.4617 56.6026C72.3298 56.634 75.1351 56.4373 77.6932 55.0297C77.854 54.5526 78.0147 54.0755 78.1803 53.584C78.5018 53.4249 78.8232 53.2659 79.1544 53.1021Z" fill="#BE0504"/>
<path d="M39.2168 33.8251C40.0178 34.4162 40.0178 34.4162 40.678 35.2709C40.8207 36.3609 40.8207 36.3609 40.7693 37.5299C40.7562 37.9194 40.743 38.3089 40.7294 38.7102C40.7124 39.0066 40.6955 39.3029 40.678 39.6082C38.8732 39.186 37.3824 38.6848 35.8074 37.6805C35.3812 36.1444 35.3812 36.1444 35.3203 34.789C36.8948 33.7504 37.3911 33.5993 39.2168 33.8251Z" fill="#FAC38F"/>
<path d="M40.1895 29.4878C40.4381 29.6506 40.6867 29.8133 40.9429 29.981C46.7772 33.5224 55.1715 33.8924 61.8163 32.5186C63.0822 32.1357 63.0822 32.1357 64.1641 31.6847C65.0298 31.4155 65.0298 31.4155 66.4909 31.8974C60.5819 34.7558 53.7968 35.0772 47.4593 33.507C46.4845 33.2417 46.4845 33.2417 45.5472 33.8251C44.5274 33.4128 44.5274 33.4128 43.3554 32.7709C42.9686 32.5653 42.5819 32.3596 42.1834 32.1478C41.0716 31.3494 40.6871 30.7376 40.1895 29.4878Z" fill="#A4BBB8"/>
<path d="M73.797 26.1143C73.9577 26.4323 74.1184 26.7504 74.284 27.0781C72.8432 30.3409 70.6139 33.4597 67.4651 35.2708C65.9853 35.6034 65.1119 35.5037 63.5686 35.2708C63.0864 34.9527 62.6042 34.6347 62.1074 34.307C62.4082 34.2013 62.7089 34.0957 63.0188 33.9869C67.6498 32.2713 71.1546 30.3311 73.797 26.1143Z" fill="#FAC7A4"/>
<path d="M36.6279 11.1443C37.1119 11.1486 37.596 11.153 38.0948 11.1574C38.6495 11.1658 38.6495 11.1658 39.2154 11.1744C38.6964 12.0629 38.1667 12.9454 37.6324 13.825C37.3386 14.317 37.0448 14.809 36.742 15.3159C36.2787 15.8899 36.2787 15.8899 35.8059 16.4755C35.163 16.4755 34.5201 16.4755 33.8577 16.4755C33.3755 14.8852 32.8933 13.2948 32.3965 11.6563C33.9304 11.1504 35.0209 11.1256 36.6279 11.1443Z" fill="#BA7592"/>
<path d="M82.0158 32.2588C83.5379 32.3793 83.5379 32.3793 84.4816 32.8913C85.2995 34.3671 84.8462 35.6051 84.512 37.1985C82.8682 37.2587 82.8682 37.2587 81.1026 37.1985C80.1284 36.2347 80.1284 36.2347 80.0371 34.5178C80.1528 32.4191 80.1528 32.4191 82.0158 32.2588Z" fill="#FBDB04"/>
<path d="M9.50491 20.813C12.2446 20.6925 12.2446 20.6925 13.8885 21.7768C14.0407 23.4635 14.0407 23.4635 13.8885 25.1503C13.567 25.4683 13.2456 25.7864 12.9144 26.1141C11.596 26.03 11.0666 25.7281 10.1137 24.819C9.34582 23.4133 9.39641 22.3875 9.50491 20.813Z" fill="#DBAE6E"/>
<path d="M21.1943 25.1504C22.5049 25.2354 23.7896 25.4484 25.0908 25.6323C25.3952 26.7468 25.3952 26.7468 25.5779 28.0419C25.0957 28.7576 25.0957 28.7576 24.6038 29.4877C21.9681 29.1979 21.9681 29.1979 20.7377 28.3733C20.2202 27.56 20.2202 27.56 20.3419 26.5359C20.7072 25.6323 20.7072 25.6323 21.1943 25.1504Z" fill="#FBC897"/>
<path d="M61.1345 12.1384C61.2952 12.4565 61.4559 12.7746 61.6215 13.1023C62.5859 12.9432 63.5503 12.7842 64.5439 12.6204C64.4636 13.1273 64.3832 13.6342 64.3004 14.1565C64.1077 15.6105 64.0122 16.9437 64.0569 18.4034C63.7354 18.2444 63.4139 18.0854 63.0827 17.9215C63.0827 17.7625 63.0827 17.6034 63.0827 17.4396C61.6362 17.201 61.6362 17.201 60.1603 16.9577C59.6423 15.3269 59.5688 14.7502 60.3734 13.1926C60.6246 12.8447 60.8757 12.4969 61.1345 12.1384Z" fill="#5ED109"/>
<path d="M26.552 23.2227C27.872 23.3601 28.7713 23.5572 29.8702 24.307C30.6481 25.4414 30.5913 26.2179 30.4486 27.56C29.9615 28.0419 29.9615 28.0419 28.8047 28.1925C27.5262 28.0419 27.5262 28.0419 26.6434 27.2286C25.9739 25.9387 25.9086 25.1359 26.065 23.7046C26.2257 23.5455 26.3864 23.3865 26.552 23.2227Z" fill="#FDD0A6"/>
<path d="M66.0035 55.5116C66.0035 55.8296 66.0035 56.1477 66.0035 56.4754C65.5383 56.4406 65.073 56.4058 64.5937 56.37C60.8336 56.1029 57.1123 55.9236 53.3398 55.9935C53.3398 55.6754 53.3398 55.3573 53.3398 55.0296C54.5874 54.8541 55.8354 54.6843 57.0842 54.5176C57.4354 54.4676 57.7867 54.4176 58.1487 54.3661C61.1204 53.9767 63.2311 54.3359 66.0035 55.5116Z" fill="#FC0100"/>
<path d="M17.2979 30.4514C17.1372 31.5647 16.9764 32.6779 16.8108 33.8249C14.2048 33.645 13.1534 32.8631 11.4531 30.9334C13.6022 30.2246 15.0977 29.7918 17.2979 30.4514Z" fill="#F7B77C"/>
<path d="M6.24769 24.0962C7.59463 24.1892 8.35568 24.4765 9.50493 25.1504C8.86201 25.3094 8.21908 25.4685 7.55667 25.6323C7.39594 26.7456 7.23521 27.8588 7.06961 29.0058C4.75605 28.6443 4.75605 28.6443 3.66016 27.56C4.73837 24.2173 4.73837 24.2173 6.24769 24.0962Z" fill="#E0C28A"/>
<path d="M15.8367 37.6802C18.0632 37.7339 19.1143 38.339 20.6464 39.8488C22.1685 41.4396 22.1685 41.4396 22.1685 42.0175C20.1259 42.1115 18.6258 42.0244 16.8108 41.0536C15.8976 40.1199 15.8976 40.1199 15.3496 39.1259C15.5103 38.6488 15.6711 38.1717 15.8367 37.6802Z" fill="#BB9A55"/>
<path d="M15.8369 14.5481C16.9937 14.6083 16.9937 14.6083 18.2722 15.03C19.3485 16.4254 19.7334 17.1175 19.7334 18.8854C19.0905 18.5673 18.4476 18.2493 17.7852 17.9216C17.7852 17.6035 17.7852 17.2854 17.7852 16.9577C17.4637 16.9577 17.1422 16.9577 16.811 16.9577C17.1325 17.9119 17.454 18.8661 17.7852 19.8493C15.8978 19.4276 15.8978 19.4276 15.3498 18.8854C15.2852 18.0119 15.2852 18.0119 15.289 16.9577C15.2877 16.6098 15.2865 16.2619 15.2852 15.9035C15.3498 15.03 15.3498 15.03 15.8369 14.5481Z" fill="#FED7B0"/>
<path d="M9.01761 17.9216C9.07849 21.6565 9.07849 21.6565 8.53055 22.7409C7.40543 22.7409 6.28031 22.7409 5.12109 22.7409C5.27746 21.039 5.4381 20.0625 6.5214 18.7048C7.55642 17.9216 7.55642 17.9216 9.01761 17.9216Z" fill="#F5B676"/>
<path d="M29.961 18.4033C30.7646 18.5624 31.5683 18.7214 32.3963 18.8852C32.3963 19.5214 32.3963 20.1575 32.3963 20.8129C32.8785 20.8129 33.3607 20.8129 33.8575 20.8129C34.0182 20.3358 34.179 19.8587 34.3446 19.3672C34.6185 20.3009 34.6185 20.3009 34.8316 21.2949C34.3446 21.7768 34.3446 21.7768 33.0964 21.8069C32.5088 21.792 32.5088 21.792 31.9092 21.7768C31.7485 20.9816 31.5878 20.1864 31.4222 19.3672C31.1007 19.3672 30.7792 19.3672 30.448 19.3672C30.2873 20.1623 30.1266 20.9575 29.961 21.7768C29.6395 21.7768 29.318 21.7768 28.9868 21.7768C28.9868 21.4587 28.9868 21.1406 28.9868 20.8129C28.5046 20.8129 28.0225 20.8129 27.5256 20.8129C27.5256 21.131 27.5256 21.4491 27.5256 21.7768C27.8471 21.9358 28.1686 22.0949 28.4998 22.2587C27.6961 22.2587 26.8925 22.2587 26.0645 22.2587C26.0645 21.7816 26.0645 21.3045 26.0645 20.8129C27.4799 20.2073 28.4004 19.8491 29.961 19.8491C29.961 19.372 29.961 18.8949 29.961 18.4033Z" fill="#FECC98"/>
<path d="M26.5523 10.6926C28.0646 11.4408 28.2116 12.6555 28.8049 14.1866C29.0222 14.7357 29.2394 15.2849 29.4632 15.8507C29.919 17.3034 30.0702 18.3462 29.9617 19.8492C28.6759 20.1672 27.39 20.4853 26.0652 20.813C26.5523 19.8492 26.5523 19.8492 28.0134 19.3672C27.8248 16.6143 27.5897 15.1567 25.5781 13.1022C25.8996 12.3071 26.2211 11.5119 26.5523 10.6926Z" fill="#E89D32"/>
<path d="M31.4219 45.873C31.7101 45.9078 31.9982 45.9426 32.2952 45.9785C34.2871 46.21 36.2311 46.4191 38.2408 46.355C38.0886 47.2586 38.0886 47.2586 37.7537 48.2827C36.1582 49.3351 35.7077 49.5081 33.8572 49.2465C32.4873 48.373 32.4873 48.373 31.4219 47.3188C31.4219 46.8417 31.4219 46.3646 31.4219 45.873Z" fill="#F9BC82"/>
<path d="M52.8541 6.3555C51.5021 7.24736 50.7305 7.53853 49.2011 7.92175C45.0588 9.1082 41.4113 11.1849 38.2422 14.0663C39.672 10.8407 42.4644 8.90504 45.7004 7.62055C46.458 7.34989 47.2187 7.08743 47.9835 6.83742C49.6752 6.27948 51.0815 6.32241 52.8541 6.3555Z" fill="#F06123"/>
<path d="M60.1589 34.7891C61.3069 34.8326 62.4538 34.908 63.5988 34.9999C64.2273 35.049 64.8558 35.0981 65.5033 35.1486C66.2332 35.2092 66.2332 35.2092 66.9778 35.271C65.6327 36.7043 64.5383 37.219 62.5943 37.6806C61.194 37.4999 61.194 37.4999 60.1589 37.1987C59.885 36.265 59.885 36.265 59.6719 35.271C59.8326 35.112 59.9933 34.9529 60.1589 34.7891Z" fill="#FA893C"/>
<path d="M18.2715 0.0903489C20.5271 -0.0653604 21.8466 0.115302 23.6292 1.53612C24.3809 2.95284 24.6033 3.78595 24.6033 5.39151C24.1211 5.39151 23.6389 5.39151 23.1421 5.39151C22.9814 4.4373 22.8207 3.48309 22.6551 2.49997C22.1729 2.34093 21.6907 2.1819 21.1939 2.01804C21.1939 2.33611 21.1939 2.65418 21.1939 2.98189C20.3902 2.98189 19.5866 2.98189 18.7585 2.98189C18.859 2.6837 18.9595 2.38551 19.063 2.07828C19.1232 1.74033 19.1835 1.40238 19.2456 1.0542C18.9242 0.736126 18.6027 0.418057 18.2715 0.0903489Z" fill="#FDCF9E"/>
<path d="M45.0613 16.4756C45.9745 16.6262 45.9745 16.6262 47.0095 16.9575C47.331 17.4346 47.6525 17.9117 47.9837 18.4033C47.5015 18.6418 47.5015 18.6418 47.0095 18.8852C46.6919 19.8609 46.6919 19.8609 46.5225 20.8129C47.1654 20.6539 47.8083 20.4948 48.4707 20.331C48.6114 20.6292 48.752 20.9274 48.8969 21.2346C49.4143 22.3229 49.4143 22.3229 50.419 23.2225C50.2583 23.5406 50.0975 23.8587 49.9319 24.1864C48.2947 23.6464 47.7035 22.983 46.5225 21.7767C46.201 21.6177 45.8796 21.4587 45.5483 21.2948C45.5483 20.1816 45.5483 19.0683 45.5483 17.9214C45.2269 17.9214 44.9054 17.9214 44.5742 17.9214C44.735 17.4443 44.8957 16.9671 45.0613 16.4756Z" fill="#5BCD11"/>
<path d="M50.4182 15.03C51.2219 15.1891 52.0255 15.3481 52.8535 15.512C52.8435 16.0388 52.8335 16.5656 52.8231 17.1083C52.7632 18.8584 52.7632 18.8584 53.3406 20.3312C53.6621 20.3312 53.9835 20.3312 54.3147 20.3312C54.154 20.9673 53.9933 21.6035 53.8277 22.2589C53.5062 22.0998 53.1848 21.9408 52.8535 21.777C52.8535 21.4589 52.8535 21.1408 52.8535 20.8131C52.4819 20.7535 52.1102 20.6938 51.7272 20.6324C50.4182 20.3312 50.4182 20.3312 48.957 19.3673C49.4392 19.0493 49.9214 18.7312 50.4182 18.4035C50.579 18.5625 50.7397 18.7216 50.9053 18.8854C51.066 17.7722 51.2268 16.6589 51.3924 15.512C51.0709 15.3529 50.7494 15.1939 50.4182 15.03Z" fill="#6ADD00"/>
<path d="M38.7293 11.6567C39.0507 11.8158 39.3722 11.9748 39.7034 12.1387C39.382 12.4567 39.0605 12.7748 38.7293 13.1025C37.3327 16.1426 36.9599 18.9393 36.781 22.259C36.6203 22.259 36.4596 22.259 36.294 22.259C36.1332 21.3048 35.9725 20.3506 35.8069 19.3675C35.3247 19.2085 34.8425 19.0494 34.3457 18.8856C34.5064 18.2494 34.6672 17.6133 34.8328 16.9579C35.1542 16.9579 35.4757 16.9579 35.8069 16.9579C35.9274 16.5305 36.048 16.1031 36.1722 15.6627C36.8002 14.0161 37.5602 12.9677 38.7293 11.6567Z" fill="#E4AE9B"/>
<path d="M11.9409 9.72876C12.2624 10.3649 12.5839 11.001 12.9151 11.6565C13.3972 11.6565 13.8794 11.6565 14.3762 11.6565C14.3762 11.1793 14.3762 10.7022 14.3762 10.2107C14.8584 10.2107 15.3406 10.2107 15.8374 10.2107C15.8374 11.3239 15.8374 12.4372 15.8374 13.5841C14.2349 13.6923 13.1962 13.7306 11.7583 12.9817C10.9668 12.1384 10.9668 12.1384 10.9668 10.2107C11.2883 10.0516 11.6097 9.89261 11.9409 9.72876Z" fill="#FED4A8"/>
<path d="M46.0352 32.8613C46.3372 32.9253 46.6392 32.9893 46.9503 33.0552C50.8647 33.8276 54.7194 34.1052 58.6988 34.3071C58.6988 34.6252 58.6988 34.9432 58.6988 35.2709C49.728 35.5433 49.728 35.5433 46.5222 33.8252C46.3615 33.5071 46.2008 33.189 46.0352 32.8613Z" fill="#FFFEFD"/>
<path d="M21.6817 17.4395C21.983 17.8271 22.2844 18.2147 22.5949 18.6141C23.5041 19.8677 23.5041 19.8677 24.6041 20.331C24.6041 20.6491 24.6041 20.9671 24.6041 21.2948C23.9611 21.4539 23.3182 21.6129 22.6558 21.7768C22.6558 22.0948 22.6558 22.4129 22.6558 22.7406C21.37 23.0587 20.0841 23.3767 18.7593 23.7045C18.4378 23.2274 18.1164 22.7502 17.7852 22.2587C19.955 22.0201 19.955 22.0201 22.1687 21.7768C21.9276 21.409 21.6865 21.0412 21.4381 20.6623C20.7075 19.3671 20.7075 19.3671 20.7075 17.9214C21.029 17.7623 21.3505 17.6033 21.6817 17.4395Z" fill="#DF982B"/>
<path d="M7.07031 31.4155C8.90182 31.6956 10.251 32.2117 11.8496 33.1324C12.2345 33.3517 12.6194 33.571 13.0159 33.7969C13.3041 33.9653 13.5923 34.1336 13.8892 34.3071C13.5678 34.6251 13.2463 34.9432 12.9151 35.2709C11.8801 35.0902 11.8801 35.0902 10.9668 34.789C10.9668 35.1071 10.9668 35.4251 10.9668 35.7528C9.11901 35.0346 8.19863 33.9742 7.07031 32.3794C7.07031 32.0613 7.07031 31.7432 7.07031 31.4155Z" fill="#C68816"/>
<path d="M0.25138 25.1504C0.572843 25.4685 0.894305 25.7865 1.22551 26.1142C1.7077 25.7962 2.1899 25.4781 2.6867 25.1504C2.8173 25.5182 2.94789 25.8859 3.08244 26.2648C3.63367 27.4992 4.10515 28.1368 5.12203 29.0058C3.85282 29.4543 3.34815 29.5596 2.07787 29.0359C1.79659 28.8669 1.51531 28.6979 1.22551 28.5239C1.22551 29.4781 1.22551 30.4323 1.22551 31.4154C0.25138 30.4515 0.25138 30.4515 0.15625 29.1978C0.167551 28.717 0.178853 28.2361 0.190497 27.7407C0.199287 27.2574 0.208077 26.7741 0.217133 26.2761C0.228435 25.9046 0.239736 25.5331 0.25138 25.1504Z" fill="#E5AD5F"/>
<path d="M30.448 35.7527C31.7586 35.8377 33.0433 36.0507 34.3445 36.2346C34.3445 36.8707 34.3445 37.5069 34.3445 38.1623C32.8833 39.1261 32.8833 39.1261 31.5743 38.9454C31.2026 38.846 30.831 38.7466 30.448 38.6442C30.2619 37.8461 30.1003 37.042 29.9609 36.2346C30.1217 36.0756 30.2824 35.9165 30.448 35.7527Z" fill="#FAC38E"/>
<path d="M6.36992 23.102C6.94347 23.1132 6.94347 23.1132 7.5286 23.1246C8.53127 23.2225 8.53127 23.2225 9.5054 23.7044C9.5054 24.0225 9.5054 24.3406 9.5054 24.6683C8.86247 24.8273 8.21955 24.9863 7.55714 25.1502C7.55714 24.8321 7.55714 24.5141 7.55714 24.1863C6.59275 24.5044 5.62836 24.8225 4.63475 25.1502C4.47402 25.9454 4.31329 26.7405 4.14769 27.5598C3.66549 27.4008 3.1833 27.2417 2.68649 27.0779C2.50848 24.9055 2.50848 24.9055 3.28391 23.872C4.38543 23.0437 5.00125 23.0574 6.36992 23.102Z" fill="#FDD5AC"/>
<path d="M17.2976 11.6567C18.4339 11.6362 19.5708 11.6369 20.7071 11.6567C21.1941 12.1386 21.1941 12.1386 21.2246 13.3735C21.2145 13.7612 21.2045 14.1488 21.1941 14.5482C20.3722 14.9096 20.3722 14.9096 19.2459 15.0301C17.9064 14.0964 17.9064 14.0964 16.8105 13.1024C16.9713 12.6253 17.132 12.1482 17.2976 11.6567Z" fill="#FBCB9D"/>
<path d="M23.6289 43.9453C24.7248 44.0056 24.7248 44.0056 26.0642 44.4272C28.0125 46.8759 28.0125 46.8759 28.0125 48.2826C26.286 48.1403 25.6833 47.9085 24.4508 46.6561C23.6289 45.3911 23.6289 45.3911 23.6289 43.9453Z" fill="#BEA05C"/>
<path d="M28.0138 5.87354C28.496 5.87354 28.9782 5.87354 29.475 5.87354C30.4925 7.50949 30.6165 8.78841 30.4491 10.6928C30.1276 11.0108 29.8062 11.3289 29.475 11.6566C28.4491 10.8334 28.044 10.4415 27.8711 9.12087C27.888 8.73509 27.905 8.3493 27.9225 7.95183C27.9356 7.56232 27.9488 7.17281 27.9624 6.77149C27.9794 6.47517 27.9963 6.17884 28.0138 5.87354Z" fill="#BEA05B"/>
<path d="M35.0147 16.6266C35.2759 16.7359 35.5371 16.8453 35.8062 16.9579C35.324 17.1965 35.324 17.1965 34.8321 17.4398C34.9928 18.7121 35.1535 19.9844 35.3191 21.2952C34.9977 20.8181 34.6762 20.341 34.345 19.8494C34.1843 20.1675 34.0235 20.4856 33.8579 20.8133C33.3757 20.8133 32.8935 20.8133 32.3967 20.8133C32.3063 20.366 32.3063 20.366 32.2141 19.9097C31.972 18.7935 31.972 18.7935 30.9355 17.9218C33.5732 16.4389 33.5732 16.4389 35.0147 16.6266Z" fill="#F6A03F"/>
<path d="M14.3753 26.1143C15.3529 26.2524 16.3277 26.4124 17.2976 26.5962C17.4584 27.2323 17.6191 27.8685 17.7847 28.5239C16.1774 28.6829 14.5701 28.8419 12.9141 29.0058C13.8273 26.6564 13.8273 26.6564 14.3753 26.1143Z" fill="#F9BF88"/>
<path d="M12.9143 6.8374C14.1446 7.97615 14.8081 8.60347 15.3496 10.2109C15.0282 10.2109 14.7067 10.2109 14.3755 10.2109C14.3755 10.688 14.3755 11.1651 14.3755 11.6566C12.9143 11.6566 12.9143 11.6566 12.0924 10.9338C11.8814 10.6952 11.6705 10.4566 11.4531 10.2109C12.3664 7.37957 12.3664 7.37957 12.9143 6.8374Z" fill="#F7B77F"/>
<path d="M83.0523 32.3794C83.6952 32.8565 84.3381 33.3336 85.0005 33.8252C84.8398 34.9384 84.6791 36.0516 84.5134 37.1986C83.7098 37.1986 82.9061 37.1986 82.0781 37.1986C82.3996 36.0854 82.7211 34.9721 83.0523 33.8252C82.7308 33.8252 82.4093 33.8252 82.0781 33.8252C82.0781 33.5071 82.0781 33.189 82.0781 32.8613C82.3996 32.7023 82.7211 32.5432 83.0523 32.3794Z" fill="#FAEA11"/>
<path d="M39.2156 31.4155C40.1669 31.9219 40.1669 31.9219 41.1638 32.8613C41.4606 34.4784 41.4606 34.4784 41.5291 36.3251C41.5568 36.9383 41.5844 37.5514 41.6129 38.1832C41.6254 38.6534 41.638 39.1237 41.6509 39.6082C41.3294 39.6082 41.008 39.6082 40.6768 39.6082C40.6586 39.3175 40.6404 39.0268 40.6216 38.7272C40.431 36.4347 40.2225 35.1574 38.7285 33.3432C38.8807 32.2589 38.8807 32.2589 39.2156 31.4155Z" fill="#DF8B27"/>
<path d="M45.5476 22.2587C46.7044 22.1683 46.7044 22.1683 47.9829 22.2587C48.3044 22.7358 48.6259 23.2129 48.9571 23.7045C49.9556 24.2791 49.9556 24.2791 50.9053 24.6683C50.7446 24.9864 50.5839 25.3044 50.4183 25.6322C48.4258 25.4131 47.3338 25.247 46.0347 23.7045C45.7132 23.5454 45.3918 23.3864 45.0605 23.2225C45.2213 22.9045 45.382 22.5864 45.5476 22.2587Z" fill="#BDDBA4"/>
<path d="M59.1856 15.9939C59.507 16.312 59.8285 16.63 60.1597 16.9577C59.1953 18.3891 58.2309 19.8204 57.2373 21.2951C57.5588 21.2951 57.8802 21.2951 58.2115 21.2951C58.0507 21.7722 57.89 22.2493 57.7244 22.7408C57.7244 22.4228 57.7244 22.1047 57.7244 21.777C57.4029 21.777 57.0815 21.777 56.7503 21.777C56.7503 21.4589 56.7503 21.1408 56.7503 20.8131C56.4288 20.8131 56.1073 20.8131 55.7761 20.8131C55.6154 19.8589 55.4547 18.9047 55.2891 17.9216C55.7713 18.0806 56.2535 18.2397 56.7503 18.4035C57.5539 17.6083 58.3576 16.8132 59.1856 15.9939Z" fill="#66E000"/>
<path d="M69.4134 33.3432C68.5728 34.4522 67.9378 35.19 66.5195 35.4328C64.647 35.4669 63.6842 35.3471 62.1074 34.3071C64.6057 33.293 66.7643 33.2384 69.4134 33.3432Z" fill="#FDAE79"/>
<path d="M19.2468 29.0059C20.0505 29.0059 20.8541 29.0059 21.6822 29.0059C22.0036 29.642 22.3251 30.2781 22.6563 30.9336C22.0134 31.4107 21.3704 31.8878 20.708 32.3793C20.0651 32.0613 19.4222 31.7432 18.7598 31.4155C18.9205 30.6203 19.0812 29.8251 19.2468 29.0059Z" fill="#FAC38F"/>
<path d="M30.9355 26.1143C32.8984 26.3808 34.8419 26.6713 36.7803 27.0781C36.7803 27.2371 36.7803 27.3962 36.7803 27.56C35.6552 27.7191 34.5301 27.8781 33.3709 28.042C33.3709 28.8371 33.3709 29.6323 33.3709 30.4516C32.4272 30.1805 32.4272 30.1805 31.4226 29.4877C31.0573 27.7407 31.0573 27.7407 30.9355 26.1143Z" fill="#DD9728"/>
<path d="M41.6511 42.4995C42.5241 42.5544 43.3967 42.6159 44.2691 42.6802C44.998 42.7306 44.998 42.7306 45.7417 42.7819C47.0088 42.9814 47.0088 42.9814 47.983 43.9453C45.7074 44.5263 43.4947 44.4724 41.1641 44.4272C41.3248 43.7911 41.4855 43.1549 41.6511 42.4995Z" fill="#155214"/>
<path d="M29.4746 22.2588C33.2494 22.6202 33.2494 22.6202 34.3453 23.7046C33.8631 23.7046 33.3809 23.7046 32.8841 23.7046C32.8841 24.3407 32.8841 24.9768 32.8841 25.6323C32.4019 25.7913 31.9197 25.9503 31.4229 26.1142C30.7734 24.829 30.124 23.5439 29.4746 22.2588Z" fill="#FED9B4"/>
<path d="M79.6414 34.3069C79.7318 34.6051 79.8222 34.9033 79.9153 35.2105C80.9634 36.7435 82.2595 36.8102 84.0249 37.1984C84.0249 37.5165 84.0249 37.8346 84.0249 38.1623C80.7981 38.7647 80.7981 38.7647 79.1543 37.6803C79.315 36.5671 79.4758 35.4539 79.6414 34.3069Z" fill="#D9CD99"/>
<path d="M15.8369 20.3311C16.4799 20.9672 17.1228 21.6033 17.7852 22.2587C17.3934 22.378 17.0016 22.4973 16.598 22.6202C15.2665 23.0888 15.2665 23.0888 14.9541 24.2467C14.924 24.5449 14.8939 24.8431 14.8628 25.1503C14.5413 25.1503 14.2199 25.1503 13.8887 25.1503C13.8887 23.878 13.8887 22.6057 13.8887 21.2949C14.5316 20.9768 15.1745 20.6588 15.8369 20.3311Z" fill="#DD9729"/>
<path d="M30.4478 19.3672C30.7692 19.3672 31.0907 19.3672 31.4219 19.3672C31.5826 20.0033 31.7434 20.6395 31.909 21.2949C32.7126 21.4539 33.5163 21.6129 34.3443 21.7768C34.3443 22.0949 34.3443 22.4129 34.3443 22.7407C33.3903 22.6728 32.4365 22.602 31.4828 22.5298C30.9516 22.4907 30.4205 22.4515 29.8732 22.4112C28.4995 22.2587 28.4995 22.2587 27.5254 21.7768C27.5254 21.4587 27.5254 21.1407 27.5254 20.813C28.0076 20.813 28.4898 20.813 28.9866 20.813C28.9866 21.131 28.9866 21.4491 28.9866 21.7768C29.308 21.6178 29.6295 21.4587 29.9607 21.2949C30.2783 20.3192 30.2783 20.3192 30.4478 19.3672Z" fill="#FCA847"/>
<path d="M24.116 40.0898C25.0804 40.0898 26.0447 40.0898 27.0384 40.0898C26.5562 40.3284 26.5562 40.3284 26.0642 40.5718C26.9572 42.0979 26.9572 42.0979 28.4996 42.9814C28.4996 43.4585 28.4996 43.9356 28.4996 44.4272C26.5798 43.6235 25.1927 42.39 23.6289 41.0537C23.7896 40.7356 23.9504 40.4176 24.116 40.0898Z" fill="#F8A33F"/>
<path d="M10.4785 28.042C9.91758 29.2314 9.48112 29.9927 8.53029 30.9335C7.88736 30.9335 7.24444 30.9335 6.58203 30.9335C6.74276 30.1384 6.90349 29.3432 7.0691 28.5239C8.53029 28.042 8.53029 28.042 10.4785 28.042Z" fill="#FCCDA0"/>
<path d="M52.8545 20.813C52.8545 21.1311 52.8545 21.4491 52.8545 21.7768C53.4974 21.9359 54.1404 22.0949 54.8028 22.2588C54.8028 23.2226 54.8028 23.2226 53.8895 24.2467C52.8545 25.1503 52.8545 25.1503 51.8804 25.1503C51.8804 24.8322 51.8804 24.5142 51.8804 24.1865C51.5589 24.0274 51.2375 23.8684 50.9062 23.7045C51.5492 23.5455 52.1921 23.3865 52.8545 23.2226C52.3723 22.9045 51.8901 22.5865 51.3933 22.2588C51.2326 21.9407 51.0719 21.6226 50.9062 21.2949C51.8804 20.813 51.8804 20.813 52.8545 20.813Z" fill="#63D012"/>
<path d="M60.6458 19.3672C61.128 19.3672 61.6102 19.3672 62.107 19.3672C61.9462 20.1624 61.7855 20.9575 61.6199 21.7768C60.8163 21.9358 60.0126 22.0949 59.1846 22.2587C59.0239 22.7358 58.8631 23.2129 58.6975 23.7045C58.5368 23.7045 58.3761 23.7045 58.2105 23.7045C58.2105 22.9093 58.2105 22.1142 58.2105 21.2949C57.889 21.1358 57.5675 20.9768 57.2363 20.813C57.8793 20.813 58.5222 20.813 59.1846 20.813C58.8631 20.4949 58.5417 20.1768 58.2105 19.8491C59.0141 19.8491 59.8178 19.8491 60.6458 19.8491C60.6458 19.6901 60.6458 19.531 60.6458 19.3672Z" fill="#54C908"/>
<path d="M51.3933 12.6204C51.8755 12.7794 52.3577 12.9384 52.8545 13.1023C52.8545 13.4204 52.8545 13.7384 52.8545 14.0661C53.1659 14.1556 53.4773 14.245 53.7982 14.3372C54.8028 15.03 54.8028 15.03 55.1681 16.7769C55.2283 17.5821 55.2283 17.5821 55.2898 18.4034C55.1291 18.0854 54.9684 17.7673 54.8028 17.4396C54.4813 17.4396 54.1598 17.4396 53.8286 17.4396C53.6679 16.6444 53.5072 15.8492 53.3416 15.03C52.8594 15.189 52.3772 15.348 51.8804 15.5119C51.5589 15.1938 51.2375 14.8758 50.9062 14.5481C51.0889 13.524 51.0889 13.524 51.3933 12.6204Z" fill="#77F618"/>
<path d="M39.2163 47.3188C40.1638 47.1777 40.1638 47.1777 41.2255 47.2285C41.8483 47.2583 42.4711 47.2881 43.1128 47.3188C43.1128 47.4779 43.1128 47.6369 43.1128 47.8008C44.5594 48.0393 44.5594 48.0393 46.0352 48.2827C46.0352 48.4417 46.0352 48.6008 46.0352 48.7646C43.4635 48.7646 40.8918 48.7646 38.2422 48.7646C38.5637 48.2875 38.8851 47.8104 39.2163 47.3188Z" fill="#C0A188"/>
<path d="M31.4219 41.054C32.7077 41.054 33.9936 41.054 35.3184 41.054C35.1577 41.6901 34.9969 42.3262 34.8313 42.9816C32.5178 43.5238 32.5178 43.5238 31.4219 42.9816C31.4219 42.3455 31.4219 41.7094 31.4219 41.054Z" fill="#E77A1F"/>
<path d="M6.36993 24.1562C6.95761 24.1712 6.95761 24.1712 7.55715 24.1864C7.23569 25.2996 6.91423 26.4129 6.58302 27.5598C5.9401 27.2418 5.29717 26.9237 4.63477 26.596C4.63477 24.1981 4.63477 24.1981 6.36993 24.1562Z" fill="#DB6D0F"/>
<path d="M26.0645 40.5718C26.7074 40.5718 27.3503 40.5718 28.0127 40.5718C28.8422 41.5206 28.8422 41.5206 29.5957 42.7404C29.9762 43.3443 29.9762 43.3443 30.3643 43.9603C30.5527 44.2734 30.741 44.5865 30.9351 44.9091C29.7517 44.7284 29.7517 44.7284 28.4998 44.4272C27.9518 43.4633 27.9518 43.4633 27.5256 42.4995C27.0435 42.3404 26.5613 42.1814 26.0645 42.0175C26.0645 41.5404 26.0645 41.0633 26.0645 40.5718Z" fill="#FED3A7"/>
<path d="M37.7552 30.4517C38.2373 30.6107 38.7195 30.7697 39.2164 30.9336C39.0556 31.5697 38.8949 32.2059 38.7293 32.8613C37.0854 32.7107 37.0854 32.7107 35.3198 32.3794C34.9984 31.9022 34.6769 31.4251 34.3457 30.9336C35.0539 30.9485 35.0539 30.9485 35.7765 30.9637C37.207 31.1052 37.207 31.1052 37.7552 30.4517Z" fill="#EBC996"/>
<path d="M30.4485 14.0659C31.7255 14.5713 32.2963 14.8608 33.0056 16.0539C33.1261 16.352 33.2467 16.6502 33.3709 16.9575C32.5672 17.2755 31.7636 17.5936 30.9356 17.9213C30.2759 16.6159 30.4168 15.5072 30.4485 14.0659Z" fill="#AA944E"/>
<path d="M9.5049 23.7046C10.1478 24.3407 10.7908 24.9769 11.4532 25.6323C11.2924 25.9504 11.1317 26.2684 10.9661 26.5961C10.3232 26.5961 9.68024 26.5961 9.01783 26.5961C8.8571 26.9142 8.69637 27.2323 8.53077 27.56C8.20931 27.56 7.88784 27.56 7.55664 27.56C7.55664 26.9238 7.55664 26.2877 7.55664 25.6323C8.19957 25.4732 8.84249 25.3142 9.5049 25.1504C9.5049 24.6733 9.5049 24.1962 9.5049 23.7046Z" fill="#DDA64D"/>
<path d="M24.1172 7.31934C25.0816 7.79644 25.0816 7.79644 26.0654 8.28318C26.0554 8.64101 26.0454 8.99884 26.035 9.36751C26.0622 10.5504 26.215 11.4933 26.5525 12.6205C26.0703 12.6205 25.5881 12.6205 25.0913 12.6205C24.2811 11.8188 24.4287 10.7976 24.3303 9.69883C24.2895 9.2559 24.2487 8.81296 24.2066 8.3566C24.1623 7.84315 24.1623 7.84315 24.1172 7.31934Z" fill="#FED7B0"/>
<path d="M19.2468 6.8374C20.0629 6.97526 20.8755 7.13514 21.6822 7.31933C21.8429 8.1145 22.0036 8.90967 22.1692 9.72894C21.0441 9.41087 19.919 9.0928 18.7598 8.7651C18.7598 7.31933 18.7598 7.31933 19.2468 6.8374Z" fill="#E67517"/>
<path d="M7.06935 19.3672C7.55155 19.5262 8.03374 19.6853 8.53055 19.8491C7.88762 20.4852 7.2447 21.1214 6.58229 21.7768C7.22521 21.6178 7.86814 21.4587 8.53055 21.2949C8.53055 21.772 8.53055 22.2491 8.53055 22.7407C7.40543 22.7407 6.28031 22.7407 5.12109 22.7407C5.12109 22.1045 5.12109 21.4684 5.12109 20.813C6.0039 19.9395 6.0039 19.9395 7.06935 19.3672Z" fill="#FED3A6"/>
<path d="M40.1895 29.4878C41.1563 29.9336 42.1196 30.3868 43.0814 30.8432C43.6182 31.0948 44.155 31.3464 44.7081 31.6056C46.0342 32.3793 46.0342 32.3793 46.5213 33.8251C44.276 33.1904 42.5329 32.3432 40.6765 30.9336C40.5158 30.4565 40.3551 29.9794 40.1895 29.4878Z" fill="#E4C0CC"/>
<path d="M9.50586 20.813C12.3065 20.7527 12.3065 20.7527 13.4024 21.2949C13.4024 21.613 13.4024 21.931 13.4024 22.2587C12.438 22.2587 11.4736 22.2587 10.48 22.2587C10.48 22.7359 10.48 23.213 10.48 23.7045C10.1585 23.7045 9.83706 23.7045 9.50586 23.7045C9.50586 22.7503 9.50586 21.7961 9.50586 20.813Z" fill="#FDD2A5"/>
<path d="M61.1335 12.1384C61.2943 12.4565 61.455 12.7746 61.6206 13.1023C62.585 12.9432 63.5494 12.7842 64.543 12.6204C64.3823 13.2565 64.2215 13.8926 64.0559 14.548C63.413 14.7071 62.7701 14.8661 62.1077 15.03C62.1077 14.7119 62.1077 14.3938 62.1077 14.0661C61.6255 14.2252 61.1433 14.3842 60.6465 14.548C60.8072 13.7529 60.9679 12.9577 61.1335 12.1384Z" fill="#64D11C"/>
<path d="M41.6504 37.1982C42.6446 37.977 43.6185 38.7817 44.5728 39.6079C44.5728 39.9259 44.5728 40.244 44.5728 40.5717C43.6084 40.5717 42.644 40.5717 41.6504 40.5717C41.6504 39.4585 41.6504 38.3452 41.6504 37.1982Z" fill="#882003"/>
<path d="M35.8073 23.2227C36.2895 23.9383 36.2895 23.9383 36.7814 24.6684C37.5338 25.63 38.2905 26.5879 39.0512 27.543C39.7081 28.5302 39.9795 29.2971 40.1909 30.4515C35.8666 26.2917 35.8666 26.2917 35.6855 24.2769C35.7257 23.929 35.7659 23.5811 35.8073 23.2227Z" fill="#CD8A94"/>
<path d="M15.8374 22.2588C16.6535 22.3966 17.4661 22.5565 18.2727 22.7407C18.112 23.2178 17.9513 23.6949 17.7857 24.1865C16.8213 24.3455 15.8569 24.5046 14.8633 24.6684C15.2895 22.801 15.2895 22.801 15.8374 22.2588Z" fill="#DDC189"/>
<path d="M36.7798 46.355C37.262 46.355 37.7442 46.355 38.241 46.355C38.0888 47.2586 38.0888 47.2586 37.7539 48.2827C36.1817 49.3197 35.6674 49.3433 33.8574 49.2465C33.8574 48.9285 33.8574 48.6104 33.8574 48.2827C34.6611 48.2827 35.4647 48.2827 36.2927 48.2827C36.4535 47.6465 36.6142 47.0104 36.7798 46.355Z" fill="#FED7AF"/>
<path d="M18.2722 33.343C19.0759 33.5021 19.8795 33.6611 20.7075 33.8249C20.3861 34.6201 20.0646 35.4153 19.7334 36.2346C19.0905 35.9165 18.4476 35.5984 17.7852 35.2707C17.9459 34.6346 18.1066 33.9984 18.2722 33.343Z" fill="#FAC592"/>
<path d="M12.4277 30.9336C13.0707 31.0926 13.7136 31.2517 14.376 31.4155C14.376 31.7336 14.376 32.0517 14.376 32.3794C15.0189 32.3794 15.6618 32.3794 16.3243 32.3794C16.6457 32.0613 16.9672 31.7432 17.2984 31.4155C17.1377 32.2107 16.9769 33.0059 16.8113 33.8251C14.9922 33.5851 13.9803 33.4035 12.4277 32.3794C12.4277 31.9023 12.4277 31.4252 12.4277 30.9336Z" fill="#FED4A9"/>
<path d="M24.6043 22.2588C24.6043 22.5769 24.6043 22.8949 24.6043 23.2226C23.9614 23.3817 23.3184 23.5407 22.656 23.7046C22.9775 24.0226 23.299 24.3407 23.6302 24.6684C22.6658 24.6684 21.7014 24.6684 20.7078 24.6684C20.547 24.1913 20.3863 23.7142 20.2207 23.2226C21.8626 22.5006 22.7556 22.2588 24.6043 22.2588Z" fill="#FED1A2"/>
<path d="M50.418 15.03C51.6235 15.2686 51.6235 15.2686 52.8533 15.512C52.8432 16.0388 52.8332 16.5656 52.8229 17.1083C52.763 18.8584 52.763 18.8584 53.3404 20.3312C53.0189 20.3312 52.6974 20.3312 52.3662 20.3312C51.1829 18.575 51.3133 17.5782 51.3921 15.512C51.0706 15.3529 50.7492 15.1939 50.418 15.03Z" fill="#6BF302"/>
<path d="M46.0352 32.8613C47.8032 33.1794 49.5712 33.4975 51.3929 33.8252C51.3929 34.1432 51.3929 34.4613 51.3929 34.789C51.7143 34.9481 52.0358 35.1071 52.367 35.2709C49.8616 35.0609 48.1028 34.8776 46.0352 33.3433C46.0352 33.1842 46.0352 33.0252 46.0352 32.8613Z" fill="#FDE9E1"/>
<path d="M24.4214 13.5239C24.8031 13.5438 25.1849 13.5637 25.5782 13.5842C25.103 14.1478 24.6256 14.7098 24.1474 15.2709C23.8818 15.584 23.6162 15.8971 23.3426 16.2197C23.116 16.4632 22.8893 16.7067 22.6558 16.9576C22.495 16.9576 22.3343 16.9576 22.1687 16.9576C22.1078 15.8131 22.1078 15.8131 22.1687 14.548C23.1428 13.5842 23.1428 13.5842 24.4214 13.5239Z" fill="#FDD9B5"/>
<path d="M39.7034 41.5356C40.0248 41.5356 40.3463 41.5356 40.6775 41.5356C40.6775 42.4899 40.6775 43.4441 40.6775 44.4272C40.0346 44.5862 39.3917 44.7453 38.7293 44.9091C38.6684 43.7645 38.6684 43.7645 38.7293 42.4995C39.0507 42.1814 39.3722 41.8634 39.7034 41.5356Z" fill="#FDCC9C"/>
<path d="M68.4405 41.0538C67.6502 41.4578 66.8585 41.8588 66.066 42.2586C65.4049 42.5941 65.4049 42.5941 64.7304 42.9363C63.5698 43.4634 63.5698 43.4634 62.5957 43.4634C63.0828 42.0177 63.0828 42.0177 63.9313 41.5433C64.2741 41.4215 64.6169 41.2998 64.9701 41.1743C65.4806 40.9842 65.4806 40.9842 66.0014 40.7903C66.9793 40.5719 66.9793 40.5719 68.4405 41.0538Z" fill="#24725D"/>
<path d="M30.448 20.3312C30.2873 20.8083 30.1266 21.2854 29.961 21.777C29.6395 21.777 29.318 21.777 28.9868 21.777C28.9868 21.4589 28.9868 21.1408 28.9868 20.8131C28.5046 20.8131 28.0225 20.8131 27.5256 20.8131C27.5256 21.1312 27.5256 21.4493 27.5256 21.777C27.8471 21.936 28.1686 22.095 28.4998 22.2589C27.6961 22.2589 26.8925 22.2589 26.0645 22.2589C26.0645 21.7818 26.0645 21.3047 26.0645 20.8131C27.5045 20.1007 28.8613 20.3021 30.448 20.3312Z" fill="#FED4AA"/>
<path d="M79.1555 53.1021C79.3163 53.5792 79.477 54.0563 79.6426 54.5478C79.1789 55.0326 78.7114 55.5139 78.2423 55.9936C77.9824 56.262 77.7224 56.5303 77.4546 56.8068C76.7202 57.4394 76.7202 57.4394 75.7461 57.4394C76.5985 55.5719 76.5985 55.5719 77.6944 55.0297C77.8551 54.5526 78.0158 54.0755 78.1814 53.584C78.5029 53.4249 78.8243 53.2659 79.1555 53.1021Z" fill="#CC1614"/>
<path d="M34.832 29.0059C36.0375 29.2444 36.0375 29.2444 37.2674 29.4878C37.2674 30.1239 37.2674 30.7601 37.2674 31.4155C36.6244 31.2564 35.9815 31.0974 35.3191 30.9336C35.1584 30.2974 34.9976 29.6613 34.832 29.0059Z" fill="#C16510"/>
<path d="M39.7034 36.7163C40.0248 36.7163 40.3463 36.7163 40.6775 36.7163C40.6775 37.6705 40.6775 38.6247 40.6775 39.6078C39.7338 39.4572 39.7338 39.4572 38.7293 39.1259C38.5685 38.6488 38.4078 38.1717 38.2422 37.6802C38.7244 37.6802 39.2066 37.6802 39.7034 37.6802C39.7034 37.3621 39.7034 37.044 39.7034 36.7163Z" fill="#FFD9B3"/>
<path d="M4.63477 29.0059C5.27769 29.0059 5.92062 29.0059 6.58302 29.0059C6.58302 29.642 6.58302 30.2781 6.58302 30.9336C6.90449 31.0926 7.22595 31.2516 7.55715 31.4155C7.86157 32.4094 7.86157 32.4094 8.04422 33.3432C6.58302 32.8612 6.58302 32.8612 5.6089 31.4155C5.6089 30.7793 5.6089 30.1432 5.6089 29.4878C5.28743 29.3287 4.96597 29.1697 4.63477 29.0059Z" fill="#EBA13B"/>
<path d="M42.625 9.24707C42.625 10.6928 42.625 10.6928 41.7727 11.572C41.411 11.8683 41.0494 12.1646 40.6768 12.4699C40.3151 12.77 39.9535 13.07 39.5809 13.3792C39.2996 13.6059 39.0183 13.8327 38.7285 14.0663C38.7285 12.6205 38.7285 12.6205 39.5809 11.7414C39.9425 11.4451 40.3042 11.1487 40.6768 10.8434C41.0384 10.5434 41.4001 10.2433 41.7727 9.93419C42.054 9.70744 42.3352 9.48069 42.625 9.24707Z" fill="#C32D10"/>
<path d="M4.63528 21.2949C4.63528 23.0246 4.31169 23.2749 3.17408 24.5178C2.90285 24.8178 2.63162 25.1179 2.35216 25.427C2.1412 25.6538 1.93024 25.8805 1.71289 26.1142C1.71289 24.3845 2.03648 24.1341 3.17408 22.8913C3.44532 22.5912 3.71655 22.2912 3.99601 21.982C4.20697 21.7553 4.41793 21.5285 4.63528 21.2949Z" fill="#E9A23F"/>
<path d="M19.7327 39.6079C20.5363 40.4031 21.34 41.1983 22.168 42.0175C20.7677 42.0778 20.7677 42.0778 19.2456 42.0175C18.9242 41.6995 18.6027 41.3814 18.2715 41.0537C18.7537 41.0537 19.2359 41.0537 19.7327 41.0537C19.7327 40.5766 19.7327 40.0995 19.7327 39.6079Z" fill="#C2B373"/>
<path d="M61.6211 33.8251C61.7819 34.1431 61.9426 34.4612 62.1082 34.7889C60.9831 34.948 59.858 35.107 58.6987 35.2708C58.6987 34.9528 58.6987 34.6347 58.6987 34.307C58.3773 34.148 58.0558 33.9889 57.7246 33.8251C60.5252 33.2829 60.5252 33.2829 61.6211 33.8251Z" fill="#F6F0EB"/>
<path d="M21.1944 29.4878C21.6765 29.6468 22.1587 29.8059 22.6555 29.9697C22.4948 30.4468 22.3341 30.9239 22.1685 31.4155C20.9204 31.9878 20.9204 31.9878 19.7332 32.3793C19.5724 31.7432 19.4117 31.1071 19.2461 30.4516C19.4068 30.7697 19.5676 31.0878 19.7332 31.4155C20.0546 31.2565 20.3761 31.0974 20.7073 30.9336C20.868 30.4565 21.0288 29.9794 21.1944 29.4878Z" fill="#FED7B1"/>
<path d="M55.7761 23.7046C57.2227 23.9431 57.2227 23.9431 58.6985 24.1865C58.5378 24.6636 58.3771 25.1407 58.2115 25.6323C56.7649 25.3937 56.7649 25.3937 55.2891 25.1504C55.4498 24.6733 55.6105 24.1962 55.7761 23.7046Z" fill="#70F30D"/>
<path d="M10.9668 15.9939C11.6097 16.1529 12.2526 16.312 12.9151 16.4758C12.9151 17.271 12.9151 18.0662 12.9151 18.8854C12.2721 18.5674 11.6292 18.2493 10.9668 17.9216C10.9668 17.2855 10.9668 16.6493 10.9668 15.9939Z" fill="#E46D0A"/>
<path d="M28.0137 5.87354C28.4959 5.87354 28.9781 5.87354 29.4749 5.87354C29.6356 6.50967 29.7963 7.14581 29.9619 7.80123C29.6405 7.80123 29.319 7.80123 28.9878 7.80123C28.8271 8.27833 28.6663 8.75544 28.5007 9.247C28.34 9.247 28.1793 9.247 28.0137 9.247C28.0137 8.13376 28.0137 7.02051 28.0137 5.87354Z" fill="#C3B271"/>
<path d="M26.0659 45.873C26.5481 46.0321 27.0303 46.1911 27.5271 46.355C27.862 47.3489 27.862 47.3489 28.0142 48.2827C26.827 48.1019 26.827 48.1019 25.5789 47.8007C25.4181 47.4827 25.2574 47.1646 25.0918 46.8369C25.4133 46.8369 25.7347 46.8369 26.0659 46.8369C26.0659 46.5188 26.0659 46.2008 26.0659 45.873Z" fill="#C3B16F"/>
<path d="M30.448 35.7527C31.4124 35.9912 31.4124 35.9912 32.3963 36.2346C31.9141 36.3936 31.4319 36.5527 30.9351 36.7165C31.2565 37.3527 31.578 37.9888 31.9092 38.6442C31.2663 38.4852 30.6233 38.3262 29.9609 38.1623C30.1217 37.3671 30.2824 36.572 30.448 35.7527Z" fill="#FED9B5"/>
<path d="M34.3452 21.2949C34.8274 21.2949 35.3096 21.2949 35.8064 21.2949C35.8064 22.2491 35.8064 23.2033 35.8064 24.1865C34.6009 23.7094 34.6009 23.7094 33.3711 23.2226C33.6926 23.0636 34.014 22.9045 34.3452 22.7407C34.3452 22.2636 34.3452 21.7865 34.3452 21.2949Z" fill="#F4AF75"/>
<path d="M17.2988 10.2108C18.9427 10.1205 18.9427 10.1205 20.7083 10.2108C21.0297 10.6879 21.3512 11.165 21.6824 11.6566C20.2885 12.3462 19.2794 11.9457 17.7859 11.6566C17.6252 11.1795 17.4644 10.7024 17.2988 10.2108Z" fill="#FFB967"/>
<path d="M47.9824 15.9939C48.9468 15.9939 49.9112 15.9939 50.9048 15.9939C50.9048 16.471 50.9048 16.9481 50.9048 17.4397C50.4226 17.4397 49.9404 17.4397 49.4436 17.4397C49.4436 17.1216 49.4436 16.8035 49.4436 16.4758C49.1222 16.4758 48.8007 16.4758 48.4695 16.4758C48.3088 16.7939 48.148 17.112 47.9824 17.4397C47.9824 16.9626 47.9824 16.4855 47.9824 15.9939Z" fill="#53CC03"/>
<path d="M16.3233 2.98193C16.6447 2.98193 16.9662 2.98193 17.2974 2.98193C16.9321 3.91566 16.9321 3.91566 16.3233 4.90963C15.2882 5.27107 15.2882 5.27107 14.375 5.39155C14.5357 4.75541 14.6965 4.11927 14.8621 3.46386C15.3443 3.62289 15.8265 3.78193 16.3233 3.94578C16.3233 3.62771 16.3233 3.30964 16.3233 2.98193Z" fill="#FED5AD"/>
</svg>
