<svg width="85" height="75" viewBox="0 0 85 75" fill="none" xmlns="http://www.w3.org/2000/svg">
<path d="M66.8684 69.2805C64.778 70.452 62.5436 71.4018 60.2581 72.1406C46.9313 76.4511 30.5703 76.2365 18.3238 69.0916C18.2252 69.0348 18.1267 68.9761 18.0281 68.9193C-1.7024 57.2549 0.200348 30.3602 12.9605 14.6531C18.9018 7.33951 27.8489 0.889466 37.7738 0.533778C47.5245 0.183591 57.7242 2.86408 65.6062 8.50741C69.8646 11.5564 72.6676 14.9006 74.7049 19.6236C80.1194 32.1735 84.2603 49.9872 75.3587 62.0109C73.1376 65.0141 70.183 67.425 66.8684 69.2805Z" fill="#F5EDB5"/>
<path d="M69.8686 22.3704C66.2886 16.2467 60.6069 10.926 53.5323 9.29242C46.4576 7.66066 38.0696 10.5667 35.0033 16.9452C33.4454 20.1849 33.3526 23.938 34.0519 27.4453C34.6906 30.6465 35.6779 36.3668 38.9471 38.0444C42.0059 39.6157 47.3484 39.821 50.7805 40.3967C57.1862 41.4711 63.7055 42.6354 70.2268 42.6482C71.6368 42.65 73.3216 42.7436 74.6823 42.3164C76.8371 41.638 76.6021 41.33 76.225 39.337C75.1296 33.5745 72.8478 27.4637 69.8686 22.3704Z" fill="#F5BA78"/>
<path d="M69.2533 23.1072C65.6734 16.9835 59.9917 11.6628 52.917 10.0292C45.8424 8.39748 37.4544 11.3035 34.388 17.682C32.8302 20.9217 32.7373 24.6748 33.4367 28.1821C34.0753 31.3833 35.0627 37.1037 38.3319 38.7813C41.3907 40.3525 46.7331 40.5579 50.1653 41.1336C56.5709 42.208 63.0903 43.3722 69.6115 43.385C71.0215 43.3869 72.7063 43.4804 74.0671 43.0532C76.2219 42.3748 75.9869 42.0668 75.6097 40.0738C74.5143 34.3113 72.2325 28.2005 69.2533 23.1072Z" fill="#CD7338"/>
<path d="M74.4321 43.1139C74.9286 42.8114 75.446 42.485 75.7302 41.9882C76.0145 41.4913 75.9747 40.7708 75.4858 40.4554C75.2015 40.2721 74.8376 40.2629 74.4965 40.2592C66.9234 40.1786 59.3485 40.0961 51.7754 40.0154C51.8019 40.0154 53.5057 43.2184 53.752 43.5319C54.6485 44.6778 55.7325 45.6862 56.9397 46.5204C58.4369 47.5545 60.0838 48.9277 61.9448 49.3696C64.5374 49.9838 66.6979 47.5545 68.7883 46.3958C70.6929 45.3379 72.5748 44.2451 74.4321 43.1139Z" fill="#D6813C"/>
<path d="M74.1762 42.5013C74.6727 42.1988 75.1901 41.8725 75.4744 41.3756C75.7587 40.8788 75.7189 40.1582 75.2299 39.8429C74.9456 39.6595 74.5818 39.6503 74.2406 39.6467C66.6676 39.566 59.0926 39.4835 51.5195 39.4028C51.5461 39.4028 53.2498 42.6059 53.4962 42.9194C54.3926 44.0653 55.4766 45.0737 56.6839 45.9079C58.181 46.9419 59.8279 48.3152 61.689 48.757C64.2816 49.3713 66.442 46.9419 68.5324 45.7832C70.437 44.7253 72.3189 43.6326 74.1762 42.5013Z" fill="#C55F2F"/>
<path d="M28.3554 16.9818C27.9707 16.01 27.7414 14.987 27.8001 13.8649C27.9158 11.6025 29.8014 9.25932 32.1344 9.45733C34.1243 9.626 35.4831 11.4356 36.4591 13.1224C36.2033 11.7601 35.9512 10.3245 36.4269 9.0173C36.9026 7.71006 38.3827 6.6375 39.7397 7.07936C40.7744 7.41671 41.3657 8.47827 41.6197 9.50683C41.8717 10.5354 41.8907 11.619 42.2773 12.6072C42.0745 9.99086 45.084 7.65872 47.6785 8.4251C50.273 9.19148 51.4252 12.7502 49.7461 14.8128C49.6381 13.3461 50.9515 11.9728 52.46 11.795C53.9705 11.6171 55.498 12.5192 56.2011 13.8228C56.9042 15.1263 56.8416 16.7453 56.2219 18.0892C57.3552 16.076 60.5467 15.5389 62.3168 17.0624C64.0868 18.586 63.903 21.7157 61.968 23.0376C63.7514 22.3648 65.927 21.8331 67.4489 22.9533C68.7489 23.9103 69.0086 25.7786 68.495 27.2802C67.9814 28.7818 66.8614 30.0047 65.7678 31.1799C67.1835 29.7077 70.0035 29.8874 71.207 31.5283C72.4104 33.1692 71.6561 35.8039 69.7515 36.6106C70.7142 35.1952 73.1988 35.4904 74.2032 36.8801C76.1647 39.5954 74.1558 41.5682 71.8551 42.7654C72.3308 42.7489 72.8273 43.0753 72.6568 43.6272C72.5051 44.1185 71.9859 44.399 71.5102 44.6282C69.7496 45.4771 67.989 46.326 66.2284 47.1749C64.7274 47.8991 63.1487 48.6398 61.4734 48.5885C59.1822 48.5188 57.2491 47.0025 55.4714 45.6018C50.7582 41.8854 45.8023 38.4569 40.6437 35.3418C38.5704 34.0896 37.1774 33.1527 35.7371 31.2734C34.3517 29.4657 33.4932 27.3682 32.3618 25.4174C31.3536 23.683 31.0409 21.723 29.9985 20.0399C29.3807 19.0426 28.7743 18.0433 28.3554 16.9818Z" fill="#4D9A12"/>
<path d="M39.1535 11.9325C40.1882 12.2698 40.7795 13.3314 41.0335 14.3599C41.2855 15.3885 41.3045 16.4721 41.6911 17.4603C41.4883 14.844 44.4978 12.5118 47.0923 13.2782C48.9515 13.8264 50.0696 15.8084 49.9369 17.6473C50.4392 17.1138 51.1328 16.7361 51.8738 16.6481C53.3842 16.4702 54.9117 17.3723 55.6149 18.6759C56.318 19.9794 56.2554 21.5984 55.6357 22.9423C56.769 20.9292 59.9605 20.392 61.7305 21.9156C61.994 22.1429 62.2138 22.4069 62.392 22.6948C63.9176 21.2335 63.946 18.4687 62.3162 17.0661C60.5461 15.5425 57.3546 16.0797 56.2213 18.0928C56.841 16.7489 56.9055 15.1318 56.2005 13.8264C55.4974 12.5228 53.9699 11.6208 52.4594 11.7986C51.7165 11.8866 51.0229 12.2625 50.5226 12.7979C50.6552 10.9607 49.5371 8.9788 47.6779 8.42876C45.0834 7.66238 42.072 9.99269 42.2767 12.6108C41.8901 11.6226 41.8711 10.5391 41.6191 9.51049C41.367 8.48193 40.7738 7.42037 39.7391 7.08302C38.3821 6.64116 36.902 7.71372 36.4263 9.02096C35.9772 10.2549 36.1762 11.6061 36.4169 12.9024C37.0991 12.0993 38.1585 11.6079 39.1535 11.9325Z" fill="#3F7D0F"/>
<path d="M61.3828 27.8906C63.1662 27.2177 65.3418 26.686 66.8636 27.8063C67.2351 28.0794 67.5175 28.4278 67.7259 28.8183C68.0424 28.3361 68.3096 27.8283 68.4973 27.2819C69.0108 25.7803 68.7512 23.912 67.4511 22.955C66.0733 21.9411 64.1611 22.2803 62.4877 22.8523C63.3803 24.4877 62.9766 26.8015 61.3828 27.8906Z" fill="#3F7D0F"/>
<path d="M31.5482 14.3086C33.5381 14.4773 34.897 16.2869 35.873 17.9736C35.6171 16.6114 35.3651 15.1758 35.8408 13.8686C35.9583 13.5459 36.1383 13.236 36.3619 12.961C35.3935 11.3219 34.0593 9.62231 32.1319 9.4573C29.799 9.25929 27.9133 11.6006 27.7977 13.8649C27.756 14.6844 27.8678 15.4508 28.0801 16.1842C28.8723 15.0108 30.1269 14.1876 31.5482 14.3086Z" fill="#3F7D0F"/>
<path d="M74.2046 36.882C73.4825 35.8828 71.9948 35.4501 70.8577 35.8113C71.8944 34.658 72.1388 32.7989 71.2083 31.5302C70.5223 30.5933 69.3094 30.1349 68.1306 30.1863C68.1988 30.839 68.1211 31.5173 67.9107 32.1334C67.3971 33.635 66.2771 34.8579 65.1836 36.0331C66.5993 34.5608 69.4193 34.7405 70.6227 36.3815C71.5532 37.6502 71.3088 39.5093 70.2721 40.6625C71.377 40.3105 72.8116 40.7102 73.5545 41.6508C74.9437 40.47 75.6468 38.8768 74.2046 36.882Z" fill="#3F7D0F"/>
<path d="M49.3414 15.4673C47.0577 17.2678 46.9175 14.2646 47.1847 12.6823C47.4784 10.9332 48.4544 9.2648 49.529 7.91906C49.7564 7.63487 50.0388 7.33785 50.4083 7.31952C50.7381 7.30302 51.03 7.51203 51.282 7.71921C52.4324 8.65977 53.4577 9.74516 54.3238 10.9369C52.7754 12.5595 51.1096 14.0739 49.3414 15.4673Z" fill="#D9AF23"/>
<path d="M64.2254 30.9342C61.3352 31.4824 62.6732 28.7689 63.6777 27.4947C64.7882 26.0848 66.4616 25.058 68.065 24.3613C68.4023 24.2146 68.7965 24.0808 69.1338 24.233C69.4333 24.3687 69.5868 24.6858 69.71 24.9829C70.2671 26.3378 70.6424 27.7605 70.8262 29.2071C68.6714 29.9331 66.4635 30.5107 64.2254 30.9342Z" fill="#E2CFDC"/>
<path d="M52.4646 29.6746C51.0489 31.3339 48.1228 32.8722 45.8694 32.4578C43.8984 32.0966 41.122 29.979 39.858 28.4719C38.0936 26.3653 37.2123 23.639 36.5755 21.041C35.9861 18.641 35.6583 16.142 36.0544 13.7035C36.4505 11.2669 37.633 8.88342 39.64 7.36167C41.647 5.83991 44.5314 5.31738 46.8322 6.38261C48.354 7.08848 49.493 8.38656 50.4349 9.74331C53.0123 13.4524 54.464 17.8856 54.5625 22.3555C54.6194 24.9425 54.1683 27.6799 52.4646 29.6746Z" fill="#C73A0F"/>
<path d="M50.1438 29.6545C48.802 31.2257 46.0332 32.6815 43.8992 32.2909C42.0325 31.9481 39.4039 29.9441 38.2081 28.5177C36.5384 26.5229 35.7027 23.9415 35.1 21.481C34.5428 19.2075 34.2301 16.8424 34.6054 14.5341C34.9806 12.2258 36.1006 9.97064 38.0015 8.52956C39.9023 7.08847 42.6333 6.59344 44.8108 7.60367C46.253 8.27287 47.3295 9.50128 48.2221 10.7847C50.6631 14.2976 52.0371 18.4943 52.1299 22.7259C52.1849 25.1735 51.7566 27.766 50.1438 29.6545Z" fill="#E34F22"/>
<path d="M42.9285 18.7694C42.3808 19.6623 41.5489 20.106 40.5084 18.8666C38.852 16.8901 35.4824 12.3725 39.0435 9.9762C40.5065 8.99348 42.7656 9.01365 43.3872 10.4712C44.2343 12.4568 43.8553 14.4498 43.6373 16.5821C43.5748 17.233 43.3265 18.1185 42.9285 18.7694Z" fill="#C73A0F"/>
<path d="M44.8653 21.7927C45.2614 19.2332 45.6556 16.6737 46.0517 14.1124C46.118 13.6797 46.209 13.2048 46.5615 12.9298C47.0068 12.5833 47.7005 12.7263 48.125 13.0967C48.5495 13.467 48.7675 14.0024 48.9721 14.5176C49.5217 15.9037 50.0713 17.2916 50.6209 18.6777C50.837 19.2204 51.0549 19.8162 50.873 20.3718C50.6721 20.9841 50.0486 21.3618 49.4497 21.6405C48.4983 22.0842 46.7453 22.8781 45.6708 22.416C45.1382 22.1869 44.763 21.6515 44.7402 21.0886" fill="#C73A0F"/>
<path d="M43.3796 25.6173C43.2242 25.3368 43.0915 25.0361 42.9986 24.7006C42.8565 24.1927 42.8186 23.5657 43.2336 23.2265C43.914 22.6691 44.9052 23.4355 45.5836 23.6152C46.7871 23.9324 48.1573 24.1267 49.3967 24.3009C49.8212 24.3614 50.2742 24.4329 50.585 24.7189C51.1061 25.1956 50.9924 26.0115 50.8276 26.6862C50.4864 28.0778 49.3247 30.9709 47.2609 30.1422C46.1844 29.7095 45.5609 28.6223 44.9393 27.7386C44.4086 26.9869 43.8041 26.3782 43.3796 25.6173Z" fill="#C73A0F"/>
<path d="M37.3862 17.1597C38.2598 18.4321 42.4804 22.7719 39.5997 23.9398C36.8498 25.0527 35.4266 21.5105 35.1878 19.4882C35.0968 18.7181 35.1063 17.9261 35.3489 17.1872C35.4702 16.815 35.6995 16.419 36.0937 16.331C36.63 16.21 37.0792 16.7142 37.3862 17.1597Z" fill="#C73A0F"/>
<path d="M42.1307 25.3276C42.6803 26.424 45.5874 30.8206 43.0157 30.5786C41.6152 30.4466 40.046 28.934 39.2292 27.9458C39.0434 27.7221 38.8653 27.4673 38.8558 27.1812C38.8444 26.8145 39.1155 26.4955 39.4111 26.2682C39.7086 26.0408 40.0517 25.863 40.2942 25.5806C40.6202 25.2011 40.8571 24.5943 41.3669 24.6218C41.7384 24.6383 41.9696 25.0049 42.1307 25.3276Z" fill="#C73A0F"/>
<path d="M41.894 17.1193C43.4803 19.5211 40.3817 19.3103 38.7859 18.8721C37.0234 18.3881 35.4239 17.2587 34.1655 16.0724C33.9002 15.8213 33.6273 15.5151 33.6519 15.1576C33.6728 14.8385 33.9211 14.5837 34.1617 14.3637C35.2609 13.3663 36.4909 12.5064 37.8156 11.8115C39.3014 13.4855 40.6659 15.2602 41.894 17.1193Z" fill="#E2CFDC"/>
<path d="M64.7732 37.1754C63.3575 38.8346 60.4314 40.3729 58.178 39.9585C56.207 39.5973 53.4306 37.4797 52.1666 35.9726C50.4022 33.866 49.5209 31.1397 48.8841 28.5417C48.2947 26.1417 47.9669 23.6427 48.363 21.2043C48.7591 18.7658 49.9416 16.3842 51.9486 14.8624C53.9556 13.3406 56.84 12.8181 59.1408 13.8833C60.6626 14.5892 61.8016 15.8873 62.7435 17.244C65.3209 20.9531 66.7726 25.3863 66.8711 29.8563C66.928 32.4433 66.4769 35.1806 64.7732 37.1754Z" fill="#C7390E"/>
<path d="M62.4524 37.1552C61.1106 38.7265 58.3418 40.1822 56.2078 39.7917C54.3411 39.4488 51.7125 37.4449 50.5167 36.0185C48.847 34.0237 48.0113 31.4422 47.4086 28.9817C46.8514 26.7082 46.5387 24.3431 46.914 22.0348C47.2892 19.7265 48.4092 17.4714 50.3101 16.0303C52.2109 14.5892 54.9419 14.0942 57.1194 15.1044C58.5616 15.7736 59.6381 17.002 60.5307 18.2854C62.9717 21.7983 64.3457 25.995 64.4385 30.2266C64.4916 32.6743 64.0652 35.2667 62.4524 37.1552Z" fill="#EB5E34"/>
<path d="M55.2371 26.2701C54.6894 27.163 53.8575 27.6067 52.817 26.3673C51.1606 24.3908 47.791 19.8732 51.352 17.4769C52.8151 16.4942 55.0741 16.5144 55.6958 17.972C56.5429 19.9576 56.1639 21.9505 55.9459 24.0828C55.8815 24.7337 55.6351 25.6211 55.2371 26.2701Z" fill="#C73A0F"/>
<path d="M57.1739 29.2934C57.57 26.7339 57.9642 24.1744 58.3603 21.6131C58.4266 21.1804 58.5176 20.7056 58.8701 20.4306C59.3154 20.084 60.0091 20.227 60.4336 20.5974C60.8581 20.9678 61.0761 21.5031 61.2807 22.0183C61.8303 23.4044 62.3799 24.7923 62.9295 26.1784C63.1456 26.7211 63.3635 27.317 63.1816 27.8725C62.9807 28.4849 62.3572 28.8626 61.7583 29.1412C60.8069 29.5849 59.0539 30.3788 57.9794 29.9168C57.4468 29.6876 57.0716 29.1522 57.0488 28.5894" fill="#C73A0F"/>
<path d="M55.6882 33.1178C55.5328 32.8373 55.4001 32.5366 55.3072 32.2011C55.1651 31.6932 55.1272 31.0662 55.5422 30.727C56.2226 30.1696 57.2138 30.936 57.8922 31.1157C59.0957 31.4328 60.4659 31.6272 61.7053 31.8014C62.1298 31.8619 62.5828 31.9334 62.8936 32.2194C63.4147 32.6961 63.301 33.512 63.1361 34.1867C62.795 35.5783 61.6333 38.4714 59.5695 37.6427C58.493 37.21 57.8695 36.1228 57.2479 35.2391C56.7172 34.4874 56.1127 33.8787 55.6882 33.1178Z" fill="#C73A0F"/>
<path d="M49.6948 24.6621C50.5684 25.9345 54.789 30.2743 51.9083 31.4422C49.1584 32.5551 47.7352 29.0129 47.4964 26.9906C47.4054 26.2205 47.4149 25.4285 47.6575 24.6896C47.7788 24.3174 48.0081 23.9214 48.4023 23.8334C48.9386 23.7106 49.3877 24.2166 49.6948 24.6621Z" fill="#C73A0F"/>
<path d="M54.4393 32.8281C54.9888 33.9245 57.896 38.3211 55.3243 38.0791C53.9238 37.9471 52.3546 36.4345 51.5378 35.4463C51.352 35.2226 51.1739 34.9677 51.1644 34.6817C51.153 34.315 51.4222 33.996 51.7197 33.7687C52.0172 33.5413 52.3603 33.3635 52.6028 33.0811C52.9288 32.7016 53.1657 32.0947 53.6755 32.1222C54.0451 32.1387 54.2763 32.5054 54.4393 32.8281Z" fill="#C73A0F"/>
<path d="M61.8805 30.5309C60.7453 29.5005 61.1566 27.3627 62.5988 26.7962C64.041 26.2297 65.8774 27.4856 65.8035 28.9908C65.6595 27.8559 66.6772 26.7302 67.856 26.6568C69.0366 26.5817 70.17 27.5112 70.3519 28.6425C70.5357 29.7719 69.7985 30.9599 68.7069 31.3981C69.8212 30.4154 71.815 30.6262 72.6829 31.8198C73.549 33.0134 73.079 34.9018 71.7429 35.5802C72.0537 34.8193 73.2136 34.625 73.8807 35.1273C74.5478 35.6297 74.7032 36.5978 74.4 37.3623C74.0967 38.1269 73.4202 38.7026 72.6829 39.1004C73.46 39.3058 73.7973 40.2775 73.5339 41.0127C72.7246 43.277 69.6583 44.0727 67.8332 42.6518C68.4056 43.7665 67.2419 45.1893 65.957 45.1929C64.6721 45.1966 63.5805 44.1332 63.2166 42.9396C62.8527 41.7461 63.0669 40.4627 63.3891 39.2581C62.2463 38.499 61.0883 37.729 60.1824 36.7151C59.2766 35.7012 58.6341 34.3976 58.7137 33.0574C58.7933 31.719 59.7295 30.3879 61.0807 30.0854" fill="#D9AF23"/>
<path d="M54.0465 25.2543C52.9113 24.2239 53.3226 22.0861 54.7648 21.5196C56.207 20.953 58.0434 22.209 57.9695 23.7142C57.8255 22.5793 58.8432 21.4536 60.022 21.3802C61.2027 21.3051 62.336 22.2346 62.5179 23.3659C62.7017 24.4953 61.9645 25.6833 60.8729 26.1215C61.9873 25.1388 63.981 25.3496 64.849 26.5432C65.715 27.7368 65.245 29.6252 63.909 30.3036C64.2198 29.5427 65.3796 29.3484 66.0467 29.8507C66.7138 30.3531 66.8692 31.3212 66.566 32.0857C66.2627 32.8502 65.5862 33.4259 64.849 33.8238C65.626 34.0291 65.9633 35.0009 65.6999 35.7361C64.8906 38.0004 61.8243 38.7961 59.9992 37.3752C60.5716 38.4899 59.4079 39.9127 58.123 39.9163C56.8362 39.9182 55.7465 38.8566 55.3826 37.663C55.0187 36.4695 55.2329 35.186 55.5551 33.9815C54.4123 33.2224 53.2543 32.4524 52.3485 31.4385C51.4426 30.4246 50.8001 29.121 50.8797 27.7808C50.9593 26.4424 51.8955 25.1113 53.2468 24.8088" fill="#E3DACC"/>
<path d="M59.6233 33.4057L60.4249 33.8494C59.2916 32.8208 59.6991 30.6904 61.1337 30.1183L61.0769 30.0872C59.7275 30.3897 58.7913 31.7208 58.7098 33.0592C58.6947 33.303 58.706 33.545 58.7363 33.7834C59.0055 33.6092 59.3011 33.479 59.6233 33.4057Z" fill="#782B13"/>
<path d="M72.9436 40.6807C72.6404 41.4453 71.9638 42.021 71.2266 42.4188C71.5033 42.4922 71.7231 42.6645 71.8804 42.8863C72.6214 42.4885 73.2316 41.8523 73.5311 41.0126C73.7566 40.38 73.5387 39.5752 72.9796 39.2305C73.1407 39.6925 73.1255 40.2242 72.9436 40.6807Z" fill="#E3DACC"/>
<path d="M72.5402 34.9146C73.2243 34.04 73.3418 32.7291 72.6823 31.8197C71.9792 30.8517 70.5332 30.529 69.417 30.9672C70.0954 30.397 70.4915 29.5023 70.3513 28.6406C70.1674 27.5112 69.0341 26.5816 67.8553 26.6549C66.7751 26.7228 65.8332 27.6725 65.7934 28.7047C65.6418 27.3333 63.9475 26.2644 62.5982 26.7961C61.3663 27.2801 60.8906 28.9119 61.4857 30.0175C62.763 29.7663 64.1996 30.7655 64.3379 32.0233C64.3777 30.991 65.3196 30.0413 66.3999 29.9735C67.5806 29.8983 68.7139 30.8279 68.8958 31.9591C69.036 32.8208 68.6399 33.7137 67.9615 34.2857C69.0777 33.8475 70.5237 34.1684 71.2268 35.1383C71.8864 36.0477 71.7689 37.3586 71.0847 38.2331C71.5301 38.1048 72.0531 38.1671 72.4246 38.4476C72.6198 38.5943 72.7695 38.7813 72.8775 38.9903C73.537 38.598 74.1245 38.0608 74.3993 37.3641C74.7026 36.5995 74.5472 35.6315 73.8801 35.1291C73.5086 34.8486 72.9856 34.7844 72.5402 34.9146Z" fill="#E3DACC"/>
<path d="M60.185 28.8479C56.605 22.7242 50.9233 17.4036 43.8487 15.77C36.774 14.1382 28.386 17.0442 25.3197 23.4227C23.7619 26.6624 23.669 30.4155 24.3683 33.9229C25.007 37.124 25.9944 42.8444 29.2635 44.522C32.3223 46.0932 37.6648 46.2986 41.0969 46.8743C47.5026 47.9487 54.0219 49.1129 60.5432 49.1258C61.9532 49.1276 63.638 49.2211 64.9987 48.7939C67.1535 48.1155 66.9185 47.8075 66.5414 45.8146C65.446 40.0521 63.1642 33.9412 60.185 28.8479Z" fill="#F5BA78"/>
<path d="M58.7162 29.4236C55.1363 23.2999 49.4546 17.9792 42.3799 16.3456C35.3053 14.7139 26.9173 17.6199 23.8509 23.9984C22.2931 27.2381 22.2002 30.9912 22.8996 34.4985C23.5382 37.6997 24.5256 43.4201 27.7948 45.0977C30.8536 46.6689 36.196 46.8743 39.6282 47.45C46.0338 48.5244 52.5532 49.6886 59.0744 49.7014C60.4844 49.7033 62.1692 49.7968 63.53 49.3696C65.6847 48.6912 65.4497 48.3832 65.0726 46.3902C63.9772 40.6277 61.6935 34.5169 58.7162 29.4236Z" fill="#D68E3C"/>
<path d="M43.663 47.3253C40.2308 46.7496 34.8884 46.5442 31.8296 44.973C28.5623 43.2954 27.573 37.575 26.9344 34.3738C26.235 30.8665 26.3279 27.1116 27.8857 23.8737C30.0254 19.424 34.7538 16.6665 39.8215 15.9588C33.3931 15.4546 26.5534 18.3771 23.8509 24.0002C22.2931 27.2399 22.2002 30.993 22.8996 34.5003C23.5382 37.7015 24.5256 43.4219 27.7948 45.0995C30.8536 46.6707 36.196 46.8761 39.6282 47.4518C46.0338 48.5262 52.5532 49.6904 59.0744 49.7032C60.1983 49.7051 61.4964 49.7637 62.6658 49.5712C56.2904 49.5089 49.9246 48.374 43.663 47.3253Z" fill="#D6813C"/>
<path d="M57.337 33.5598C58.2638 36.42 61.838 43.6107 58.3452 45.93C57.4583 46.5186 56.2416 46.2857 55.2637 45.8512C52.3395 44.5494 50.4197 41.803 48.8296 39.095C46.6748 35.4299 44.8365 31.5925 43.2901 27.6506C42.4884 25.6082 39.3462 19.7998 44.1865 20.4984C46.9326 20.8944 49.2996 22.0971 51.4014 23.8059C54.4279 26.2682 56.1525 29.9113 57.337 33.5598Z" fill="#D99446"/>
<path d="M37.2995 20.0747C35.6147 20.0747 35.6128 22.6067 37.2995 22.6067C38.9843 22.6085 38.9881 20.0747 37.2995 20.0747Z" fill="#D6813C"/>
<path d="M45.3401 19.3725C45.3155 19.3872 45.2928 19.4037 45.2681 19.4183C44.5044 19.906 44.5044 20.9126 45.2681 21.4003C45.2928 21.415 45.3155 21.4315 45.3401 21.4461C46.1399 21.9558 47.2088 21.2811 47.2088 20.4084C47.2088 19.5357 46.138 18.8628 45.3401 19.3725Z" fill="#D6813C"/>
<path d="M52.9348 26.402C52.6506 26.149 52.3 25.9895 51.9058 25.9895C51.5324 25.9895 51.1401 26.1472 50.8767 26.402C50.6246 26.6459 50.4332 27.0474 50.4503 27.3976C50.4673 27.7624 50.5905 28.1401 50.8767 28.3931C51.161 28.6462 51.5116 28.8057 51.9058 28.8057C52.2791 28.8057 52.6714 28.648 52.9348 28.3931C53.1869 28.1493 53.3783 27.7478 53.3612 27.3976C53.3442 27.0327 53.221 26.655 52.9348 26.402Z" fill="#D6813C"/>
<path d="M59.127 33.4663C57.9065 33.4663 57.9046 35.2997 59.127 35.2997C60.3456 35.3016 60.3475 33.4663 59.127 33.4663Z" fill="#D6813C"/>
<path d="M64.8038 65.2909C65.1563 65.8702 64.5404 69.2144 64.5328 70.056C63.9738 70.1183 63.4166 70.1807 62.8575 70.2448C62.3989 68.8019 62.2586 66.9391 62.0938 65.3477C62.09 65.3 64.4911 64.7757 64.8038 65.2909Z" fill="#E8C03A"/>
<path d="M23.2169 3.75169C23.8233 4.07987 25.0362 7.26823 25.4702 7.99793C25.0211 8.32429 24.5719 8.65247 24.1228 8.97883C22.9743 7.9576 21.8808 6.41751 20.9086 5.12493C20.8783 5.0846 22.6768 3.45833 23.2169 3.75169Z" fill="#E8C03A"/>
<path d="M68.5747 65.7897C67.8886 65.6833 65.6144 63.0945 64.9492 62.5537C65.2543 62.0971 65.5595 61.6406 65.8665 61.1841C67.3087 61.7616 68.8836 62.8415 70.2557 63.7307C70.2955 63.7582 69.1849 65.885 68.5747 65.7897Z" fill="#E34F22"/>
<path d="M31.1789 1.18471C31.1334 1.83924 28.8441 4.41523 28.3835 5.13027C27.923 4.93043 27.4625 4.72875 27.002 4.5289C27.4359 3.08965 28.3399 1.43405 29.0791 0.0021373C29.1018 -0.0418653 31.2187 0.601672 31.1789 1.18471Z" fill="#4AAA24"/>
<path d="M59.8014 48.5424C58.8538 41.5662 55.6472 34.5734 49.721 30.4959C43.7948 26.4183 34.8914 26.0699 29.5773 30.8735C26.8786 33.312 25.3379 36.7589 24.6291 40.2644C23.9809 43.4638 22.6808 49.1254 25.0612 51.8664C27.288 54.4314 32.1604 56.5601 35.1207 58.3367C40.6432 61.6552 46.2358 65.0984 52.2776 67.4745C53.5834 67.9879 55.109 68.6864 56.5379 68.7818C58.7969 68.9339 58.7003 68.5636 59.121 66.5798C60.3377 60.8375 60.5879 54.3452 59.8014 48.5424Z" fill="#F5BA78"/>
<path d="M58.9459 49.0026C57.9983 42.0264 54.7917 35.0336 48.8655 30.9561C42.9394 26.8785 34.0359 26.5301 28.7219 31.3338C26.0232 33.7722 24.4824 37.2191 23.7736 40.7246C23.1254 43.924 21.8254 49.5857 24.2057 52.3266C26.4325 54.8916 31.305 57.0203 34.2652 58.7969C39.7877 62.1154 45.3803 65.5586 51.4221 67.9347C52.7279 68.4481 54.2535 69.1466 55.6825 69.242C57.9415 69.3941 57.8448 69.0238 58.2656 67.04C59.4823 61.2977 59.7343 54.8055 58.9459 49.0026Z" fill="#CD7338"/>
<path d="M55.9977 69.429C56.5757 69.3281 57.1803 69.2145 57.637 68.8551C58.0937 68.4976 58.3344 67.8137 58.0028 67.3444C57.8095 67.0712 57.4759 66.93 57.1613 66.8035C50.1701 63.9818 43.1807 61.1602 36.1895 58.3403C36.2141 58.3513 36.5533 61.9375 36.6595 62.3171C37.0461 63.705 37.6601 65.0324 38.458 66.2443C39.4453 67.7459 40.4403 69.616 41.9943 70.6996C44.1605 72.2103 47.1037 70.7399 49.4897 70.4245C51.6672 70.1349 53.8353 69.803 55.9977 69.429Z" fill="#D6813C"/>
<path d="M55.9977 68.7671C56.5757 68.6663 57.1803 68.5526 57.637 68.1932C58.0937 67.8357 58.3344 67.1519 58.0028 66.6825C57.8095 66.4093 57.4759 66.2681 57.1613 66.1416C50.1701 63.32 43.1807 60.4983 36.1895 57.6785C36.2141 57.6895 36.5533 61.2757 36.6595 61.6552C37.0461 63.0431 37.6601 64.3705 38.458 65.5824C39.4453 67.084 40.4403 68.9541 41.9943 70.0377C44.1605 71.5484 47.1037 70.078 49.4897 69.7627C51.6672 69.4748 53.8353 69.143 55.9977 68.7671Z" fill="#C55F2F"/>
<path d="M23.4002 28.4957C23.4191 27.4561 23.6029 26.4239 24.0919 25.4045C25.0774 23.3492 27.7325 21.8604 29.8191 22.8908C31.5986 23.7691 32.1577 25.9398 32.4098 27.8576C32.6997 26.5009 33.0238 25.0781 33.9695 24.0404C34.9171 23.0027 36.7042 22.5443 37.7901 23.4445C38.6183 24.1321 38.7567 25.333 38.5918 26.3762C38.4269 27.4213 38.0251 28.4315 38.0005 29.4894C38.8249 26.9886 42.5205 25.9197 44.6279 27.5716C46.7372 29.2217 46.4264 32.9399 44.0707 34.2435C44.5388 32.8427 46.288 32.047 47.7568 32.4302C49.2255 32.8134 50.2925 34.2032 50.4384 35.6662C50.5863 37.1312 49.9002 38.6071 48.8048 39.6283C50.6355 38.1726 53.8024 38.8308 54.8542 40.8861C55.9041 42.9413 54.5225 45.7758 52.2161 46.3002C54.1302 46.3222 56.3532 46.6192 57.3312 48.2106C58.1669 49.5692 57.6818 51.3953 56.6261 52.6017C55.5686 53.8081 54.0563 54.5342 52.5876 55.2291C54.4713 54.3765 57.0166 55.5664 57.496 57.5245C57.9755 59.4826 56.2566 61.6516 54.1776 61.7084C55.6198 60.7459 57.8087 61.9193 58.201 63.5712C58.9686 66.7999 56.3419 67.9 53.7436 68.1768C54.1909 68.3345 54.5244 68.8149 54.153 69.2677C53.8232 69.6692 53.2319 69.7407 52.7032 69.7792C50.7417 69.9278 48.7802 70.0763 46.8187 70.2266C45.1471 70.3531 43.396 70.4686 41.8628 69.8122C39.7649 68.9157 38.5615 66.8109 37.4566 64.8675C34.5267 59.7137 31.2594 54.7359 27.6832 49.9781C26.2467 48.0658 25.3181 46.6907 24.7097 44.4283C24.126 42.2501 24.1431 39.9932 23.8474 37.7747C23.584 35.8019 24.0521 33.8695 23.7394 31.9334C23.5518 30.7783 23.3793 29.6324 23.4002 28.4957Z" fill="#4D9A12"/>
<path d="M35.3699 27.7293C36.1981 28.4168 36.3364 29.6178 36.1716 30.661C36.0067 31.706 35.6049 32.7163 35.5803 33.7742C36.4047 31.2733 40.1002 30.2045 42.2076 31.8564C43.7181 33.039 43.9872 35.2812 43.1533 36.9368C43.8261 36.6233 44.6145 36.5243 45.3366 36.7132C46.8053 37.0964 47.8723 38.4861 48.0182 39.9492C48.166 41.4141 47.48 42.89 46.3846 43.9113C48.2153 42.4555 51.3821 43.1137 52.4339 45.169C52.5912 45.4752 52.6917 45.7997 52.7448 46.1297C54.7252 45.3285 55.8225 42.7745 54.8541 40.8824C53.8041 38.8271 50.6354 38.1689 48.8047 39.6247C49.9001 38.6034 50.5862 37.1275 50.4383 35.6626C50.2905 34.1977 49.2235 32.8079 47.7567 32.4266C47.0346 32.2377 46.2462 32.3367 45.5735 32.6503C46.4073 30.9947 46.1382 28.7505 44.6278 27.5698C42.5185 25.9197 38.8248 26.9886 38.0004 29.4876C38.025 28.4315 38.4268 27.4195 38.5917 26.3744C38.7566 25.3293 38.6182 24.1303 37.79 23.4427C36.7041 22.5407 34.9151 22.999 33.9694 24.0386C33.0749 25.0195 32.7356 26.3451 32.457 27.634C33.3989 27.1408 34.572 27.0674 35.3699 27.7293Z" fill="#3F7D0F"/>
<path d="M49.7969 50.5829C51.711 50.6049 53.934 50.902 54.9119 52.4934C55.1507 52.8802 55.2777 53.3056 55.3194 53.7438C55.7989 53.4101 56.2442 53.0379 56.6289 52.5997C57.6864 51.3933 58.1697 49.5672 57.3339 48.2086C56.4489 46.7676 54.5443 46.3899 52.7723 46.3147C52.9675 48.1536 51.6977 50.1521 49.7969 50.5829Z" fill="#3F7D0F"/>
<path d="M27.397 27.1756C29.1766 28.0538 29.7356 30.2246 29.9877 32.1424C30.2777 30.7856 30.6017 29.3647 31.5474 28.3252C31.7824 28.0685 32.0686 27.8466 32.3832 27.6724C32.1198 25.8023 31.5417 23.7415 29.819 22.8908C27.7325 21.8604 25.0773 23.3492 24.0919 25.4045C23.7356 26.1489 23.5423 26.9006 23.4551 27.6578C24.6433 26.8566 26.1254 26.5467 27.397 27.1756Z" fill="#3F7D0F"/>
<path d="M58.2016 63.5693C57.9192 62.3812 56.7082 61.4407 55.5142 61.3637C56.9223 60.6706 57.8699 59.0352 57.4985 57.5226C57.2237 56.406 56.278 55.5407 55.1655 55.1611C54.976 55.79 54.6406 56.3914 54.2066 56.8864C53.1491 58.0928 51.6367 58.8188 50.168 59.5137C52.0518 58.6612 54.597 59.8511 55.0764 61.8092C55.4479 63.3236 54.5022 64.959 53.0922 65.6502C54.2539 65.7254 55.4289 66.6165 55.753 67.7569C57.4966 67.1628 58.7663 65.9418 58.2016 63.5693Z" fill="#3F7D0F"/>
<path d="M43.4424 34.7C40.6281 35.5415 41.6609 32.707 42.5213 31.3356C43.4708 29.8193 45.0211 28.6276 46.5391 27.7696C46.8594 27.588 47.2365 27.4157 47.5871 27.533C47.8998 27.6375 48.0874 27.9382 48.2409 28.2206C48.944 29.5095 49.4728 30.8864 49.8139 32.3073C47.752 33.2479 45.6218 34.0491 43.4424 34.7Z" fill="#D9AF23"/>
<path d="M51.2505 54.437C48.3585 53.8961 50.6497 51.8665 52.0749 51.0488C53.6517 50.1449 55.598 49.8002 57.3548 49.7342C57.7244 49.7213 58.1413 49.7397 58.3953 50.0019C58.6208 50.2347 58.6398 50.5867 58.6379 50.9057C58.6303 52.3633 58.4275 53.8191 58.0371 55.2272C55.761 55.1208 53.4906 54.855 51.2505 54.437Z" fill="#D9AF23"/>
<path d="M40.8378 49.0045C38.8819 50.0293 35.5749 50.3942 33.6437 49.1933C31.957 48.1446 30.2021 45.1744 29.6146 43.319C28.794 40.7265 29.0347 37.8791 29.4497 35.239C29.8344 32.8005 30.4977 30.3639 31.8073 28.2481C33.1188 26.1323 35.1371 24.352 37.5876 23.6681C40.038 22.9843 42.9149 23.5453 44.6338 25.3677C45.7728 26.5741 46.3243 28.1912 46.673 29.79C47.6262 34.1646 47.2529 38.7995 45.6136 42.9798C44.6679 45.3981 43.1897 47.7724 40.8378 49.0045Z" fill="#C73A0F"/>
<path d="M38.6923 48.1444C36.8408 49.1143 33.708 49.4608 31.8811 48.3241C30.2835 47.3304 28.6214 44.5179 28.0661 42.7615C27.2891 40.3065 27.5165 37.6095 27.9107 35.1105C28.2746 32.8004 28.9019 30.4939 30.1432 28.49C31.3846 26.486 33.2968 24.8011 35.6165 24.1539C37.9362 23.5067 40.6614 24.0384 42.2893 25.7636C43.3677 26.9059 43.8908 28.4368 44.2205 29.9512C45.1226 34.093 44.7701 38.4822 43.218 42.4406C42.3197 44.7306 40.9191 46.9784 38.6923 48.1444Z" fill="#E34F22"/>
<path d="M36.2202 35.4371C35.3674 36.0659 34.4236 36.176 33.9384 34.6505C33.1671 32.2176 31.7931 26.8071 36.025 25.8775C37.761 25.4962 39.8476 26.334 39.8608 27.9126C39.8779 30.0614 38.7522 31.7702 37.7269 33.6696C37.4142 34.2453 36.8418 34.9787 36.2202 35.4371Z" fill="#C73A0F"/>
<path d="M36.8438 38.9424C38.2026 36.713 39.5595 34.4817 40.9184 32.2522C41.1477 31.8745 41.4168 31.4675 41.8489 31.341C42.3947 31.1815 42.9841 31.5665 43.2342 32.0634C43.4844 32.5602 43.4787 33.1359 43.4673 33.6878C43.4389 35.1729 43.4124 36.658 43.384 38.143C43.3726 38.7242 43.3442 39.355 42.9613 39.8041C42.5387 40.2992 41.8129 40.422 41.1496 40.4642C40.0958 40.5302 38.1628 40.631 37.346 39.8133C36.9404 39.4081 36.8002 38.7756 36.9973 38.2457" fill="#C73A0F"/>
<path d="M33.9859 41.9493C33.9499 41.6339 33.9443 41.3076 33.9878 40.9611C34.0523 40.4385 34.2607 39.8445 34.7762 39.6795C35.6234 39.4081 36.245 40.4789 36.8041 40.8914C37.7952 41.6211 38.993 42.2995 40.0732 42.91C40.4428 43.119 40.8351 43.35 41.0132 43.7277C41.3108 44.3584 40.89 45.0735 40.475 45.64C39.6203 46.8061 37.4219 49.0685 35.8299 47.5504C34.998 46.7584 34.8426 45.5245 34.6076 44.4813C34.4086 43.592 34.0845 42.8092 33.9859 41.9493Z" fill="#C73A0F"/>
<path d="M31.7042 31.9351C32.0207 33.4312 34.2532 38.9865 31.13 39.0232C28.1489 39.058 28.2019 35.2573 28.7629 33.2955C28.9771 32.5493 29.2936 31.8178 29.8034 31.2201C30.0611 30.9194 30.4269 30.6352 30.8248 30.6957C31.3707 30.78 31.5924 31.4107 31.7042 31.9351Z" fill="#C73A0F"/>
<path d="M32.9399 41.2269C33.0252 42.4425 34.0164 47.5724 31.7251 46.4155C30.4781 45.7867 29.6082 43.8139 29.2349 42.602C29.1496 42.327 29.0813 42.0263 29.1856 41.7568C29.3164 41.4121 29.6916 41.2141 30.0555 41.1114C30.4193 41.0087 30.8078 40.9665 31.1414 40.7942C31.5905 40.5613 32.0454 40.0847 32.5078 40.2937C32.8432 40.4458 32.9153 40.8694 32.9399 41.2269Z" fill="#C73A0F"/>
<path d="M35.9007 33.532C36.4408 36.3335 33.6493 35.0153 32.3397 34.0307C30.8937 32.9435 29.8476 31.3172 29.1407 29.7588C28.991 29.4306 28.8583 29.0474 29.0175 28.7247C29.1596 28.4369 29.4894 28.2902 29.7983 28.1747C31.2026 27.6485 32.6789 27.2965 34.1742 27.1333C34.9058 29.2216 35.4819 31.363 35.9007 33.532Z" fill="#D9AF23"/>
<path d="M49.3436 60.4214C47.3878 61.4463 44.0807 61.8112 42.1496 60.6103C40.4629 59.5616 38.708 56.5914 38.1205 54.7359C37.2999 52.1435 37.5405 49.2961 37.9556 46.656C38.3403 44.2175 39.0036 41.7809 40.3132 39.6651C41.6246 37.5493 43.643 35.769 46.0934 35.0851C48.5439 34.4013 51.4207 34.9623 53.1396 36.7847C54.2786 37.9911 54.8301 39.6082 55.1788 41.207C56.1321 45.5816 55.7587 50.2165 54.1194 54.3968C53.1737 56.8132 51.6936 59.1894 49.3436 60.4214Z" fill="#C7390E"/>
<path d="M47.1982 59.5614C45.3466 60.5313 42.2139 60.8778 40.387 59.7411C38.7893 58.7474 37.1273 55.9349 36.572 54.1785C35.795 51.7235 36.0224 49.0265 36.4166 46.5275C36.7805 44.2174 37.4078 41.9109 38.6491 39.907C39.8904 37.903 41.8027 36.2181 44.1223 35.5709C46.442 34.9237 49.1673 35.4554 50.7952 37.1806C51.8735 38.3229 52.3966 39.8538 52.7264 41.3682C53.6285 45.5099 53.276 49.8992 51.7238 53.8576C50.8236 56.1457 49.4231 58.3954 47.1982 59.5614Z" fill="#EB5E34"/>
<path d="M44.7241 46.8521C43.8713 47.481 42.9275 47.591 42.4423 46.0656C41.671 43.6326 40.297 38.2221 44.5289 37.2926C46.2649 36.9112 48.3515 37.7491 48.3647 39.3277C48.3818 41.4765 47.2561 43.1852 46.2308 45.0847C45.9181 45.6622 45.3457 46.3938 44.7241 46.8521Z" fill="#C73A0F"/>
<path d="M45.3477 50.3575C46.7065 48.128 48.0634 45.8967 49.4223 43.6672C49.6516 43.2895 49.9207 42.8825 50.3528 42.756C50.8986 42.5965 51.488 42.9815 51.7381 43.4784C51.9883 43.9753 51.9826 44.551 51.9713 45.1028C51.9428 46.5879 51.9163 48.073 51.8879 49.5581C51.8765 50.1393 51.8481 50.77 51.4652 51.2192C51.0426 51.7142 50.3168 51.8371 49.6535 51.8792C48.5998 51.9452 46.6667 52.0461 45.8499 51.2284C45.4443 50.8232 45.3041 50.1906 45.5012 49.6608" fill="#C73A0F"/>
<path d="M42.4899 53.3643C42.4538 53.049 42.4482 52.7226 42.4918 52.3761C42.5562 51.8536 42.7647 51.2595 43.2801 51.0945C44.1273 50.8232 44.7489 51.8939 45.308 52.3064C46.2991 53.0361 47.4969 53.7145 48.5771 54.325C48.9467 54.534 49.339 54.7651 49.5171 55.1428C49.8147 55.7735 49.3939 56.4885 48.9789 57.055C48.1242 58.2211 45.9258 60.4836 44.3338 58.9655C43.5019 58.1734 43.3465 56.9395 43.1115 55.8963C42.9125 55.0071 42.5884 54.2242 42.4899 53.3643Z" fill="#C73A0F"/>
<path d="M40.2081 43.3521C40.5246 44.8482 42.7571 50.4035 39.6339 50.4402C36.6528 50.475 36.7058 46.6743 37.2668 44.7125C37.481 43.9663 37.7975 43.2348 38.3073 42.6371C38.565 42.3364 38.9308 42.0522 39.3288 42.1127C39.8746 42.1952 40.0963 42.8277 40.2081 43.3521Z" fill="#C73A0F"/>
<path d="M41.4438 52.6439C41.5291 53.8595 42.5203 58.9894 40.229 57.8325C38.982 57.2036 38.1121 55.2309 37.7388 54.019C37.6535 53.7439 37.5853 53.4433 37.6895 53.1737C37.8203 52.8291 38.1955 52.631 38.5594 52.5284C38.9232 52.4257 39.3118 52.3835 39.6453 52.2112C40.0945 51.9783 40.5493 51.5016 41.0117 51.7107C41.3472 51.8628 41.4192 52.2845 41.4438 52.6439Z" fill="#C73A0F"/>
<path d="M49.2316 53.2123C48.5778 51.8464 49.7869 50.0111 51.3428 50.0093C52.8988 50.0074 54.1135 51.8372 53.4654 53.205C53.7724 52.1012 55.1502 51.4265 56.2721 51.7841C57.3941 52.1434 58.0858 53.4158 57.8186 54.5287C57.5514 55.6434 56.4086 56.4777 55.226 56.4868C56.6398 55.979 58.4061 56.8994 58.7472 58.3203C59.0883 59.7412 57.9209 61.3198 56.42 61.4665C57.0018 60.8724 58.1521 61.1144 58.5767 61.8221C59.0012 62.5298 58.77 63.4851 58.1938 64.0828C57.6177 64.6805 56.7668 64.9702 55.9272 65.0728C56.5678 65.544 56.5033 66.5671 55.9746 67.1556C54.3466 68.9616 51.1969 68.5875 50.0541 66.6074C50.1527 67.8487 48.5228 68.747 47.3308 68.2832C46.1368 67.8193 45.5379 66.4387 45.663 65.2012C45.7862 63.9636 46.4836 62.8489 47.2493 61.8496C46.4836 60.7312 45.7085 59.5982 45.2612 58.3294C44.814 57.0607 44.723 55.6178 45.3162 54.4059C45.9094 53.194 47.2929 52.2992 48.6612 52.5083" fill="#9C3819"/>
<path d="M44.0148 45.4787C43.361 44.1127 44.5701 42.2775 46.126 42.2756C47.682 42.2738 48.8967 44.1036 48.2486 45.4732C48.5556 44.3694 49.9334 43.6947 51.0553 44.0522C52.1773 44.4116 52.869 45.684 52.6018 46.7969C52.3346 47.9116 51.1918 48.7458 50.0092 48.755C51.423 48.2472 53.1893 49.1675 53.5304 50.5885C53.8716 52.0094 52.7041 53.588 51.2032 53.7346C51.785 53.1406 52.9353 53.3826 53.3599 54.0903C53.7844 54.798 53.5532 55.7533 52.977 56.351C52.4009 56.9487 51.55 57.2383 50.7104 57.341C51.351 57.8122 51.2865 58.8353 50.7578 59.4238C49.1299 61.2297 45.9801 60.8557 44.8373 58.8756C44.9359 60.1168 43.306 61.0152 42.114 60.5514C40.92 60.0875 40.3211 58.7069 40.4462 57.4694C40.5694 56.2318 41.2668 55.1171 42.0325 54.1178C41.2668 52.9994 40.4917 51.8664 40.0444 50.5976C39.5972 49.3289 39.5062 47.886 40.0994 46.6741C40.6926 45.4622 42.0761 44.5674 43.4444 44.7764" fill="#9C3819"/>
<path d="M46.0251 55.0585L46.5975 55.7607C45.9455 54.3966 47.149 52.5687 48.7011 52.5577L48.6613 52.5082C47.293 52.2992 45.9095 53.1939 45.3163 54.4058C45.2083 54.6258 45.1249 54.8531 45.0586 55.086C45.3751 55.0237 45.7011 55.009 46.0251 55.0585Z" fill="#782B13"/>
<path d="M55.5596 66.6349C54.9835 67.2326 54.1325 67.5223 53.293 67.625C53.5204 67.7936 53.6587 68.032 53.7194 68.296C54.5608 68.197 55.372 67.8266 55.9765 67.1574C56.4314 66.6532 56.5413 65.8264 56.1566 65.3057C56.1243 65.7897 55.9045 66.2756 55.5596 66.6349Z" fill="#782B13"/>
<path d="M57.4182 61.1401C58.3904 60.5772 59.0083 59.4057 58.7486 58.3221C58.4719 57.1689 57.2552 56.3457 56.0518 56.3475C56.9027 56.0651 57.6153 55.3794 57.82 54.5305C58.0872 53.4158 57.3974 52.1434 56.2735 51.7859C55.2445 51.4577 54.005 51.9967 53.5672 52.9391C53.9576 51.6117 52.7997 50.0074 51.3442 50.0093C50.0138 50.0111 48.9412 51.3514 49.0643 52.5926C50.3474 52.8236 51.2912 54.2702 50.933 55.4858C51.3708 54.5434 52.6102 54.0043 53.6393 54.3325C54.7612 54.6919 55.4529 55.9643 55.1857 57.0772C54.981 57.9261 54.2685 58.6118 53.4175 58.8941C54.621 58.8923 55.8377 59.7155 56.1143 60.8687C56.374 61.9523 55.7562 63.1239 54.7839 63.6867C55.2464 63.7289 55.7069 63.9764 55.9419 64.3706C56.0651 64.5778 56.1314 64.8051 56.1522 65.038C56.916 64.9133 57.6684 64.6273 58.1933 64.0828C58.7695 63.4851 59.0007 62.5298 58.5762 61.8221C58.3412 61.4316 57.8806 61.1823 57.4182 61.1401Z" fill="#782B13"/>
<path d="M48.3132 51.0377C47.3656 44.0615 44.159 37.0687 38.2328 32.9912C32.3085 28.9118 23.405 28.5652 18.091 33.367C15.3923 35.8055 13.8515 39.2524 13.1427 42.7579C12.4946 45.9573 11.1945 51.6189 13.5748 54.3599C15.8016 56.9249 20.6741 59.0535 23.6344 60.8301C29.1569 64.1486 34.7495 67.5919 40.7913 69.968C42.097 70.4813 43.6226 71.1799 45.0516 71.2752C47.3106 71.4274 47.214 71.057 47.6347 69.0733C48.8514 63.3328 49.1016 56.8387 48.3132 51.0377Z" fill="#F5BA78"/>
<path d="M46.7291 51.0378C45.7815 44.0615 42.5749 37.0688 36.6488 32.9912C30.7226 28.9136 21.8191 28.5653 16.5051 33.3689C13.8064 35.8074 12.2656 39.2543 11.5568 42.7598C10.9086 45.9591 9.60857 51.6208 11.9889 54.3618C14.2157 56.9268 19.0882 59.0554 22.0484 60.832C27.5709 64.1505 33.1635 67.5937 39.2053 69.9699C40.5111 70.4832 42.0367 71.1818 43.4657 71.2771C45.7247 71.4293 45.628 71.0589 46.0488 69.0752C47.2655 63.3328 47.5175 56.8388 46.7291 51.0378Z" fill="#D68E3C"/>
<path d="M25.8387 62.1778C22.8804 60.3993 18.006 58.2725 15.7792 55.7076C13.3989 52.9666 14.699 47.3067 15.3471 44.1055C16.0578 40.6 17.5986 37.1531 20.2954 34.7147C24.0023 31.365 29.4566 30.5234 34.4276 31.7023C28.6625 28.9045 21.1899 29.1337 16.5051 33.3671C13.8064 35.8056 12.2656 39.2524 11.5568 42.758C10.9086 45.9573 9.60857 51.619 11.9889 54.36C14.2157 56.925 19.0882 59.0536 22.0484 60.8302C27.5709 64.1487 33.1635 67.5919 39.2053 69.9681C40.2458 70.3769 41.4265 70.9031 42.5863 71.1488C36.6999 68.78 31.2362 65.4193 25.8387 62.1778Z" fill="#D6813C"/>
<path d="M43.8466 54.3727C43.5984 57.3612 44.1271 65.3238 39.99 66.2057C38.9401 66.4294 37.9015 65.773 37.1643 65.0158C34.9564 62.7497 34.242 59.5063 33.8155 56.4188C33.2375 52.2386 33.0196 48.0161 33.1124 43.8011C33.1617 41.6174 32.4965 35.0922 36.7151 37.494C39.1068 38.8563 40.8352 40.8309 42.122 43.1777C43.9755 46.5567 44.1631 50.5591 43.8466 54.3727Z" fill="#D99446"/>
<path d="M22.9401 42.1052C22.7222 41.2105 21.3254 41.0198 20.8801 41.8448C20.5787 42.404 20.5939 43.1924 20.8232 43.7773C21.1094 44.5107 22.0247 44.6335 22.4948 43.9881C22.8624 43.4784 23.0879 42.7176 22.9401 42.1052Z" fill="#D6813C"/>
<path d="M30.87 38.1137C30.8112 37.9084 30.6786 37.6682 30.5194 37.5252C30.0304 37.0907 29.2686 36.9898 28.7228 37.3969C28.5105 37.5179 28.3418 37.681 28.2167 37.8864C28.0898 38.0991 28.0253 38.3282 28.0234 38.5758C28.0405 38.9369 28.1675 39.2798 28.4366 39.5401C28.6924 39.7877 29.0715 39.9398 29.4334 39.9398C29.6874 39.9398 29.9262 39.8775 30.146 39.7528C30.3583 39.6318 30.5269 39.4686 30.652 39.2633C30.7923 39.0855 30.8681 38.8819 30.8984 38.6601C30.923 38.4804 30.9211 38.2934 30.87 38.1137Z" fill="#D6813C"/>
<path d="M24.3853 55.3794C24.2735 55.3134 24.1276 55.2584 24.0025 55.2217C23.1914 54.9816 22.3594 55.6361 22.3594 56.4318C22.3594 57.2257 23.1914 57.8821 24.0025 57.6419C24.1276 57.6052 24.2735 57.5502 24.3853 57.4842C24.7662 57.2569 25.0088 56.87 25.0088 56.4318C25.0088 55.9936 24.7643 55.6068 24.3853 55.3794Z" fill="#D6813C"/>
<path d="M37.4591 63.177C35.4843 63.177 35.4805 66.1472 37.4591 66.1472C39.4338 66.1472 39.4376 63.177 37.4591 63.177Z" fill="#D6813C"/>
<path d="M29.1142 48.7388C28.648 48.7388 28.2007 49.1348 28.2235 49.6005C28.2443 50.068 28.6158 50.4622 29.1142 50.4622C29.5804 50.4622 30.0277 50.0662 30.0049 49.6005C29.9841 49.133 29.6145 48.7388 29.1142 48.7388Z" fill="#D6813C"/>
<path d="M35.213 48.3005C33.4846 48.3005 33.4827 50.8985 35.213 50.8985C36.9414 50.9004 36.9452 48.3005 35.213 48.3005Z" fill="#D6813C"/>
<path d="M10.4123 3.56621C7.04837 2.92818 3.47788 4.72678 1.64905 7.53195C-0.179786 10.3371 -0.40152 13.9453 0.561223 17.1282C1.82151 21.2993 4.34586 25.32 8.05659 27.8575C10.9012 29.8027 16.8634 30.0759 18.1408 26.0699L10.4123 3.56621Z" fill="#B8350E"/>
<path d="M14.0828 27.8777C7.11429 27.654 4.58804 21.4405 3.24626 15.711C2.4067 12.123 2.89755 8.04171 5.44276 5.30989C7.98796 2.57623 12.8642 1.83552 15.6312 4.35833C17.4031 5.97359 17.9793 8.43224 18.4701 10.7387C19.0008 13.234 19.5333 15.7312 20.0639 18.2265C20.5984 20.7401 21.0627 23.5985 19.4954 25.6684C18.2882 27.258 16.1201 27.9437 14.0828 27.8777Z" fill="#EB5E34"/>
<path d="M14.1732 15.0728C11.8478 18.1108 8.74735 10.9274 8.38726 9.66785C8.09162 8.63379 7.94001 7.40171 8.67154 6.59317C9.51678 5.65811 11.1732 5.84145 12.1302 6.6665C13.0892 7.49338 13.5042 8.74746 13.8017 9.9557C14.0765 11.0741 14.285 12.2072 14.4271 13.3476C14.5011 13.9398 14.539 14.5943 14.1732 15.0728Z" fill="#C73A0F"/>
<path d="M8.96483 20.267C10.6591 19.0423 10.642 17.526 9.47842 16.1509C9.11833 15.7256 5.04563 11.7672 4.82389 11.879C4.25345 12.1651 3.95022 12.8068 3.91611 13.4265C3.882 14.0462 4.07152 14.6549 4.2724 15.2452C4.68555 16.4681 5.14797 17.6764 5.65777 18.8644C6.00648 19.6785 6.51059 20.5897 7.407 20.7382C7.9566 20.8299 8.51567 20.5915 8.96483 20.267Z" fill="#C73A0F"/>
<path d="M11.3138 26.3304C10.4136 26.092 8.38012 24.8306 8.32705 23.8681C8.27588 22.9569 10.4648 19.9702 11.3877 19.8052C12.1913 19.6622 12.9778 20.2617 13.3 20.9896C13.6221 21.7175 13.5899 22.5388 13.5539 23.329C13.5198 24.0423 13.48 24.783 13.1313 25.4118C12.7807 26.0389 12.0264 26.5192 11.3138 26.3304Z" fill="#C73A0F"/>
<path d="M16.9129 14.1579C17.6918 14.0883 18.3058 14.8198 18.5389 15.5422C18.918 16.7119 18.6185 18.1512 17.5762 18.8479C16.5661 19.5226 14.5344 19.1669 14.1516 17.9257C13.8579 16.9778 15.9027 14.2478 16.9129 14.1579Z" fill="#C73A0F"/>
<path d="M18.3955 24.7903C16.1914 27.5881 13.1706 22.2216 14.6223 20.6265C14.9577 20.258 15.5376 20.214 16.0379 20.2892C17.0708 20.4468 18.0506 21.0372 18.5547 21.9246C19.0588 22.8101 19.0285 23.9854 18.3955 24.7903Z" fill="#C73A0F"/>
<path d="M15.9475 18.6626C16.0517 24.0511 10.4648 21.5081 10.0023 17.7807C9.80335 16.1765 10.984 14.3669 12.6518 14.3229C13.6846 14.2954 14.6531 14.9371 15.2008 15.786C15.7466 16.6348 15.9285 17.6616 15.9475 18.6626Z" fill="#E34F22"/>
<path d="M13.879 14.3138C13.9586 15.2892 14.023 18.7562 12.2131 17.7111C11.2409 17.1501 11.3148 15.2965 11.0704 14.3743C10.8733 13.6317 10.7311 12.7113 11.3338 12.2163C11.8606 11.7836 12.7248 11.9688 13.1948 12.4583C13.6667 12.9478 13.824 13.6464 13.879 14.3138Z" fill="#E67117"/>
<path d="M11.2933 19.6365C15.2201 18.5878 9.74683 15.4141 8.20606 17.5134C8.0734 17.8031 8.17384 18.1459 8.33114 18.4228C8.88832 19.4037 10.1789 19.9335 11.2933 19.6365Z" fill="#E67117"/>
<path d="M13.2738 21.611C13.7192 20.753 13.7249 18.342 12.2675 18.4099C11.1437 18.4612 10.2169 20.4926 10.3136 21.3929C10.5012 23.1383 12.5897 22.9256 13.2738 21.611Z" fill="#E67117"/>
<path d="M15.5026 19.2367C17.8639 17.9551 16.977 15.4635 14.3712 16.3307C13.7079 16.5507 13.0862 16.9816 12.8076 17.6049C12.5291 18.2283 12.6788 19.0497 13.2606 19.4292C13.9144 19.8582 14.8108 19.6107 15.5026 19.2367Z" fill="#E67117"/>
<path d="M15.4397 19.497C14.3633 18.5235 12.9836 19.0277 13.2735 20.5476C13.482 21.6403 14.7252 22.0015 15.4094 22.6744C15.6577 22.9182 15.9704 23.1731 16.321 23.1181C16.6678 23.0631 16.8933 22.7055 16.9085 22.3664C16.9236 22.0272 16.7796 21.7008 16.6375 21.3891C16.3285 20.7089 16.0045 20.0067 15.4397 19.497Z" fill="#E67117"/>
<path d="M6.0505 14.1855C5.45921 13.7509 4.75989 14.6365 5.35118 15.0728C5.94058 15.5074 6.64179 14.62 6.0505 14.1855Z" fill="#E67117"/>
<path d="M6.47837 16.4683C6.41962 16.4371 6.36277 16.406 6.30402 16.3748C6.00269 16.2153 5.64829 16.6645 5.88708 16.9028C5.93257 16.9487 5.97995 16.9945 6.02543 17.0403C6.19789 17.2108 6.47648 17.2494 6.64136 17.0403C6.80624 16.835 6.69632 16.5838 6.47837 16.4683Z" fill="#E67117"/>
<path d="M7.67899 19.0918C7.66193 19.0717 7.64488 19.0497 7.62782 19.0295C7.41556 18.7747 7.00621 18.7637 6.79774 19.0295C6.58927 19.2935 6.70866 19.673 7.01758 19.8051C7.04221 19.8161 7.06875 19.8271 7.09338 19.8362C7.54254 20.0269 7.9879 19.4622 7.67899 19.0918Z" fill="#E67117"/>
<path d="M10.4607 10.3719C10.4247 10.1189 10.2617 9.97038 10.0419 9.85121C10.0173 9.83837 9.99262 9.82554 9.96988 9.8127C9.72919 9.68253 9.34258 9.81087 9.19286 10.0199C9.12464 10.1134 9.08105 10.2179 9.0621 10.3316C9.03935 10.4691 9.08863 10.6983 9.19286 10.7991C9.21181 10.8174 9.23266 10.8376 9.25161 10.8559C9.42028 11.0228 9.62496 11.1529 9.88081 11.1089C10.0571 11.0778 10.2181 10.9971 10.3281 10.8559C10.4342 10.7239 10.4835 10.5387 10.4607 10.3719Z" fill="#E67117"/>
<path d="M11.477 8.31859C11.2742 8.18292 10.9672 8.19575 10.8156 8.40476C10.7909 8.43777 10.7663 8.4726 10.7416 8.5056C10.6014 8.69811 10.6166 8.99513 10.8307 9.13814C11.0449 9.28298 11.3178 9.24815 11.4845 9.05197C11.5111 9.0208 11.5395 8.9878 11.566 8.95663C11.7233 8.77329 11.6798 8.4561 11.477 8.31859Z" fill="#E67117"/>
<path d="M13.1821 9.84395C12.6628 9.46076 12.0488 10.24 12.568 10.6232C13.0873 11.0063 13.7013 10.2271 13.1821 9.84395Z" fill="#E67117"/>
<path d="M17.4099 15.135C17.1427 14.9389 16.8262 15.3386 17.0934 15.5366C17.3607 15.7327 17.6772 15.3312 17.4099 15.135Z" fill="#E67117"/>
<path d="M17.901 16.5579C17.4746 16.2444 16.9686 16.8842 17.3969 17.1977C17.8233 17.5131 18.3275 16.8732 17.901 16.5579Z" fill="#E67117"/>
<path d="M9.97908 24.1117L10.0189 23.998C10.0833 23.8202 9.88053 23.6698 9.71944 23.7762L9.6171 23.844C9.49013 23.9283 9.4996 24.1208 9.6171 24.207C9.7346 24.2932 9.92791 24.2528 9.97908 24.1117Z" fill="#E67117"/>
<path d="M11.465 24.3226C11.1826 24.1136 10.8471 24.539 11.1314 24.748C11.4119 24.9552 11.7473 24.5298 11.465 24.3226Z" fill="#E67117"/>
<path d="M17.3172 24.1027C17.3077 24.0605 17.2963 24.0165 17.2868 23.9744C17.2205 23.6957 16.9703 23.4518 16.6519 23.5068C16.3279 23.5637 16.1554 23.8149 16.1687 24.121C16.1706 24.165 16.1725 24.209 16.1744 24.253C16.1876 24.5464 16.5363 24.7811 16.8225 24.7316C17.1068 24.6802 17.3892 24.4071 17.3172 24.1027Z" fill="#E67117"/>
<path d="M17.8003 22.5459C17.7643 22.5404 17.7263 22.5349 17.6903 22.5276C17.4724 22.4927 17.2829 22.7329 17.3757 22.9273C17.3909 22.9603 17.4061 22.9914 17.4231 23.0244C17.5368 23.2628 17.8742 23.3196 18.0447 23.1033C18.2153 22.8869 18.0675 22.5881 17.8003 22.5459Z" fill="#E67117"/>
<path d="M65.5176 54.3161C65.6104 55.968 66.5125 57.5356 67.8373 58.5807C69.162 59.6257 70.879 60.1611 72.5884 60.1886C77.8134 60.2711 82.4547 55.781 84.1755 51.3203C84.8937 49.4556 85.2121 47.415 84.8482 45.4569C84.4844 43.497 83.4003 41.6305 81.7155 40.4883L65.5176 54.3161Z" fill="#35971D"/>
<path d="M84.1595 46.4102C84.1595 46.6192 84.1519 46.8228 84.1425 47.0153C84.1349 47.2078 84.1197 47.3985 84.1046 47.5891C83.8999 49.7764 83.0698 51.9032 81.7508 53.6908C81.5461 53.9695 81.3263 54.2409 81.0969 54.503C80.7558 54.8917 80.3881 55.2603 79.9958 55.6049C78.7962 56.6592 77.3464 57.4787 75.8 57.9572C75.5555 58.0343 75.3053 58.1003 75.0589 58.1571C73.5826 58.5018 72.0456 58.5256 70.575 58.1461C69.9363 57.9811 69.11 57.7097 68.3216 57.3284C68.0753 57.211 67.8308 57.079 67.5977 56.9397C66.4132 56.2228 65.5111 55.2254 65.8124 53.9402C66.11 52.6623 67.1789 51.7089 68.1947 50.8435C69.3507 49.8571 70.5049 48.8689 71.6628 47.8825C71.7273 47.8293 71.7936 47.7725 71.858 47.7175C72.4664 47.1968 73.0747 46.6779 73.6831 46.1591C73.7778 46.0766 73.8745 45.9977 73.9673 45.9152C75.5991 44.5236 77.2308 43.1284 78.8625 41.7368C79.3401 41.3279 79.7476 40.9301 80.1266 40.6221C81.0287 39.885 81.7527 39.6613 82.8121 41.0529C83.8298 42.3822 84.1709 44.6648 84.1595 46.4102Z" fill="#7FC239"/>
<path d="M84.1596 46.4105C84.1596 46.6195 84.152 46.823 84.1425 47.0155C84.135 47.208 84.1198 47.3987 84.1046 47.5894C83.9189 47.6975 83.6309 47.6352 83.5456 47.4354C80.7502 47.4115 77.8317 48.1302 75.0685 47.5527C75.023 47.8827 74.9017 48.2017 74.7027 48.4657C75.1481 48.5537 75.4646 48.9883 75.819 49.2926C76.4368 49.8225 77.0622 50.3524 77.7009 50.8621C78.3869 51.4103 79.09 51.9328 79.8216 52.4205C80.4546 52.844 81.1709 53.1979 81.7509 53.6892C81.5462 53.9679 81.3263 54.2392 81.097 54.5014C79.634 53.8671 78.2562 52.5763 77.0641 51.5881C76.3894 51.0289 75.7394 50.444 75.1273 49.817C74.824 49.5053 74.4242 49.2193 74.3427 48.8214C74.3313 48.8288 74.3218 48.8379 74.3104 48.8453C74.1854 48.9314 74.0565 48.9919 73.92 49.0414C74.4374 50.2002 74.5796 51.6303 74.8183 52.8147C75.1557 54.4831 75.711 56.2524 75.8 57.9501C75.8 57.952 75.8 57.952 75.8 57.9538C75.5556 58.0308 75.3054 58.0968 75.059 58.1536C75.0496 58.1408 75.0439 58.128 75.0401 58.1115C74.4886 56.5842 74.3218 54.8534 74.0034 53.2639C73.7457 51.9896 73.2662 50.5009 73.306 49.1459C72.9857 49.1423 72.6692 49.0561 72.3944 48.8966C71.7368 50.3689 71.0735 51.8356 70.3799 53.2932C69.9705 54.1586 69.5479 55.0148 69.1329 55.8765C68.8827 56.3899 68.6951 56.9142 68.3255 57.3231C68.0791 57.2058 67.8347 57.0737 67.6016 56.9344C67.7172 56.355 68.0583 55.8343 68.3274 55.2935C68.7254 54.4941 69.1177 53.6947 69.5214 52.8972C70.2813 51.3992 71.0678 49.9178 71.8619 48.4401C71.7918 48.3484 71.7292 48.2494 71.6762 48.1431C71.6269 48.0404 71.6288 47.9505 71.6629 47.8772C71.6989 47.802 71.7709 47.7434 71.8581 47.7122C72.0116 47.6535 72.2106 47.6737 72.33 47.8094C72.3319 47.813 72.3376 47.8167 72.3395 47.8185C72.5006 47.8002 72.6711 47.9047 72.7033 48.0624C73.0236 48.1962 73.4197 48.1962 73.6869 47.989C73.8575 47.8552 73.9504 47.6315 73.9655 47.4225C73.9826 47.1512 73.8348 47.0357 73.6775 46.8285C73.5088 46.6066 73.5448 46.35 73.6831 46.1538C73.7552 46.0493 73.8556 45.9631 73.9674 45.9099C74.1323 45.8311 74.3237 45.8183 74.4924 45.9246C75.6939 45.1986 76.9239 44.5257 78.1671 43.862C79.5752 43.1121 81.3074 42.4759 82.5373 41.4712C83.0415 41.0586 83.593 42.0524 82.9505 42.2394C81.3169 42.7124 79.7287 43.8436 78.2202 44.6137C77.0887 45.1912 75.9592 45.7559 74.8032 46.2784C74.9434 46.5021 75.0325 46.7533 75.0666 47.0173C77.9169 46.5645 80.953 47.1457 83.773 46.3921C83.9151 46.3573 84.0478 46.3665 84.1596 46.4105Z" fill="#99D459"/>
</svg>
